<svg width="305" height="512" viewBox="0 0 305 512" fill="none" xmlns="http://www.w3.org/2000/svg">
<mask id="path-1-outside-1_45_65" maskUnits="userSpaceOnUse" x="-1" y="0" width="306" height="512" fill="black">
<rect fill="white" x="-1" width="306" height="512"/>
<path d="M188.707 89.6369L130.5 6L72.2932 89.6369L6 33.879L31.0571 146H229.943L255 33.879L188.707 89.6369Z"/>
<path d="M296.281 273.103C277.968 158.275 189.704 163.416 143.77 258.168C122.455 226.005 86.3788 205.443 57.8081 219.128C57.5607 219.18 57.3228 219.298 57.1075 219.475C4.8196 243.233 -3.63653 340.555 18.3294 406.34C39.0444 476.709 99.9386 536.589 149.575 488.866C174.343 511.79 203.764 506.996 229.633 485.323C277.267 447.464 308.69 347.015 296.281 273.103ZM240.29 202.456C235.287 236.772 239.79 248.79 227.081 289.219C221.538 308.131 213.436 325.392 203.214 340.069C194.686 352.417 187.535 366.466 181.998 381.749C180.52 340.448 169.522 300.899 150.625 268.935C174.593 219.753 210.419 193.425 240.29 202.456ZM75.4709 478.237C53.9843 460.219 37.2605 433.054 27.7863 400.782C8.82251 344.098 13.1256 261.641 55.3062 235.105C58.8588 265.323 55.3062 276.785 66.9147 314.922C72.3954 333.512 80.4925 350.398 90.7319 364.59C100.278 377.593 107.805 393.173 112.848 410.369C124.456 447.186 119.853 458.3 124.256 489.838C107.523 494.694 90.0862 490.548 75.4709 478.237ZM133.713 485.879C129.86 455.036 133.713 443.296 121.905 405.02C116.367 386.326 108.183 369.365 97.8371 355.143C88.3727 342.13 80.916 326.578 75.9212 309.434C64.4129 272.964 68.8661 261.919 64.663 230.868C106.994 219.058 144.321 265.601 161.333 319.993C180.247 376.677 175.944 459.204 133.713 485.601V485.879ZM157.881 479.627C160.86 475.471 163.572 470.962 165.987 466.15C165.582 472.125 164.931 478.063 164.035 483.934C161.911 482.708 159.854 481.268 157.881 479.627ZM276.467 387.306C258.504 445.449 217.924 499.841 173.342 488.032C178.646 453.299 173.842 441.142 186.752 400.227C192.3 381.319 200.401 364.06 210.619 349.377C221.58 333.602 230.274 315.071 236.238 294.777C249.347 253.097 245.344 240.315 249.847 206.624C295.23 235.661 296.431 326.245 276.467 387.306Z"/>
</mask>
<path d="M188.707 89.6369L130.5 6L72.2932 89.6369L6 33.879L31.0571 146H229.943L255 33.879L188.707 89.6369Z" fill="#C4A484"/>
<path d="M296.281 273.103C277.968 158.275 189.704 163.416 143.77 258.168C122.455 226.005 86.3788 205.443 57.8081 219.128C57.5607 219.18 57.3228 219.298 57.1075 219.475C4.8196 243.233 -3.63653 340.555 18.3294 406.34C39.0444 476.709 99.9386 536.589 149.575 488.866C174.343 511.79 203.764 506.996 229.633 485.323C277.267 447.464 308.69 347.015 296.281 273.103ZM240.29 202.456C235.287 236.772 239.79 248.79 227.081 289.219C221.538 308.131 213.436 325.392 203.214 340.069C194.686 352.417 187.535 366.466 181.998 381.749C180.52 340.448 169.522 300.899 150.625 268.935C174.593 219.753 210.419 193.425 240.29 202.456ZM75.4709 478.237C53.9843 460.219 37.2605 433.054 27.7863 400.782C8.82251 344.098 13.1256 261.641 55.3062 235.105C58.8588 265.323 55.3062 276.785 66.9147 314.922C72.3954 333.512 80.4925 350.398 90.7319 364.59C100.278 377.593 107.805 393.173 112.848 410.369C124.456 447.186 119.853 458.3 124.256 489.838C107.523 494.694 90.0862 490.548 75.4709 478.237ZM133.713 485.879C129.86 455.036 133.713 443.296 121.905 405.02C116.367 386.326 108.183 369.365 97.8371 355.143C88.3727 342.13 80.916 326.578 75.9212 309.434C64.4129 272.964 68.8661 261.919 64.663 230.868C106.994 219.058 144.321 265.601 161.333 319.993C180.247 376.677 175.944 459.204 133.713 485.601V485.879ZM157.881 479.627C160.86 475.471 163.572 470.962 165.987 466.15C165.582 472.125 164.931 478.063 164.035 483.934C161.911 482.708 159.854 481.268 157.881 479.627ZM276.467 387.306C258.504 445.449 217.924 499.841 173.342 488.032C178.646 453.299 173.842 441.142 186.752 400.227C192.3 381.319 200.401 364.06 210.619 349.377C221.58 333.602 230.274 315.071 236.238 294.777C249.347 253.097 245.344 240.315 249.847 206.624C295.23 235.661 296.431 326.245 276.467 387.306Z" fill="#C4A484"/>
<path d="M188.707 89.6369L183.782 93.0642C184.745 94.4485 186.247 95.3633 187.919 95.5849C189.59 95.8064 191.278 95.3142 192.569 94.2287L188.707 89.6369ZM130.5 6L135.425 2.57264C134.303 0.960879 132.464 0 130.5 0C128.536 0 126.697 0.960879 125.575 2.57264L130.5 6ZM72.2932 89.6369L68.4312 94.2287C69.7218 95.3142 71.4096 95.8064 73.0815 95.5849C74.7533 95.3633 76.2546 94.4485 77.218 93.0642L72.2932 89.6369ZM6 33.879L9.86206 29.2872C7.89249 27.6306 5.08581 27.4146 2.88597 28.7503C0.686125 30.0861 -0.416865 32.6759 0.144445 35.1876L6 33.879ZM31.0571 146L25.2016 147.309C25.8143 150.05 28.2476 152 31.0571 152L31.0571 146ZM229.943 146V152C232.752 152 235.186 150.05 235.798 147.309L229.943 146ZM255 33.879L260.856 35.1876C261.417 32.6759 260.314 30.0861 258.114 28.7503C255.914 27.4146 253.108 27.6306 251.138 29.2872L255 33.879ZM296.281 273.103L290.356 274.048L290.36 274.072L290.364 274.097L296.281 273.103ZM143.77 258.168L138.769 261.482L144.581 270.251L149.169 260.785L143.77 258.168ZM57.8081 219.128L59.0502 224.998L59.7525 224.849L60.4 224.539L57.8081 219.128ZM57.1075 219.475L59.5895 224.938L60.3086 224.611L60.9186 224.109L57.1075 219.475ZM18.3294 406.34L24.0852 404.645L24.0547 404.542L24.0205 404.439L18.3294 406.34ZM149.575 488.866L153.65 484.462L149.496 480.618L145.416 484.541L149.575 488.866ZM229.633 485.323L225.9 480.626L225.839 480.674L225.779 480.724L229.633 485.323ZM240.29 202.456L246.228 203.322L246.973 198.208L242.027 196.713L240.29 202.456ZM227.081 289.219L221.357 287.42L221.339 287.476L221.323 287.532L227.081 289.219ZM203.214 340.069L198.29 336.639L198.283 336.649L198.276 336.659L203.214 340.069ZM181.998 381.749L176.002 381.963L187.639 383.792L181.998 381.749ZM150.625 268.935L145.232 266.307L143.817 269.209L145.46 271.989L150.625 268.935ZM75.4709 478.237L79.3362 473.648L79.3262 473.64L75.4709 478.237ZM27.7863 400.782L33.5433 399.092L33.5118 398.985L33.4763 398.879L27.7863 400.782ZM55.3062 235.105L61.2652 234.404L60.1555 224.966L52.1113 230.026L55.3062 235.105ZM66.9147 314.922L72.6698 313.225L72.6623 313.2L72.6546 313.175L66.9147 314.922ZM90.7319 364.59L85.8661 368.101L85.8807 368.121L85.8955 368.141L90.7319 364.59ZM112.848 410.369L107.09 412.057L107.107 412.115L107.126 412.173L112.848 410.369ZM124.256 489.838L125.928 495.6L130.917 494.153L130.199 489.009L124.256 489.838ZM133.713 485.879L127.759 486.622L139.713 485.879H133.713ZM121.905 405.02L116.152 406.724L116.161 406.756L116.171 406.789L121.905 405.02ZM97.8371 355.143L92.9847 358.672L92.9851 358.673L97.8371 355.143ZM75.9212 309.434L81.6817 307.756L81.6631 307.692L81.6431 307.628L75.9212 309.434ZM64.663 230.868L63.0507 225.088L58.0161 226.493L58.7172 231.672L64.663 230.868ZM161.333 319.993L155.607 321.784L155.624 321.838L155.642 321.892L161.333 319.993ZM133.713 485.601L130.533 480.513L127.713 482.275V485.601H133.713ZM157.881 479.627L153.004 476.131L149.751 480.668L154.043 484.239L157.881 479.627ZM165.987 466.15L171.973 466.555L160.624 463.459L165.987 466.15ZM164.035 483.934L161.037 489.131L168.643 493.519L169.967 484.838L164.035 483.934ZM276.467 387.306L270.764 385.441L270.749 385.488L270.734 385.535L276.467 387.306ZM173.342 488.032L167.411 487.126L166.597 492.452L171.806 493.832L173.342 488.032ZM186.752 400.227L192.474 402.032L192.492 401.974L192.509 401.916L186.752 400.227ZM210.619 349.377L215.544 352.805L215.546 352.801L210.619 349.377ZM236.238 294.777L230.514 292.976L230.497 293.031L230.481 293.085L236.238 294.777ZM249.847 206.624L253.081 201.57L245.148 196.494L243.9 205.829L249.847 206.624ZM193.632 86.2095L135.425 2.57264L125.575 9.42736L183.782 93.0642L193.632 86.2095ZM125.575 2.57264L67.3685 86.2095L77.218 93.0642L135.425 9.42736L125.575 2.57264ZM76.1553 85.0451L9.86206 29.2872L2.13794 38.4708L68.4312 94.2287L76.1553 85.0451ZM0.144445 35.1876L25.2016 147.309L36.9127 144.691L11.8556 32.5703L0.144445 35.1876ZM235.798 147.309L260.856 35.1876L249.144 32.5703L224.087 144.691L235.798 147.309ZM251.138 29.2872L184.845 85.0451L192.569 94.2287L258.862 38.4708L251.138 29.2872ZM302.206 272.158C292.885 213.709 265.063 182.449 230.627 181.048C196.99 179.68 161.759 207.306 138.371 255.551L149.169 260.785C171.715 214.277 203.583 191.958 230.139 193.038C255.897 194.086 281.364 217.669 290.356 274.048L302.206 272.158ZM148.772 254.853C137.621 238.027 122.504 224.054 106.143 216.063C89.7631 208.064 71.6161 205.861 55.2161 213.716L60.4 224.539C72.5708 218.709 86.7472 219.945 100.877 226.846C115.025 233.756 128.605 246.146 138.769 261.482L148.772 254.853ZM56.5659 213.258C55.2817 213.529 54.1787 214.115 53.2964 214.841L60.9186 224.109C60.467 224.481 59.8397 224.831 59.0502 224.998L56.5659 213.258ZM54.6256 214.013C25.7206 227.146 9.96994 259.971 3.95446 296.163C-2.11025 332.652 1.34522 374.419 12.6383 408.24L24.0205 404.439C13.3477 372.476 10.0482 332.689 15.7921 298.131C21.5852 263.277 36.2066 235.562 59.5895 224.938L54.6256 214.013ZM12.5736 408.034C23.1912 444.102 44.1969 477.929 69.534 496.708C82.2572 506.138 96.3936 511.998 111.039 512C125.815 512.002 140.369 506.04 153.733 493.191L145.416 484.541C133.962 495.553 122.291 500.002 111.041 500C99.6622 499.998 87.9735 495.438 76.6793 487.067C53.9816 470.244 34.1827 438.947 24.0852 404.645L12.5736 408.034ZM145.499 493.269C159.004 505.769 174.161 510.98 189.646 509.801C204.944 508.636 219.914 501.293 233.486 489.922L225.779 480.724C213.483 491.026 200.808 496.916 188.735 497.836C176.851 498.741 164.913 494.887 153.65 484.462L145.499 493.269ZM233.366 490.02C258.504 470.041 278.761 434.181 291.198 394.529C303.672 354.761 308.593 310.199 302.198 272.11L290.364 274.097C296.378 309.92 291.793 352.538 279.748 390.937C267.668 429.452 248.396 462.746 225.9 480.626L233.366 490.02ZM234.353 201.59C231.823 218.942 231.643 231.171 230.598 243.018C229.547 254.953 227.576 267.637 221.357 287.42L232.805 291.019C239.295 270.373 241.427 256.833 242.552 244.072C243.684 231.224 243.754 220.286 246.228 203.322L234.353 201.59ZM221.323 287.532C215.944 305.884 208.107 322.545 198.29 336.639L208.137 343.498C218.766 328.238 227.132 310.377 232.839 290.907L221.323 287.532ZM198.276 336.659C189.433 349.465 182.055 363.978 176.357 379.705L187.639 383.792C193.016 368.953 199.938 355.37 208.151 343.478L198.276 336.659ZM187.994 381.534C186.485 339.348 175.252 298.802 155.79 265.882L145.46 271.989C163.792 302.997 174.556 341.548 176.002 381.963L187.994 381.534ZM156.019 271.564C167.704 247.586 182.101 229.569 196.811 218.69C211.524 207.809 226 204.404 238.554 208.199L242.027 196.713C224.709 191.477 206.336 196.721 189.676 209.042C173.014 221.364 157.515 241.102 145.232 266.307L156.019 271.564ZM79.3262 473.64C58.914 456.523 42.7517 430.459 33.5433 399.092L22.0292 402.472C31.7693 435.65 49.0547 463.916 71.6156 482.835L79.3262 473.64ZM33.4763 398.879C24.2773 371.382 20.7072 337.508 24.5684 307.401C28.4611 277.049 39.6743 252.028 58.5012 240.184L52.1113 230.026C28.7576 244.718 16.7289 274.194 12.6659 305.875C8.57126 337.802 12.3315 373.498 22.0962 402.686L33.4763 398.879ZM49.3473 235.806C52.7578 264.815 49.3689 277.884 61.1747 316.669L72.6546 313.175C61.2436 275.686 64.9599 265.831 61.2652 234.404L49.3473 235.806ZM61.1596 316.619C66.8116 335.79 75.1896 353.303 85.8661 368.101L95.5977 361.08C85.7955 347.493 77.9792 331.235 72.6698 313.225L61.1596 316.619ZM85.8955 368.141C94.9856 380.522 102.222 395.457 107.09 412.057L118.606 408.68C113.388 390.888 105.571 374.664 95.5684 361.039L85.8955 368.141ZM107.126 412.173C112.783 430.117 114.453 441.643 115.271 452.533C116.084 463.352 116.08 474.671 118.314 490.668L130.199 489.009C128.029 473.468 128.126 463.461 127.237 451.634C126.354 439.877 124.521 427.438 118.57 408.564L107.126 412.173ZM122.584 484.076C107.987 488.312 92.5928 484.814 79.3362 473.648L71.6056 482.826C87.5795 496.281 107.059 501.076 125.928 495.6L122.584 484.076ZM139.667 485.135C135.986 455.667 139.633 442.132 127.638 403.251L116.171 406.789C127.793 444.459 123.735 454.404 127.759 486.622L139.667 485.135ZM127.657 403.316C121.947 384.037 113.478 366.445 102.689 351.613L92.9851 358.673C102.888 372.285 110.787 388.614 116.152 406.724L127.657 403.316ZM102.689 351.614C93.6745 339.219 86.504 324.307 81.6817 307.756L70.1607 311.112C75.328 328.848 83.071 345.041 92.9847 358.672L102.689 351.614ZM81.6431 307.628C76.0334 289.852 74.3527 278.427 73.5354 267.665C72.7257 257.002 72.7368 245.784 70.6088 230.063L58.7172 231.672C60.7923 247.003 60.6783 256.833 61.5699 268.573C62.4538 280.213 64.3006 292.547 70.1993 311.24L81.6431 307.628ZM66.2753 236.647C84.5945 231.536 102.369 238.768 118.224 254.821C134.112 270.908 147.293 295.204 155.607 321.784L167.06 318.202C158.361 290.389 144.372 264.219 126.761 246.388C109.117 228.524 87.0622 218.39 63.0507 225.088L66.2753 236.647ZM155.642 321.892C164.817 349.39 168.375 383.282 164.501 413.389C160.596 443.744 149.371 468.737 130.533 480.513L136.893 490.689C160.285 476.067 172.328 446.598 176.403 414.92C180.511 382.994 176.763 347.28 167.025 318.094L155.642 321.892ZM127.713 485.601V485.879H139.713V485.601H127.713ZM162.757 483.123C165.929 478.699 168.802 473.918 171.349 468.841L160.624 463.459C158.343 468.005 155.792 472.243 153.004 476.131L162.757 483.123ZM160 465.745C159.607 471.554 158.974 477.325 158.104 483.029L169.967 484.838C170.887 478.8 171.557 472.696 171.973 466.555L160 465.745ZM167.034 478.737C165.219 477.689 163.441 476.448 161.718 475.014L154.043 484.239C156.267 486.089 158.603 487.727 161.037 489.131L167.034 478.737ZM270.734 385.535C261.938 414.005 247.677 441.266 230.485 459.824C213.232 478.448 194.086 487.32 174.878 482.232L171.806 493.832C197.18 500.553 220.615 488.134 239.288 467.979C258.022 447.757 273.032 418.75 282.199 389.077L270.734 385.535ZM179.273 488.938C181.962 471.327 182.136 458.999 183.173 446.962C184.213 434.877 186.159 422.044 192.474 402.032L181.03 398.421C174.434 419.325 172.328 433.028 171.217 445.933C170.101 458.888 170.025 470.004 167.411 487.126L179.273 488.938ZM192.509 401.916C197.893 383.567 205.731 366.905 215.544 352.805L205.694 345.95C195.071 361.214 186.706 379.072 180.994 398.537L192.509 401.916ZM215.546 352.801C226.91 336.446 235.868 317.319 241.994 296.468L230.481 293.085C224.681 312.824 216.249 330.758 205.692 345.954L215.546 352.801ZM241.961 296.577C255.257 254.304 251.472 239.759 255.795 207.419L243.9 205.829C239.216 240.871 243.437 251.89 230.514 292.976L241.961 296.577ZM246.614 211.678C266.961 224.697 278.277 252.254 281.694 285.568C285.081 318.594 280.5 355.662 270.764 385.441L282.17 389.17C292.398 357.888 297.199 319.134 293.631 284.344C290.093 249.841 278.116 217.588 253.081 201.57L246.614 211.678ZM31.0571 152H229.943V140H31.0571V152Z" fill="#C4A484" mask="url(#path-1-outside-1_45_65)"/>
</svg>
