<svg width="292" height="413" viewBox="0 0 292 413" fill="none" xmlns="http://www.w3.org/2000/svg">
<mask id="path-1-inside-1_45_67" fill="white">
<path d="M52.9137 117.543L66.9604 100.63C67.8774 99.5278 68.207 97.8767 67.8124 96.3697C67.4155 94.8655 66.364 93.7685 65.0972 93.5413L45.6875 90.0536L37.0039 68.332C36.4389 66.9137 35.2685 66.0161 33.9905 66.0161C32.7125 66.0161 31.5422 66.9137 30.9749 68.3293L22.2824 90.0536L2.8816 93.5413C1.61258 93.7685 0.56104 94.8655 0.164191 96.3697C-0.230416 97.8712 0.0991707 99.525 1.01394 100.63L15.0539 117.543L11.749 141.428C11.5338 142.985 12.0517 144.561 13.0876 145.492C14.1257 146.423 15.4956 146.547 16.6301 145.808L33.9883 134.53L51.3465 145.808C51.8398 146.126 52.3756 146.284 52.9115 146.284C53.6088 146.284 54.3016 146.015 54.889 145.492C55.9249 144.561 56.4428 142.987 56.2275 141.425L52.9137 117.543ZM46.952 113.116C46.1583 114.072 45.7974 115.446 45.9834 116.795L48.4453 134.53L35.5533 126.155C34.5712 125.521 33.4031 125.521 32.4233 126.155L19.5268 134.535L21.9819 116.795C22.168 115.448 21.807 114.074 21.0156 113.119L10.5876 100.556L24.9975 97.9654C26.0917 97.7687 27.0378 96.921 27.5288 95.6938L33.9883 79.5516L40.4388 95.691C40.9275 96.9182 41.876 97.7659 42.9701 97.9626L57.3845 100.553L46.952 113.116Z"/>
<path d="M65.3327 115.681C63.5256 115.169 61.7252 116.606 61.3283 118.85C60.9315 121.094 62.0794 123.308 63.8955 123.798C64.3551 123.923 109.959 136.835 124.398 190.154C124.869 191.893 126.181 192.99 127.589 192.99C127.941 192.99 128.302 192.924 128.656 192.777C130.418 192.046 131.369 189.694 130.779 187.519C115.138 129.771 67.3573 116.227 65.3327 115.681Z"/>
<path d="M140.29 159.939C106.856 133.402 118.957 61.5033 119.082 60.7803C119.475 58.5363 118.32 56.3257 116.506 55.8409C114.71 55.3644 112.905 56.7772 112.511 59.0211C112.372 59.8107 109.134 78.6234 110.342 101.273C111.97 131.857 121.071 154.559 136.656 166.928C137.218 167.374 137.846 167.587 138.472 167.587C139.577 167.587 140.662 166.914 141.303 165.678C142.308 163.748 141.855 161.177 140.29 159.939Z"/>
<path d="M105.668 49.8074L118.697 47.6466L127.503 59.6833C128.149 60.567 129.059 61.0518 129.997 61.0518C130.304 61.0518 130.611 60.9992 130.916 60.8939C132.147 60.4617 133.073 59.204 133.304 57.6472L135.676 41.6822L147.68 35.0225C148.848 34.3743 149.617 32.9643 149.664 31.3852C149.711 29.8034 149.027 28.3269 147.902 27.5761L136.337 19.8637L134.927 3.7132C134.788 2.14247 133.943 0.801664 132.739 0.255925C131.535 -0.292584 130.189 0.0564672 129.261 1.15072L119.744 12.3564L106.879 9.01822C105.627 8.68579 104.331 9.27585 103.542 10.5197C102.751 11.7635 102.603 13.4562 103.157 14.8828L108.838 29.5264L102.305 43.6269C101.668 44.9982 101.719 46.6964 102.432 48.0122C103.145 49.3198 104.405 50.0124 105.668 49.8074ZM115.665 27.9002L112.165 18.8831L120.091 20.9386C121.174 21.2184 122.3 20.8222 123.104 19.8804L128.97 12.9741L129.84 22.9276C129.959 24.2878 130.611 25.4873 131.584 26.1384L138.709 30.8893L131.311 34.9948C130.302 35.5544 129.58 36.6902 129.38 38.0338L127.92 47.8599L122.499 40.4495C121.858 39.5713 120.95 39.081 120.006 39.081C119.858 39.081 119.708 39.092 119.56 39.117L111.526 40.4495L115.551 31.7592C116.098 30.5735 116.143 29.1302 115.665 27.9002Z"/>
<path d="M220.507 62.7416C219.947 61.3204 218.779 60.4146 217.501 60.4062L208.436 60.3508L203.353 51.1037C202.633 49.7962 201.376 49.1147 200.107 49.3225C198.84 49.5413 197.782 50.63 197.378 52.1315L194.528 62.7526L185.827 65.8969C184.598 66.3401 183.679 67.6089 183.457 69.1658C183.235 70.7227 183.751 72.3017 184.782 73.2353L192.087 79.8478L191.802 91.0452C191.759 92.627 192.45 94.098 193.58 94.8432C194.078 95.1701 194.62 95.3335 195.163 95.3335C195.853 95.3335 196.539 95.0704 197.122 94.5551L204.483 88.0312L213.003 91.8098C214.205 92.3444 215.552 91.9899 216.476 90.8873C217.395 89.7903 217.734 88.1392 217.344 86.6322L214.586 75.9584L220.144 67.1075C220.924 65.8581 221.068 64.1655 220.507 62.7416ZM207.638 76.4044L208.862 81.1416L205.093 79.4711C204.053 79.0085 202.896 79.2079 201.997 80.0058L198.737 82.8924L198.865 77.9225C198.9 76.5513 198.385 75.2492 197.492 74.4403L194.257 71.5094L198.109 70.116C199.169 69.7337 200.01 68.7308 200.358 67.4371L201.618 62.7388L203.867 66.8305C204.49 67.9635 205.523 68.645 206.631 68.6505L210.644 68.6754L208.183 72.5953C207.505 73.6757 207.301 75.1024 207.638 76.4044Z"/>
<path d="M179.657 81.9701C179.067 81.9063 164.758 80.6043 153.2 93.7436C143.938 104.276 139.241 120.773 139.241 142.783C139.241 145.076 140.747 146.938 142.604 146.938C144.46 146.938 145.967 145.076 145.967 142.783C145.967 123.255 149.909 108.844 157.682 99.9434C167.022 89.2475 178.986 90.2476 179.112 90.2531C180.986 90.4553 182.576 88.7378 182.73 86.4551C182.883 84.1696 181.509 82.1584 179.657 81.9701Z"/>
<path d="M99.0679 368.764H193.932C232.325 368.764 233 318.351 233 318.351V207.764H60V318.351C60 318.351 60 368.764 99.0679 368.764Z"/>
<path d="M171 368.764H194.179C232.329 368.764 233 318.351 233 318.351V207.764H171.052L171 368.764Z"/>
<path d="M49.0117 390.764C47.4173 390.764 45.8882 391.537 44.7608 392.912C43.6334 394.287 43 396.152 43 398.096C43 400.041 43.6334 401.905 44.7608 403.28C45.8882 404.655 47.4173 405.428 49.0117 405.428H93.6852C93.6852 407.372 94.3186 409.237 95.446 410.612C96.5734 411.987 98.1025 412.76 99.697 412.76H189.821C190.628 412.794 191.432 412.629 192.186 412.276C192.939 411.923 193.627 411.388 194.207 410.704C194.787 410.02 195.249 409.2 195.564 408.293C195.879 407.387 196.041 406.412 196.04 405.428H239.988C241.583 405.428 243.112 404.655 244.239 403.28C245.367 401.905 246 400.041 246 398.096C246 396.152 245.367 394.287 244.239 392.912C243.112 391.537 241.583 390.764 239.988 390.764H49.0117Z"/>
<path d="M287.075 231.948C284.946 226.447 281.806 221.571 277.883 217.672C273.959 213.774 269.35 210.949 264.387 209.401C257.599 207.632 250.524 208.15 243.974 210.896V199H51.9982V319.145C51.9982 339.824 61.9936 379 99.5954 379H196.271C233.291 379 243.868 339.948 243.868 319.145V304.384C249.382 304.798 254.914 304.06 260.209 302.204C268.966 299.126 276.739 293.031 282.527 284.702C287.75 277.497 290.983 268.587 291.796 259.162C292.608 249.736 290.962 240.243 287.075 231.948ZM228.108 217.685V305.63H67.864V217.685H228.108ZM196.376 360.315H99.7012C78.5469 360.315 71.4073 342.564 69.0275 330.232H226.733C224.247 342.502 217.002 360.315 196.271 360.315H196.376ZM266.397 269.007C263.648 272.754 260.179 275.675 256.28 277.527C252.38 279.38 248.161 280.11 243.974 279.657V238.114C248.499 234.379 254.034 232.738 259.522 233.505C260.844 233.879 264.811 235 268.46 243.408C270.417 247.399 271.271 252.008 270.901 256.596C270.531 261.183 268.957 265.522 266.397 269.007Z"/>
</mask>
<path d="M52.9137 117.543L66.9604 100.63C67.8774 99.5278 68.207 97.8767 67.8124 96.3697C67.4155 94.8655 66.364 93.7685 65.0972 93.5413L45.6875 90.0536L37.0039 68.332C36.4389 66.9137 35.2685 66.0161 33.9905 66.0161C32.7125 66.0161 31.5422 66.9137 30.9749 68.3293L22.2824 90.0536L2.8816 93.5413C1.61258 93.7685 0.56104 94.8655 0.164191 96.3697C-0.230416 97.8712 0.0991707 99.525 1.01394 100.63L15.0539 117.543L11.749 141.428C11.5338 142.985 12.0517 144.561 13.0876 145.492C14.1257 146.423 15.4956 146.547 16.6301 145.808L33.9883 134.53L51.3465 145.808C51.8398 146.126 52.3756 146.284 52.9115 146.284C53.6088 146.284 54.3016 146.015 54.889 145.492C55.9249 144.561 56.4428 142.987 56.2275 141.425L52.9137 117.543ZM46.952 113.116C46.1583 114.072 45.7974 115.446 45.9834 116.795L48.4453 134.53L35.5533 126.155C34.5712 125.521 33.4031 125.521 32.4233 126.155L19.5268 134.535L21.9819 116.795C22.168 115.448 21.807 114.074 21.0156 113.119L10.5876 100.556L24.9975 97.9654C26.0917 97.7687 27.0378 96.921 27.5288 95.6938L33.9883 79.5516L40.4388 95.691C40.9275 96.9182 41.876 97.7659 42.9701 97.9626L57.3845 100.553L46.952 113.116Z" fill="#C4A484"/>
<path d="M65.3327 115.681C63.5256 115.169 61.7252 116.606 61.3283 118.85C60.9315 121.094 62.0794 123.308 63.8955 123.798C64.3551 123.923 109.959 136.835 124.398 190.154C124.869 191.893 126.181 192.99 127.589 192.99C127.941 192.99 128.302 192.924 128.656 192.777C130.418 192.046 131.369 189.694 130.779 187.519C115.138 129.771 67.3573 116.227 65.3327 115.681Z" fill="#C4A484"/>
<path d="M140.29 159.939C106.856 133.402 118.957 61.5033 119.082 60.7803C119.475 58.5363 118.32 56.3257 116.506 55.8409C114.71 55.3644 112.905 56.7772 112.511 59.0211C112.372 59.8107 109.134 78.6234 110.342 101.273C111.97 131.857 121.071 154.559 136.656 166.928C137.218 167.374 137.846 167.587 138.472 167.587C139.577 167.587 140.662 166.914 141.303 165.678C142.308 163.748 141.855 161.177 140.29 159.939Z" fill="#C4A484"/>
<path d="M105.668 49.8074L118.697 47.6466L127.503 59.6833C128.149 60.567 129.059 61.0518 129.997 61.0518C130.304 61.0518 130.611 60.9992 130.916 60.8939C132.147 60.4617 133.073 59.204 133.304 57.6472L135.676 41.6822L147.68 35.0225C148.848 34.3743 149.617 32.9643 149.664 31.3852C149.711 29.8034 149.027 28.3269 147.902 27.5761L136.337 19.8637L134.927 3.7132C134.788 2.14247 133.943 0.801664 132.739 0.255925C131.535 -0.292584 130.189 0.0564672 129.261 1.15072L119.744 12.3564L106.879 9.01822C105.627 8.68579 104.331 9.27585 103.542 10.5197C102.751 11.7635 102.603 13.4562 103.157 14.8828L108.838 29.5264L102.305 43.6269C101.668 44.9982 101.719 46.6964 102.432 48.0122C103.145 49.3198 104.405 50.0124 105.668 49.8074ZM115.665 27.9002L112.165 18.8831L120.091 20.9386C121.174 21.2184 122.3 20.8222 123.104 19.8804L128.97 12.9741L129.84 22.9276C129.959 24.2878 130.611 25.4873 131.584 26.1384L138.709 30.8893L131.311 34.9948C130.302 35.5544 129.58 36.6902 129.38 38.0338L127.92 47.8599L122.499 40.4495C121.858 39.5713 120.95 39.081 120.006 39.081C119.858 39.081 119.708 39.092 119.56 39.117L111.526 40.4495L115.551 31.7592C116.098 30.5735 116.143 29.1302 115.665 27.9002Z" fill="#C4A484"/>
<path d="M220.507 62.7416C219.947 61.3204 218.779 60.4146 217.501 60.4062L208.436 60.3508L203.353 51.1037C202.633 49.7962 201.376 49.1147 200.107 49.3225C198.84 49.5413 197.782 50.63 197.378 52.1315L194.528 62.7526L185.827 65.8969C184.598 66.3401 183.679 67.6089 183.457 69.1658C183.235 70.7227 183.751 72.3017 184.782 73.2353L192.087 79.8478L191.802 91.0452C191.759 92.627 192.45 94.098 193.58 94.8432C194.078 95.1701 194.62 95.3335 195.163 95.3335C195.853 95.3335 196.539 95.0704 197.122 94.5551L204.483 88.0312L213.003 91.8098C214.205 92.3444 215.552 91.9899 216.476 90.8873C217.395 89.7903 217.734 88.1392 217.344 86.6322L214.586 75.9584L220.144 67.1075C220.924 65.8581 221.068 64.1655 220.507 62.7416ZM207.638 76.4044L208.862 81.1416L205.093 79.4711C204.053 79.0085 202.896 79.2079 201.997 80.0058L198.737 82.8924L198.865 77.9225C198.9 76.5513 198.385 75.2492 197.492 74.4403L194.257 71.5094L198.109 70.116C199.169 69.7337 200.01 68.7308 200.358 67.4371L201.618 62.7388L203.867 66.8305C204.49 67.9635 205.523 68.645 206.631 68.6505L210.644 68.6754L208.183 72.5953C207.505 73.6757 207.301 75.1024 207.638 76.4044Z" fill="#C4A484"/>
<path d="M179.657 81.9701C179.067 81.9063 164.758 80.6043 153.2 93.7436C143.938 104.276 139.241 120.773 139.241 142.783C139.241 145.076 140.747 146.938 142.604 146.938C144.46 146.938 145.967 145.076 145.967 142.783C145.967 123.255 149.909 108.844 157.682 99.9434C167.022 89.2475 178.986 90.2476 179.112 90.2531C180.986 90.4553 182.576 88.7378 182.73 86.4551C182.883 84.1696 181.509 82.1584 179.657 81.9701Z" fill="#C4A484"/>
<path d="M49.0117 390.764C47.4173 390.764 45.8882 391.537 44.7608 392.912C43.6334 394.287 43 396.152 43 398.096C43 400.041 43.6334 401.905 44.7608 403.28C45.8882 404.655 47.4173 405.428 49.0117 405.428H93.6852C93.6852 407.372 94.3186 409.237 95.446 410.612C96.5734 411.987 98.1025 412.76 99.697 412.76H189.821C190.628 412.794 191.432 412.629 192.186 412.276C192.939 411.923 193.627 411.388 194.207 410.704C194.787 410.02 195.249 409.2 195.564 408.293C195.879 407.387 196.041 406.412 196.04 405.428H239.988C241.583 405.428 243.112 404.655 244.239 403.28C245.367 401.905 246 400.041 246 398.096C246 396.152 245.367 394.287 244.239 392.912C243.112 391.537 241.583 390.764 239.988 390.764H49.0117Z" fill="#C4A484"/>
<path d="M287.075 231.948C284.946 226.447 281.806 221.571 277.883 217.672C273.959 213.774 269.35 210.949 264.387 209.401C257.599 207.632 250.524 208.15 243.974 210.896V199H51.9982V319.145C51.9982 339.824 61.9936 379 99.5954 379H196.271C233.291 379 243.868 339.948 243.868 319.145V304.384C249.382 304.798 254.914 304.06 260.209 302.204C268.966 299.126 276.739 293.031 282.527 284.702C287.75 277.497 290.983 268.587 291.796 259.162C292.608 249.736 290.962 240.243 287.075 231.948ZM228.108 217.685V305.63H67.864V217.685H228.108ZM196.376 360.315H99.7012C78.5469 360.315 71.4073 342.564 69.0275 330.232H226.733C224.247 342.502 217.002 360.315 196.271 360.315H196.376ZM266.397 269.007C263.648 272.754 260.179 275.675 256.28 277.527C252.38 279.38 248.161 280.11 243.974 279.657V238.114C248.499 234.379 254.034 232.738 259.522 233.505C260.844 233.879 264.811 235 268.46 243.408C270.417 247.399 271.271 252.008 270.901 256.596C270.531 261.183 268.957 265.522 266.397 269.007Z" fill="#C4A484"/>
<path d="M234.5 318.351V207.764H231.5V318.351H234.5ZM52.9137 117.543L50.6059 115.626L49.7603 116.644L49.9422 117.955L52.9137 117.543ZM66.9604 100.63L64.6539 98.712L64.6526 98.7136L66.9604 100.63ZM67.8124 96.3697L70.7146 95.6098L70.7131 95.6045L67.8124 96.3697ZM65.0972 93.5413L64.5667 96.494L64.5677 96.4942L65.0972 93.5413ZM45.6875 90.0536L42.9018 91.1672L43.5194 92.712L45.1569 93.0063L45.6875 90.0536ZM37.0039 68.332L34.2169 69.4423L34.2182 69.4457L37.0039 68.332ZM30.9749 68.3293L28.1902 67.2134L28.1896 67.2148L30.9749 68.3293ZM22.2824 90.0536L22.8132 93.0062L24.4499 92.712L25.0677 91.1681L22.2824 90.0536ZM2.8816 93.5413L3.41021 96.4944L3.41241 96.494L2.8816 93.5413ZM0.164191 96.3697L-2.73656 95.6045L-2.73728 95.6072L0.164191 96.3697ZM1.01394 100.63L-1.29723 102.543L-1.29432 102.547L1.01394 100.63ZM15.0539 117.543L18.0256 117.954L18.2068 116.644L17.3621 115.627L15.0539 117.543ZM11.749 141.428L8.77736 141.017L8.77731 141.017L11.749 141.428ZM13.0876 145.492L11.0824 147.723L11.0848 147.725L13.0876 145.492ZM16.6301 145.808L14.9956 143.292L14.9916 143.295L16.6301 145.808ZM33.9883 134.53L35.6227 132.014L33.9883 130.952L32.3539 132.014L33.9883 134.53ZM51.3465 145.808L49.7121 148.323L49.7189 148.328L51.3465 145.808ZM54.889 145.492L56.8851 147.731L56.8942 147.723L54.889 145.492ZM56.2275 141.425L59.1995 141.016L59.1991 141.013L56.2275 141.425ZM46.952 113.116L49.26 115.033L49.26 115.032L46.952 113.116ZM45.9834 116.795L43.0116 117.205L43.0119 117.207L45.9834 116.795ZM48.4453 134.53L46.811 137.046L52.32 140.624L51.4168 134.117L48.4453 134.53ZM35.5533 126.155L37.1875 123.64L37.1811 123.636L35.5533 126.155ZM32.4233 126.155L30.7928 123.637L30.7887 123.64L32.4233 126.155ZM19.5268 134.535L16.5552 134.124L15.655 140.629L21.1614 137.051L19.5268 134.535ZM21.9819 116.795L24.9536 117.206L24.9537 117.206L21.9819 116.795ZM21.0156 113.119L23.3262 111.205L23.324 111.203L21.0156 113.119ZM10.5876 100.556L10.0569 97.6029L4.99344 98.5131L8.27926 102.472L10.5876 100.556ZM24.9975 97.9654L25.5283 100.918L25.5283 100.918L24.9975 97.9654ZM27.5288 95.6938L24.7436 94.5792L24.7435 94.5794L27.5288 95.6938ZM33.9883 79.5516L36.774 78.4382L33.99 71.4723L31.203 78.437L33.9883 79.5516ZM40.4388 95.691L43.2259 94.581L43.2245 94.5776L40.4388 95.691ZM42.9701 97.9626L42.4393 100.915L42.4395 100.915L42.9701 97.9626ZM57.3845 100.553L59.6924 102.469L62.9801 98.5103L57.915 97.6001L57.3845 100.553ZM65.3327 115.681L64.5142 118.567L64.533 118.573L64.5519 118.578L65.3327 115.681ZM63.8955 123.798L64.6808 120.903L64.6775 120.902L63.8955 123.798ZM124.398 190.154L127.294 189.37L127.294 189.37L124.398 190.154ZM128.656 192.777L129.805 195.549L129.806 195.548L128.656 192.777ZM130.779 187.519L127.883 188.304L127.884 188.304L130.779 187.519ZM140.29 159.939L138.425 162.288L138.429 162.291L140.29 159.939ZM119.082 60.7803L116.127 60.2635L116.126 60.267L119.082 60.7803ZM116.506 55.8409L117.281 52.9426L117.275 52.9412L116.506 55.8409ZM112.511 59.0211L115.465 59.5414L115.465 59.5407L112.511 59.0211ZM110.342 101.273L113.338 101.114L113.338 101.113L110.342 101.273ZM136.656 166.928L134.791 169.278L134.792 169.279L136.656 166.928ZM141.303 165.678L138.642 164.294L138.641 164.297L141.303 165.678ZM105.668 49.8074L106.149 52.7686L106.159 52.7669L105.668 49.8074ZM118.697 47.6466L121.118 45.8751L120.027 44.3849L118.206 44.687L118.697 47.6466ZM127.503 59.6833L129.926 57.9134L129.925 57.9118L127.503 59.6833ZM130.916 60.8939L131.895 63.7297L131.902 63.7271L131.91 63.7245L130.916 60.8939ZM133.304 57.6472L130.336 57.2063L130.336 57.207L133.304 57.6472ZM135.676 41.6822L134.22 39.0589L132.926 39.777L132.708 41.2413L135.676 41.6822ZM147.68 35.0225L149.135 37.6459L149.136 37.6457L147.68 35.0225ZM149.664 31.3852L152.663 31.4746L152.663 31.4745L149.664 31.3852ZM147.902 27.5761L149.567 25.0804L149.566 25.0802L147.902 27.5761ZM136.337 19.8637L133.349 20.1247L133.474 21.5602L134.673 22.3596L136.337 19.8637ZM134.927 3.7132L137.916 3.45223L137.915 3.44873L134.927 3.7132ZM132.739 0.255925L131.495 2.98597L131.5 2.98833L132.739 0.255925ZM129.261 1.15072L131.548 3.09281L131.549 3.09137L129.261 1.15072ZM119.744 12.3564L118.99 15.2602L120.812 15.7329L122.03 14.2985L119.744 12.3564ZM106.879 9.01822L106.108 11.9176L106.117 11.9199L106.125 11.9221L106.879 9.01822ZM103.542 10.5197L106.073 12.1302L106.075 12.127L103.542 10.5197ZM103.157 14.8828L105.954 13.7977L105.953 13.7972L103.157 14.8828ZM108.838 29.5264L111.56 30.7876L112.096 29.6303L111.635 28.4412L108.838 29.5264ZM102.305 43.6269L105.026 44.8904L105.027 44.8882L102.305 43.6269ZM102.432 48.0122L99.7947 49.4414L99.7986 49.4484L102.432 48.0122ZM115.665 27.9002L112.869 28.9857L112.869 28.9861L115.665 27.9002ZM112.165 18.8831L112.918 15.9791L107.25 14.5089L109.369 19.9686L112.165 18.8831ZM120.091 20.9386L119.338 23.8425L119.341 23.8432L120.091 20.9386ZM123.104 19.8804L125.385 21.8294L125.391 21.8223L123.104 19.8804ZM128.97 12.9741L131.958 12.7129L131.333 5.55711L126.683 11.0322L128.97 12.9741ZM129.84 22.9276L132.828 22.6665L132.828 22.6664L129.84 22.9276ZM131.584 26.1384L129.916 28.6318L129.92 28.6344L131.584 26.1384ZM138.709 30.8893L140.165 33.5126L144.469 31.1242L140.374 28.3933L138.709 30.8893ZM131.311 34.9948L132.766 37.6183L132.766 37.6181L131.311 34.9948ZM129.38 38.0338L132.348 38.4746L132.348 38.4745L129.38 38.0338ZM127.92 47.8599L125.499 49.6312L129.814 55.5292L130.888 48.3007L127.92 47.8599ZM122.499 40.4495L120.076 42.2186L120.078 42.2208L122.499 40.4495ZM119.56 39.117L120.051 42.0765L120.058 42.0753L119.56 39.117ZM111.526 40.4495L108.804 39.1888L106.42 44.3375L112.017 43.409L111.526 40.4495ZM115.551 31.7592L118.273 33.0199L118.275 33.0161L115.551 31.7592ZM220.507 62.7416L223.299 61.6427L223.298 61.6408L220.507 62.7416ZM217.501 60.4062L217.52 57.4063L217.519 57.4063L217.501 60.4062ZM208.436 60.3508L205.807 61.7959L206.656 63.34L208.418 63.3508L208.436 60.3508ZM203.353 51.1037L205.982 49.6587L205.981 49.6571L203.353 51.1037ZM200.107 49.3225L199.622 46.3619L199.609 46.364L199.596 46.3663L200.107 49.3225ZM197.378 52.1315L194.481 51.3528L194.48 51.3541L197.378 52.1315ZM194.528 62.7526L195.548 65.5741L197.02 65.0421L197.426 63.5301L194.528 62.7526ZM185.827 65.8969L186.845 68.7189L186.846 68.7183L185.827 65.8969ZM184.782 73.2353L186.795 71.0112L186.795 71.0111L184.782 73.2353ZM192.087 79.8478L195.086 79.9241L195.121 78.5478L194.1 77.6238L192.087 79.8478ZM191.802 91.0452L194.801 91.126L194.801 91.1215L191.802 91.0452ZM193.58 94.8432L191.928 97.3477L191.933 97.3508L193.58 94.8432ZM197.122 94.5551L199.109 96.8029L199.112 96.8002L197.122 94.5551ZM204.483 88.0312L205.699 85.2888L203.937 84.5069L202.493 85.7861L204.483 88.0312ZM213.003 91.8098L214.223 89.0688L214.219 89.0674L213.003 91.8098ZM216.476 90.8873L214.177 88.9605L214.177 88.9607L216.476 90.8873ZM217.344 86.6322L214.439 87.3827L214.44 87.384L217.344 86.6322ZM214.586 75.9584L212.045 74.363L211.358 75.4575L211.681 76.7089L214.586 75.9584ZM220.144 67.1075L222.685 68.7029L222.689 68.6966L220.144 67.1075ZM207.638 76.4044L204.733 77.1547L204.733 77.155L207.638 76.4044ZM208.862 81.1416L207.646 83.8842L213.319 86.3985L211.767 80.391L208.862 81.1416ZM205.093 79.4711L203.874 82.2123L203.877 82.2138L205.093 79.4711ZM201.997 80.0058L203.985 82.2518L203.988 82.2497L201.997 80.0058ZM198.737 82.8924L195.738 82.8152L195.56 89.7119L200.725 85.1384L198.737 82.8924ZM198.865 77.9225L195.866 77.8441L195.865 77.8454L198.865 77.9225ZM197.492 74.4403L199.507 72.2176L199.506 72.217L197.492 74.4403ZM194.257 71.5094L193.236 68.6883L188.547 70.3847L192.243 73.7327L194.257 71.5094ZM198.109 70.116L197.092 67.2937L197.088 67.2949L198.109 70.116ZM200.358 67.4371L203.255 68.2154L203.255 68.2142L200.358 67.4371ZM201.618 62.7388L204.247 61.2938L200.653 54.7549L198.72 61.9617L201.618 62.7388ZM203.867 66.8305L201.238 68.2754L201.238 68.2764L203.867 66.8305ZM206.631 68.6505L206.65 65.6506L206.646 65.6505L206.631 68.6505ZM210.644 68.6754L213.185 70.271L216.05 65.709L210.663 65.6755L210.644 68.6754ZM208.183 72.5953L205.642 70.9998L205.641 71.0022L208.183 72.5953ZM179.657 81.9701L179.334 84.9527L179.344 84.9537L179.353 84.9547L179.657 81.9701ZM153.2 93.7436L150.947 91.7622L150.947 91.7625L153.2 93.7436ZM157.682 99.9434L159.941 101.917L159.942 101.917L157.682 99.9434ZM179.112 90.2531L179.434 87.2704L179.339 87.2602L179.244 87.256L179.112 90.2531ZM182.73 86.4551L185.724 86.6579L185.724 86.6548L182.73 86.4551ZM233 318.351L236 318.391L230 318.31L233 318.351ZM60 207.764V204.764H57V207.764H60ZM60 318.351L63 318.351V318.351H60ZM171 368.764L168 368.763L167.999 371.764H171V368.764ZM171.052 207.764V204.764H168.053L168.052 207.763L171.052 207.764ZM49.0117 405.428L49.0117 402.428L49.0117 405.428ZM93.6852 405.428H96.6852V402.428H93.6852V405.428ZM99.697 412.76L99.697 409.76L99.697 412.76ZM189.821 412.76L189.947 409.762L189.884 409.76H189.821V412.76ZM196.04 405.428V402.428H193.039L193.04 405.429L196.04 405.428ZM239.988 405.428V402.428V405.428ZM246 398.096L243 398.096L246 398.096ZM239.988 390.764L239.988 393.764L239.988 390.764ZM287.075 231.948L284.278 233.031L284.315 233.127L284.359 233.221L287.075 231.948ZM264.387 209.401L265.28 206.537L265.213 206.516L265.144 206.498L264.387 209.401ZM243.974 210.896H240.974V215.407L245.133 213.663L243.974 210.896ZM243.974 199H246.974V196H243.974V199ZM51.9982 199V196H48.9982V199H51.9982ZM243.868 304.384L244.092 301.393L240.868 301.151V304.384H243.868ZM260.209 302.204L261.202 305.035L261.204 305.034L260.209 302.204ZM282.527 284.702L280.098 282.942L280.081 282.966L280.064 282.99L282.527 284.702ZM228.108 217.685H231.108V214.685H228.108V217.685ZM228.108 305.63V308.63H231.108V305.63H228.108ZM67.864 305.63H64.864V308.63H67.864V305.63ZM67.864 217.685V214.685H64.864V217.685H67.864ZM69.0275 330.232V327.232H65.3932L66.0818 330.8L69.0275 330.232ZM226.733 330.232L229.673 330.827L230.401 327.232H226.733V330.232ZM266.397 269.007L263.979 267.231L263.978 267.232L266.397 269.007ZM243.974 279.657H240.974V282.351L243.651 282.64L243.974 279.657ZM243.974 238.114L242.064 235.8L240.974 236.7V238.114H243.974ZM259.522 233.505L260.338 230.618L260.14 230.562L259.937 230.534L259.522 233.505ZM268.46 243.408L265.708 244.603L265.736 244.667L265.766 244.73L268.46 243.408ZM55.2215 119.46L69.2682 102.547L64.6526 98.7136L50.6059 115.626L55.2215 119.46ZM69.2669 102.549C70.8637 100.629 71.3293 97.9576 70.7146 95.6098L64.9102 97.1296C65.0847 97.7959 64.8911 98.4268 64.6539 98.712L69.2669 102.549ZM70.7131 95.6045C70.0958 93.2643 68.3127 91.0701 65.6267 90.5884L64.5677 96.4942C64.5033 96.4827 64.5294 96.463 64.6164 96.5537C64.706 96.6471 64.8323 96.8342 64.9116 97.135L70.7131 95.6045ZM65.6278 90.5886L46.2181 87.1009L45.1569 93.0063L64.5667 96.494L65.6278 90.5886ZM48.4731 88.9399L39.7895 67.2184L34.2182 69.4457L42.9018 91.1672L48.4731 88.9399ZM39.7909 67.2218C38.8817 64.9393 36.7699 63.0161 33.9905 63.0161V69.0161C33.9071 69.0161 33.8873 68.9831 33.9371 69.0214C33.9932 69.0644 34.1153 69.1873 34.2169 69.4423L39.7909 67.2218ZM33.9905 63.0161C31.2121 63.0161 29.102 64.9379 28.1902 67.2134L33.7597 69.4452C33.8619 69.1901 33.9848 69.0662 34.042 69.0223C34.093 68.9831 34.074 69.0161 33.9905 69.0161V63.0161ZM28.1896 67.2148L19.4971 88.9391L25.0677 91.1681L33.7602 69.4438L28.1896 67.2148ZM21.7516 87.1009L2.35079 90.5886L3.41241 96.494L22.8132 93.0062L21.7516 87.1009ZM2.35299 90.5882C-0.335051 91.0694 -2.11892 93.2633 -2.73656 95.6045L3.06494 97.135C3.14429 96.8342 3.2705 96.6474 3.35985 96.5544C3.44647 96.4641 3.47284 96.4832 3.41021 96.4944L2.35299 90.5882ZM-2.73728 95.6072C-3.35384 97.9532 -2.88542 100.624 -1.29723 102.543L3.32511 98.7177C3.08376 98.426 2.893 97.7892 3.06566 97.1323L-2.73728 95.6072ZM-1.29432 102.547L12.7456 119.459L17.3621 115.627L3.32221 98.7142L-1.29432 102.547ZM12.0822 117.132L8.77736 141.017L14.7207 141.839L18.0256 117.954L12.0822 117.132ZM8.77731 141.017C8.44658 143.409 9.19896 146.031 11.0824 147.723L15.0927 143.26C14.9045 143.091 14.621 142.56 14.7208 141.839L8.77731 141.017ZM11.0848 147.725C13.085 149.519 15.9431 149.837 18.2685 148.321L14.9916 143.295C14.9733 143.306 14.9761 143.301 15.0007 143.295C15.0255 143.288 15.0574 143.285 15.0906 143.288C15.1235 143.291 15.1432 143.299 15.1472 143.301C15.1507 143.302 15.1298 143.294 15.0903 143.258L11.0848 147.725ZM18.2645 148.323L35.6227 137.046L32.3539 132.014L14.9956 143.292L18.2645 148.323ZM32.3539 137.046L49.7121 148.323L52.981 143.292L35.6227 132.014L32.3539 137.046ZM49.7189 148.328C50.6741 148.945 51.7713 149.284 52.9115 149.284V143.284C52.9401 143.284 52.9643 143.289 52.9802 143.293C52.9959 143.298 52.9936 143.3 52.9741 143.288L49.7189 148.328ZM52.9115 149.284C54.4046 149.284 55.7944 148.703 56.8851 147.731L52.8929 143.252C52.8696 143.273 52.8524 143.285 52.8427 143.291C52.833 143.297 52.8298 143.298 52.8337 143.296C52.8376 143.295 52.8469 143.291 52.8612 143.289C52.8756 143.286 52.8927 143.284 52.9115 143.284V149.284ZM56.8942 147.723C58.778 146.03 59.5296 143.412 59.1995 141.016L53.2556 141.834C53.356 142.563 53.0717 143.092 52.8839 143.26L56.8942 147.723ZM59.1991 141.013L55.8853 117.13L49.9422 117.955L53.256 141.837L59.1991 141.013ZM44.6441 111.199C43.2559 112.871 42.7231 115.113 43.0116 117.205L48.9553 116.385C48.8717 115.778 49.0608 115.272 49.26 115.033L44.6441 111.199ZM43.0119 117.207L45.4738 134.942L51.4168 134.117L48.955 116.382L43.0119 117.207ZM50.0795 132.014L37.1875 123.64L33.919 128.671L46.811 137.046L50.0795 132.014ZM37.1811 123.636C35.2094 122.362 32.7658 122.36 30.7928 123.637L34.0538 128.674C34.0696 128.663 34.0702 128.666 34.0547 128.671C34.0391 128.675 34.0156 128.68 33.9875 128.68C33.9593 128.68 33.9362 128.675 33.9214 128.671C33.9068 128.666 33.9085 128.664 33.9254 128.675L37.1811 123.636ZM30.7887 123.64L17.8922 132.02L21.1614 137.051L34.0579 128.671L30.7887 123.64ZM22.4985 134.947L24.9536 117.206L19.0102 116.384L16.5552 134.124L22.4985 134.947ZM24.9537 117.206C25.2426 115.115 24.7089 112.875 23.3262 111.205L18.705 115.032C18.9052 115.274 19.0934 115.782 19.0102 116.384L24.9537 117.206ZM23.324 111.203L12.896 98.6395L8.27926 102.472L18.7072 115.035L23.324 111.203ZM11.1184 103.508L25.5283 100.918L24.4668 95.0127L10.0569 97.6029L11.1184 103.508ZM25.5283 100.918C27.8437 100.502 29.5223 98.7874 30.3142 96.8082L24.7435 94.5794C24.6548 94.8011 24.5498 94.9258 24.4862 94.9828C24.4251 95.0376 24.4141 95.0222 24.4667 95.0127L25.5283 100.918ZM30.3141 96.8083L36.7736 80.6661L31.203 78.437L24.7436 94.5792L30.3141 96.8083ZM31.2025 80.6649L37.653 96.8044L43.2245 94.5776L36.774 78.4382L31.2025 80.6649ZM37.6517 96.8011C38.4428 98.7873 40.1268 100.5 42.4393 100.915L43.5009 95.01C43.5528 95.0193 43.541 95.0342 43.4799 94.9794C43.4165 94.9226 43.3128 94.7993 43.2259 94.581L37.6517 96.8011ZM42.4395 100.915L56.8539 103.506L57.915 97.6001L43.5007 95.0099L42.4395 100.915ZM55.0765 98.6363L44.644 111.199L49.26 115.032L59.6924 102.469L55.0765 98.6363ZM66.1512 112.795C62.03 111.626 58.9594 115.019 58.3742 118.328L64.2825 119.373C64.3672 118.894 64.5747 118.655 64.6666 118.582C64.7089 118.548 64.7123 118.559 64.6669 118.57C64.6143 118.582 64.5548 118.579 64.5142 118.567L66.1512 112.795ZM58.3742 118.328C57.7931 121.613 59.3619 125.681 63.1135 126.694L64.6775 120.902C64.7411 120.919 64.606 120.91 64.445 120.6C64.2878 120.297 64.1976 119.853 64.2825 119.373L58.3742 118.328ZM63.1102 126.693C63.0987 126.69 74.2364 129.815 87.1091 139.431C99.9423 149.019 114.49 165.044 121.502 190.938L127.294 189.37C112.425 134.464 65.4501 121.111 64.6808 120.903L63.1102 126.693ZM121.502 190.937C122.238 193.657 124.513 195.99 127.589 195.99V189.99C127.686 189.99 127.691 190.031 127.616 189.965C127.538 189.897 127.388 189.719 127.294 189.37L121.502 190.937ZM127.589 195.99C128.323 195.99 129.075 195.851 129.805 195.549L127.507 190.006C127.516 190.002 127.529 189.998 127.545 189.995C127.56 189.992 127.575 189.99 127.589 189.99V195.99ZM129.806 195.548C133.302 194.097 134.554 189.977 133.675 186.734L127.884 188.304C128.004 188.747 127.962 189.209 127.818 189.566C127.748 189.738 127.667 189.855 127.603 189.925C127.572 189.959 127.547 189.98 127.531 189.991C127.515 190.003 127.507 190.006 127.506 190.006L129.806 195.548ZM133.675 186.735C117.608 127.415 68.4783 113.422 66.1135 112.785L64.5519 118.578C66.2362 119.032 112.668 132.126 127.883 188.304L133.675 186.735ZM142.155 157.589C126.536 145.192 121.23 121.8 120.097 100.52C119.537 90.0068 120.009 80.2684 120.63 73.1064C120.94 69.529 121.288 66.6032 121.56 64.5557C121.696 63.5321 121.813 62.7287 121.898 62.1738C121.94 61.8963 121.974 61.6812 121.999 61.5319C122.011 61.4572 122.02 61.3992 122.027 61.3583C122.03 61.3378 122.033 61.3219 122.035 61.3104C122.037 61.2982 122.038 61.293 122.038 61.2935L116.126 60.267C116.046 60.7298 112.95 79.1356 114.106 100.839C115.249 122.323 120.61 148.148 138.425 162.288L142.155 157.589ZM122.037 61.297C122.612 58.0099 121.032 53.9452 117.281 52.9426L115.731 58.7392C115.665 58.7214 115.8 58.7282 115.962 59.0387C116.12 59.3415 116.211 59.785 116.127 60.2635L122.037 61.297ZM117.275 52.9412C113.231 51.8681 110.147 55.1416 109.556 58.5015L115.465 59.5407C115.548 59.0709 115.751 58.8373 115.845 58.7628C115.89 58.7274 115.9 58.7337 115.866 58.7418C115.825 58.7513 115.774 58.7506 115.737 58.7406L117.275 52.9412ZM109.556 58.5009C109.399 59.3912 106.121 78.4576 107.347 101.433L113.338 101.113C112.147 78.7893 115.344 60.2301 115.465 59.5414L109.556 58.5009ZM107.347 101.432C108.996 132.413 118.24 156.142 134.791 169.278L138.521 164.578C123.902 152.975 114.945 131.3 113.338 101.114L107.347 101.432ZM134.792 169.279C135.859 170.124 137.137 170.587 138.472 170.587V164.587C138.486 164.587 138.501 164.588 138.515 164.591C138.53 164.593 138.541 164.597 138.549 164.6C138.557 164.602 138.558 164.604 138.554 164.601C138.55 164.599 138.538 164.592 138.519 164.577L134.792 169.279ZM138.472 170.587C140.864 170.587 142.891 169.133 143.966 167.06L138.641 164.297C138.537 164.497 138.439 164.573 138.411 164.591C138.383 164.609 138.405 164.587 138.472 164.587V170.587ZM143.965 167.063C145.545 164.026 144.989 159.831 142.152 157.586L138.429 162.291C138.721 162.523 139.071 163.469 138.642 164.294L143.965 167.063ZM106.159 52.7669L119.187 50.6061L118.206 44.687L105.177 46.8478L106.159 52.7669ZM116.275 49.418L125.082 61.4548L129.925 57.9118L121.118 45.8751L116.275 49.418ZM125.081 61.4532C126.214 63.0029 127.977 64.0518 129.997 64.0518V58.0518C130.053 58.0518 130.082 58.0678 130.075 58.0642C130.067 58.0595 130.007 58.024 129.926 57.9134L125.081 61.4532ZM129.997 64.0518C130.652 64.0518 131.29 63.9386 131.895 63.7297L129.937 58.0581C129.933 58.0595 129.937 58.0577 129.95 58.0556C129.962 58.0535 129.978 58.0518 129.997 58.0518V64.0518ZM131.91 63.7245C134.426 62.841 135.917 60.4752 136.271 58.0873L130.336 57.207C130.288 57.5325 130.174 57.7704 130.068 57.9145C129.962 58.0588 129.894 58.0731 129.922 58.0633L131.91 63.7245ZM136.271 58.0881L138.643 42.1231L132.708 41.2413L130.336 57.2063L136.271 58.0881ZM137.131 44.3056L149.135 37.6459L146.225 32.3992L134.22 39.0589L137.131 44.3056ZM149.136 37.6457C151.412 36.3822 152.591 33.8831 152.663 31.4746L146.666 31.2958C146.643 32.0454 146.284 32.3664 146.224 32.3994L149.136 37.6457ZM152.663 31.4745C152.735 29.0626 151.71 26.5099 149.567 25.0804L146.237 30.0719C146.345 30.1438 146.688 30.5442 146.666 31.296L152.663 31.4745ZM149.566 25.0802L138.002 17.3679L134.673 22.3596L146.237 30.072L149.566 25.0802ZM139.326 19.6028L137.916 3.45223L131.938 3.97416L133.349 20.1247L139.326 19.6028ZM137.915 3.44873C137.703 1.05525 136.38 -1.38732 133.977 -2.47648L131.5 2.98833C131.505 2.99064 131.872 3.22968 131.939 3.97766L137.915 3.44873ZM133.982 -2.47412C131.412 -3.64508 128.662 -2.78064 126.973 -0.789938L131.549 3.09137C131.601 3.03058 131.639 3.00216 131.655 2.99171C131.671 2.98146 131.669 2.98636 131.646 2.99223C131.622 2.99827 131.59 3.002 131.555 2.99887C131.519 2.99572 131.498 2.98716 131.495 2.98597L133.982 -2.47412ZM126.975 -0.791383L117.457 10.4143L122.03 14.2985L131.548 3.09281L126.975 -0.791383ZM120.497 9.45253L107.632 6.11438L106.125 11.9221L118.99 15.2602L120.497 9.45253ZM107.649 6.11883C104.896 5.38723 102.359 6.78543 101.009 8.91243L106.075 12.127C106.189 11.9483 106.279 11.9089 106.272 11.9121C106.268 11.9136 106.247 11.9222 106.211 11.9255C106.173 11.9289 106.136 11.925 106.108 11.9176L107.649 6.11883ZM101.011 8.90918C99.6828 10.9969 99.4777 13.6955 100.36 15.9684L105.953 13.7972C105.728 13.2168 105.819 12.5302 106.073 12.1302L101.011 8.90918ZM100.36 15.968L106.041 30.6115L111.635 28.4412L105.954 13.7977L100.36 15.968ZM106.116 28.2651L99.5827 42.3657L105.027 44.8882L111.56 30.7876L106.116 28.2651ZM99.5837 42.3635C98.5502 44.5891 98.6269 47.286 99.7948 49.4414L105.07 46.5831C104.812 46.1068 104.786 45.4073 105.026 44.8904L99.5837 42.3635ZM99.7986 49.4484C100.999 51.6504 103.396 53.2156 106.149 52.7686L105.187 46.8462C105.216 46.8414 105.247 46.8421 105.274 46.8469C105.299 46.8515 105.306 46.8574 105.297 46.8521C105.278 46.8415 105.175 46.7756 105.066 46.576L99.7986 49.4484ZM118.462 26.8147L114.962 17.7976L109.369 19.9686L112.869 28.9857L118.462 26.8147ZM111.412 21.787L119.338 23.8425L120.844 18.0347L112.918 15.9791L111.412 21.787ZM119.341 23.8432C121.678 24.4471 123.938 23.5232 125.385 21.8294L120.824 17.9314C120.735 18.0348 120.685 18.0452 120.707 18.0373C120.718 18.0337 120.738 18.0283 120.767 18.0269C120.796 18.0256 120.822 18.029 120.842 18.034L119.341 23.8432ZM125.391 21.8223L131.256 14.9161L126.683 11.0322L120.818 17.9384L125.391 21.8223ZM125.981 13.2353L126.851 23.1888L132.828 22.6664L131.958 12.7129L125.981 13.2353ZM126.851 23.1887C127.034 25.288 128.058 27.389 129.916 28.6318L133.252 23.6449C133.164 23.5857 132.883 23.2876 132.828 22.6665L126.851 23.1887ZM129.92 28.6344L137.045 33.3854L140.374 28.3933L133.248 23.6423L129.92 28.6344ZM137.254 28.2661L129.855 32.3716L132.766 37.6181L140.165 33.5126L137.254 28.2661ZM129.855 32.3713C127.881 33.4665 126.722 35.5095 126.413 37.5931L132.348 38.4745C132.437 37.871 132.722 37.6424 132.766 37.6183L129.855 32.3713ZM126.413 37.593L124.953 47.4191L130.888 48.3007L132.348 38.4746L126.413 37.593ZM130.342 46.0885L124.92 38.6781L120.078 42.2208L125.499 49.6312L130.342 46.0885ZM124.922 38.6803C123.798 37.141 122.039 36.081 120.006 36.081V42.081C119.981 42.081 119.959 42.0776 119.943 42.0734C119.928 42.0693 119.922 42.0657 119.927 42.0684C119.936 42.0734 119.996 42.1091 120.076 42.2186L124.922 38.6803ZM120.006 36.081C119.71 36.081 119.392 36.103 119.061 36.1587L120.058 42.0753C120.04 42.0783 120.027 42.0797 120.019 42.0803C120.011 42.0809 120.007 42.081 120.006 42.081V36.081ZM119.069 36.1574L111.035 37.4899L112.017 43.409L120.051 42.0765L119.069 36.1574ZM114.249 41.7102L118.273 33.0199L112.829 30.4985L108.804 39.1888L114.249 41.7102ZM118.275 33.0161C119.165 31.0879 119.232 28.7989 118.462 26.8144L112.869 28.9861C113.053 29.4615 113.031 30.0592 112.827 30.5023L118.275 33.0161ZM223.298 61.6408C222.398 59.3584 220.297 57.4244 217.52 57.4063L217.481 63.4062C217.398 63.4056 217.38 63.3727 217.433 63.4138C217.492 63.4594 217.615 63.5857 217.717 63.8423L223.298 61.6408ZM217.519 57.4063L208.454 57.3509L208.418 63.3508L217.482 63.4062L217.519 57.4063ZM211.065 58.9058L205.982 49.6587L200.724 52.5488L205.807 61.7959L211.065 58.9058ZM205.981 49.6571C204.765 47.4482 202.367 45.9125 199.622 46.3619L200.591 52.2831C200.569 52.2866 200.543 52.2866 200.519 52.2823C200.496 52.2781 200.488 52.2726 200.497 52.2771C200.512 52.2857 200.614 52.3487 200.725 52.5504L205.981 49.6571ZM199.596 46.3663C196.909 46.8304 195.11 49.0113 194.481 51.3528L200.275 52.9102C200.355 52.6123 200.481 52.428 200.57 52.3365C200.657 52.2476 200.682 52.2675 200.617 52.2787L199.596 46.3663ZM194.48 51.3541L191.631 61.9752L197.426 63.5301L200.276 52.9089L194.48 51.3541ZM193.509 59.9312L184.807 63.0754L186.846 68.7183L195.548 65.5741L193.509 59.9312ZM184.809 63.0749C182.302 63.9792 180.827 66.3565 180.487 68.7423L186.427 69.5892C186.473 69.2639 186.586 69.0227 186.693 68.8744C186.801 68.7257 186.872 68.7092 186.845 68.7189L184.809 63.0749ZM180.487 68.7423C180.145 71.1394 180.895 73.7635 182.769 75.4594L186.795 71.0111C186.606 70.8399 186.325 70.3059 186.427 69.5892L180.487 68.7423ZM182.769 75.4593L190.073 82.0719L194.1 77.6238L186.795 71.0112L182.769 75.4593ZM189.088 79.7716L188.803 90.9689L194.801 91.1215L195.086 79.9241L189.088 79.7716ZM188.803 90.9644C188.738 93.3821 189.777 95.929 191.928 97.3477L195.231 92.3388C195.123 92.267 194.781 91.8719 194.801 91.126L188.803 90.9644ZM191.933 97.3508C192.892 97.9807 194.003 98.3335 195.163 98.3335V92.3335C195.195 92.3335 195.221 92.3386 195.237 92.3435C195.252 92.3483 195.248 92.3499 195.227 92.3356L191.933 97.3508ZM195.163 98.3335C196.64 98.3335 198.021 97.765 199.109 96.8029L195.136 92.3073C195.114 92.3266 195.098 92.3373 195.09 92.3425C195.081 92.3477 195.079 92.348 195.084 92.3461C195.089 92.3442 195.099 92.3409 195.113 92.3381C195.128 92.3353 195.144 92.3335 195.163 92.3335V98.3335ZM199.112 96.8002L206.473 90.2763L202.493 85.7861L195.133 92.31L199.112 96.8002ZM203.267 90.7736L211.787 94.5522L214.219 89.0674L205.699 85.2888L203.267 90.7736ZM211.784 94.5508C214.35 95.6926 217.096 94.8191 218.776 92.8139L214.177 88.9607C214.126 89.0215 214.087 89.0504 214.07 89.0614C214.054 89.0722 214.055 89.068 214.076 89.0625C214.097 89.0569 214.127 89.053 214.161 89.0558C214.196 89.0585 214.218 89.0667 214.223 89.0688L211.784 94.5508ZM218.776 92.8141C220.376 90.9047 220.857 88.234 220.248 85.8804L214.44 87.384C214.61 88.0444 214.415 88.6759 214.177 88.9605L218.776 92.8141ZM220.248 85.8817L217.491 75.208L211.681 76.7089L214.439 87.3827L220.248 85.8817ZM217.127 77.5538L222.685 68.7029L217.604 65.5121L212.045 74.363L217.127 77.5538ZM222.689 68.6966C223.992 66.6102 224.194 63.9168 223.299 61.6427L217.716 63.8404C217.942 64.4141 217.857 65.106 217.6 65.5184L222.689 68.6966ZM204.733 77.155L205.957 81.8922L211.767 80.391L210.542 75.6538L204.733 77.155ZM210.078 78.3989L206.309 76.7284L203.877 82.2138L207.646 83.8842L210.078 78.3989ZM206.312 76.7299C204.123 75.7564 201.722 76.2383 200.005 77.7619L203.988 82.2497C204.02 82.2213 204.038 82.2123 204.039 82.212C204.039 82.2118 204.027 82.2178 204.002 82.222C203.977 82.2263 203.949 82.2272 203.921 82.2237C203.894 82.2202 203.877 82.2137 203.874 82.2123L206.312 76.7299ZM200.008 77.7597L196.748 80.6463L200.725 85.1384L203.985 82.2518L200.008 77.7597ZM201.736 82.9695L201.864 77.9996L195.865 77.8454L195.738 82.8152L201.736 82.9695ZM201.863 78.001C201.919 75.8842 201.137 73.6946 199.507 72.2176L195.477 76.663C195.633 76.8039 195.882 77.2183 195.866 77.8441L201.863 78.001ZM199.506 72.217L196.271 69.2861L192.243 73.7327L195.478 76.6637L199.506 72.217ZM195.278 74.3305L199.129 72.9371L197.088 67.2949L193.236 68.6883L195.278 74.3305ZM199.126 72.9382C201.294 72.1566 202.708 70.2503 203.255 68.2154L197.46 66.6588C197.392 66.9126 197.289 67.0874 197.203 67.1899C197.117 67.2919 197.068 67.3022 197.092 67.2937L199.126 72.9382ZM203.255 68.2142L204.515 63.5159L198.72 61.9617L197.46 66.66L203.255 68.2142ZM198.989 64.1838L201.238 68.2754L206.496 65.3855L204.247 61.2938L198.989 64.1838ZM201.238 68.2764C202.279 70.1691 204.215 71.6385 206.616 71.6505L206.646 65.6505C206.717 65.6509 206.744 65.6752 206.717 65.6579C206.686 65.6372 206.593 65.5629 206.495 65.3845L201.238 68.2764ZM206.612 71.6504L210.626 71.6754L210.663 65.6755L206.65 65.6506L206.612 71.6504ZM208.104 67.0799L205.642 70.9998L210.723 74.1909L213.185 70.271L208.104 67.0799ZM205.641 71.0022C204.5 72.8225 204.203 75.1039 204.733 77.1547L210.542 75.6541C210.4 75.1009 210.511 74.5289 210.725 74.1885L205.641 71.0022ZM179.979 78.9874C179.014 78.8832 163.463 77.5337 150.947 91.7622L155.452 95.7251C160.767 89.6836 166.669 86.9977 171.288 85.8114C173.606 85.2159 175.604 84.9982 177.038 84.9319C177.754 84.8987 178.326 84.9035 178.722 84.917C179.122 84.9306 179.337 84.953 179.334 84.9527L179.979 78.9874ZM150.947 91.7625C140.995 103.08 136.241 120.439 136.241 142.783H142.241C142.241 121.107 146.881 105.472 155.453 95.7247L150.947 91.7625ZM136.241 142.783C136.241 146.109 138.529 149.938 142.604 149.938V143.938C142.737 143.938 142.703 144.012 142.558 143.833C142.408 143.648 142.241 143.286 142.241 142.783H136.241ZM142.604 149.938C146.679 149.938 148.967 146.109 148.967 142.783H142.967C142.967 143.286 142.799 143.648 142.65 143.833C142.505 144.012 142.471 143.938 142.604 143.938V149.938ZM148.967 142.783C148.967 123.54 152.872 110.012 159.941 101.917L155.422 97.9701C146.945 107.677 142.967 122.97 142.967 142.783H148.967ZM159.942 101.917C164.139 97.1105 168.893 94.9552 172.608 93.9885C174.472 93.5034 176.071 93.3194 177.193 93.256C178.301 93.1934 178.919 93.2475 178.979 93.2502L179.244 87.256C179.348 87.2606 178.993 87.2375 178.597 87.2298C178.17 87.2214 177.58 87.2246 176.855 87.2655C175.406 87.3473 173.407 87.5807 171.097 88.1819C166.463 89.3878 160.566 92.0805 155.422 97.9701L159.942 101.917ZM178.79 93.2358C182.986 93.6886 185.501 89.9353 185.724 86.6579L179.737 86.2522C179.702 86.7705 179.511 87.0925 179.385 87.2262C179.326 87.2888 179.298 87.2945 179.319 87.2858C179.348 87.2741 179.394 87.2662 179.434 87.2704L178.79 93.2358ZM185.724 86.6548C185.945 83.3453 183.949 79.3912 179.96 78.9855L179.353 84.9547C179.236 84.9428 179.311 84.8891 179.47 85.1211C179.629 85.3532 179.771 85.7543 179.737 86.2554L185.724 86.6548ZM99.0679 371.764H193.932V365.764H99.0679V371.764ZM193.932 371.764C204.254 371.764 212.191 368.352 218.196 363.156C224.143 358.01 228.061 351.237 230.654 344.658C233.252 338.067 234.582 331.518 235.265 326.645C235.608 324.2 235.792 322.159 235.889 320.72C235.938 320 235.965 319.429 235.981 319.033C235.988 318.835 235.993 318.68 235.996 318.572C235.997 318.518 235.998 318.476 235.999 318.445C235.999 318.43 235.999 318.418 235.999 318.409C236 318.404 236 318.401 236 318.398C236 318.396 236 318.394 236 318.394C236 318.392 236 318.391 233 318.351C230 318.31 230 318.31 230 318.309C230 318.309 230 318.308 230 318.308C230 318.308 230 318.309 230 318.311C230 318.314 230 318.32 230 318.329C230 318.347 229.999 318.377 229.998 318.418C229.996 318.501 229.992 318.629 229.985 318.801C229.972 319.143 229.948 319.655 229.903 320.314C229.814 321.632 229.644 323.529 229.324 325.811C228.681 330.39 227.442 336.444 225.072 342.457C222.698 348.481 219.248 354.311 214.27 358.618C209.351 362.875 202.807 365.764 193.932 365.764V371.764ZM233 204.764H60V210.764H233V204.764ZM57 207.764V318.351H63V207.764H57ZM60 318.351C57 318.351 57 318.352 57 318.353C57 318.354 57 318.356 57 318.358C57 318.361 57 318.364 57 318.369C57.0001 318.378 57.0001 318.39 57.0002 318.406C57.0004 318.436 57.0007 318.479 57.0014 318.533C57.0028 318.641 57.0054 318.796 57.0105 318.994C57.0208 319.391 57.041 319.962 57.0809 320.683C57.1606 322.123 57.3192 324.166 57.6351 326.612C58.265 331.488 59.5297 338.044 62.0861 344.641C64.6389 351.23 68.5383 358.011 74.5253 363.161C80.5699 368.361 88.5914 371.764 99.0679 371.764V365.764C90.0104 365.764 83.3814 362.865 78.4382 358.613C73.4374 354.311 70.0115 348.489 67.6808 342.474C65.3538 336.468 64.1768 330.42 63.5857 325.843C63.2912 323.563 63.1446 321.668 63.0717 320.351C63.0353 319.693 63.0174 319.181 63.0085 318.839C63.0041 318.668 63.002 318.54 63.001 318.458C63.0004 318.417 63.0002 318.387 63.0001 318.369C63 318.36 63 318.354 63 318.351C63 318.349 63 318.348 63 318.348C63 318.348 63 318.349 63 318.349C63 318.35 63 318.351 60 318.351ZM171 371.764H194.179V365.764H171V371.764ZM194.179 371.764C204.446 371.764 212.339 368.348 218.309 363.15C224.22 358.003 228.113 351.23 230.689 344.652C233.27 338.062 234.591 331.514 235.27 326.642C235.611 324.198 235.793 322.157 235.89 320.718C235.938 319.999 235.966 319.428 235.981 319.032C235.989 318.834 235.993 318.68 235.996 318.572C235.997 318.518 235.998 318.475 235.999 318.445C235.999 318.43 235.999 318.418 235.999 318.409C236 318.404 236 318.4 236 318.397C236 318.396 236 318.394 236 318.393C236 318.392 236 318.391 233 318.351C230 318.311 230 318.31 230 318.309C230 318.309 230 318.309 230 318.309C230 318.309 230 318.309 230 318.311C230 318.314 230 318.32 230 318.329C230 318.347 229.999 318.377 229.998 318.419C229.996 318.502 229.992 318.63 229.985 318.801C229.972 319.144 229.948 319.657 229.903 320.315C229.815 321.633 229.646 323.531 229.328 325.813C228.689 330.394 227.458 336.449 225.102 342.463C222.742 348.489 219.314 354.319 214.369 358.625C209.484 362.878 202.987 365.764 194.179 365.764V371.764ZM233 204.764H171.052V210.764H233V204.764ZM168.052 207.763L168 368.763L174 368.765L174.052 207.765L168.052 207.763ZM49.0117 387.764C46.4077 387.764 44.0639 389.03 42.4409 391.009L47.0807 394.814C47.7125 394.043 48.4269 393.764 49.0117 393.764V387.764ZM42.4409 391.009C40.8316 392.972 40 395.527 40 398.096H46C46 396.776 46.4351 395.601 47.0807 394.814L42.4409 391.009ZM40 398.096C40 400.665 40.8316 403.22 42.4409 405.183L47.0807 401.378C46.4351 400.591 46 399.416 46 398.096H40ZM42.4409 405.183C44.0639 407.162 46.4077 408.428 49.0117 408.428L49.0117 402.428C48.4269 402.428 47.7125 402.149 47.0807 401.378L42.4409 405.183ZM49.0117 408.428H93.6852V402.428H49.0117V408.428ZM90.6852 405.428C90.6852 407.997 91.5169 410.552 93.1262 412.514L97.7659 408.71C97.1203 407.923 96.6852 406.748 96.6852 405.428H90.6852ZM93.1262 412.514C94.7491 414.494 97.0929 415.76 99.697 415.76L99.697 409.76C99.1122 409.76 98.3978 409.481 97.7659 408.71L93.1262 412.514ZM99.697 415.76H189.821V409.76H99.697V415.76ZM189.695 415.757C190.999 415.812 192.282 415.544 193.459 414.992L190.912 409.56C190.582 409.714 190.257 409.775 189.947 409.762L189.695 415.757ZM193.459 414.992C194.632 414.442 195.658 413.631 196.495 412.644L191.919 408.763C191.595 409.145 191.246 409.403 190.912 409.56L193.459 414.992ZM196.495 412.644C197.331 411.659 197.97 410.51 198.398 409.278L192.73 407.309C192.528 407.89 192.244 408.38 191.919 408.763L196.495 412.644ZM198.398 409.278C198.826 408.046 199.041 406.738 199.04 405.426L193.04 405.429C193.041 406.087 192.932 406.728 192.73 407.309L198.398 409.278ZM196.04 408.428H239.988V402.428H196.04V408.428ZM239.988 408.428C242.592 408.428 244.936 407.162 246.559 405.183L241.919 401.378C241.287 402.149 240.573 402.428 239.988 402.428L239.988 408.428ZM246.559 405.183C248.168 403.22 249 400.665 249 398.096L243 398.096C243 399.416 242.565 400.591 241.919 401.378L246.559 405.183ZM249 398.096C249 395.527 248.168 392.972 246.559 391.009L241.919 394.814C242.565 395.601 243 396.776 243 398.096L249 398.096ZM246.559 391.009C244.936 389.03 242.592 387.764 239.988 387.764L239.988 393.764C240.573 393.764 241.287 394.043 241.919 394.814L246.559 391.009ZM289.873 230.865C287.602 224.998 284.239 219.759 279.997 215.545L275.768 219.8C279.373 223.383 282.29 227.896 284.278 233.031L289.873 230.865ZM279.997 215.545C275.754 211.328 270.733 208.237 265.28 206.537L263.495 212.265C267.967 213.66 272.164 216.219 275.768 219.8L279.997 215.545ZM265.144 206.498C257.71 204.561 249.963 205.133 242.814 208.129L245.133 213.663C251.085 211.168 257.487 210.703 263.631 212.304L265.144 206.498ZM246.974 210.896V199H240.974V210.896H246.974ZM243.974 196H51.9982V202H243.974V196ZM48.9982 199V319.145H54.9982V199H48.9982ZM48.9982 319.145C48.9982 329.857 51.568 345.379 59.1028 358.335C66.7214 371.435 79.5112 382 99.5954 382V376C82.0779 376 71.0691 366.976 64.2895 355.319C57.4262 343.517 54.9982 329.112 54.9982 319.145H48.9982ZM99.5954 382H196.271V376H99.5954V382ZM196.271 382C216.072 382 228.854 371.458 236.538 358.395C244.143 345.463 246.868 329.942 246.868 319.145H240.868C240.868 329.152 238.303 343.558 231.366 355.353C224.506 367.016 213.489 376 196.271 376V382ZM246.868 319.145V304.384H240.868V319.145H246.868ZM243.643 307.376C249.576 307.821 255.522 307.026 261.202 305.035L259.217 299.373C254.306 301.094 249.188 301.775 244.092 301.393L243.643 307.376ZM261.204 305.034C270.611 301.728 278.878 295.21 284.991 286.415L280.064 282.99C274.601 290.851 267.321 296.525 259.215 299.374L261.204 305.034ZM284.956 286.463C290.519 278.788 293.928 269.352 294.785 259.419L288.807 258.904C288.038 267.822 284.981 276.205 280.098 282.942L284.956 286.463ZM294.785 259.419C295.641 249.487 293.91 239.464 289.792 230.675L284.359 233.221C288.014 241.022 289.576 249.986 288.807 258.904L294.785 259.419ZM225.108 217.685V305.63H231.108V217.685H225.108ZM228.108 302.63H67.864V308.63H228.108V302.63ZM70.864 305.63V217.685H64.864V305.63H70.864ZM67.864 220.685H228.108V214.685H67.864V220.685ZM196.376 357.315H99.7012V363.315H196.376V357.315ZM99.7012 357.315C90.1124 357.315 83.8805 353.354 79.6774 348.037C75.3744 342.594 73.1203 335.608 71.9731 329.663L66.0818 330.8C67.3145 337.188 69.8201 345.243 74.9704 351.758C80.2206 358.4 88.1357 363.315 99.7012 363.315V357.315ZM69.0275 333.232H226.733V327.232H69.0275V333.232ZM223.793 329.636C222.594 335.555 220.288 342.556 215.987 348.019C211.781 353.36 205.623 357.315 196.271 357.315V363.315C207.65 363.315 215.479 358.363 220.701 351.73C225.827 345.219 228.386 337.179 229.673 330.827L223.793 329.636ZM196.271 363.315H196.376V357.315H196.271V363.315ZM263.978 267.232C261.5 270.61 258.409 273.194 254.992 274.817L257.567 280.237C261.949 278.156 265.796 274.898 268.816 270.782L263.978 267.232ZM254.992 274.817C251.58 276.438 247.917 277.066 244.296 276.675L243.651 282.64C248.404 283.154 253.179 282.321 257.567 280.237L254.992 274.817ZM246.974 279.657V238.114H240.974V279.657H246.974ZM245.883 240.428C249.803 237.192 254.506 235.833 259.107 236.476L259.937 230.534C253.563 229.643 247.195 231.566 242.064 235.8L245.883 240.428ZM258.706 236.392C259.178 236.526 260.028 236.749 261.17 237.725C262.36 238.742 264.02 240.715 265.708 244.603L271.212 242.214C269.25 237.694 267.103 234.902 265.067 233.163C262.982 231.382 261.188 230.859 260.338 230.618L258.706 236.392ZM265.766 244.73C267.478 248.218 268.239 252.285 267.911 256.355L273.891 256.837C274.303 251.731 273.357 246.579 271.153 242.087L265.766 244.73ZM267.911 256.355C267.583 260.425 266.188 264.223 263.979 267.231L268.815 270.783C271.726 266.82 273.48 261.942 273.891 256.837L267.911 256.355ZM239.988 387.764H49.0117V393.764H239.988V387.764Z" fill="#C4A484" mask="url(#path-1-inside-1_45_67)"/>
</svg>
