<svg width="374" height="345" viewBox="0 0 374 345" fill="none" xmlns="http://www.w3.org/2000/svg">
<path d="M34.5578 125.861L95.9767 163.064C102.438 167.024 109.645 169.04 116.904 169.04C121.808 169.04 126.738 168.125 131.448 166.252C143.199 161.605 152.608 151.568 157.228 138.772C160.021 131.166 166.457 126.247 173.626 126.247C174.436 126.247 175.196 126.319 176.341 126.533C192.816 129.107 208.75 122.93 220.205 109.634C231.672 96.3512 236.55 78.3506 233.577 60.2356L232.136 51.4426C256.693 68.4138 276.398 93.8778 287.094 124.918C289.642 132.295 297.094 135.97 303.723 133.167C310.364 130.337 313.684 122.073 311.149 114.695C287.505 46.0953 227.116 0 160.896 0C72.166 0 0 80.1664 0 178.719C0 251.394 39.0497 316.233 99.4776 343.913C101.086 344.657 102.747 345 104.381 345C109.439 345 114.24 341.669 116.287 336.15C119.002 328.844 115.862 320.494 109.298 317.477C104.703 315.375 100.314 312.931 96.0411 310.343L105.321 286.952C108.757 278.459 110.572 268.823 110.572 259.072C110.572 247.934 108.333 237.382 103.905 227.731C92.4759 202.696 67.8671 187.67 42.6921 190.372L26.3334 192.088C25.9859 187.67 25.7542 183.223 25.7542 178.719C25.7542 160.104 28.9462 142.332 34.5578 125.861ZM160.884 28.5951C175.608 28.5951 189.959 31.3688 203.511 36.4302L208.261 65.3684C209.741 74.3473 207.321 83.2547 201.632 89.8458C195.956 96.4227 188.002 99.4967 180.254 98.2814C160.279 94.5926 141.011 107.217 133.366 128.063C131.474 133.31 127.613 137.414 122.812 139.315C117.986 141.231 112.889 140.774 108.345 138L45.9226 100.183C69.7463 57.3189 112.297 28.5951 160.884 28.5951ZM45.1246 218.838C59.7715 217.294 74.251 226.03 80.9438 240.671C83.5179 246.29 84.8178 252.481 84.8178 259.072C84.8178 264.805 83.7882 270.395 81.7932 275.328L74.3411 294.101C53.5549 274.928 38.4962 249.235 31.0441 220.311L45.1246 218.838Z" fill="#C4A484"/>
<path d="M372.794 169.674C369.785 157.774 354.735 163.264 354.735 163.264L267.857 210.883L269.278 213.637L258.645 218.665L252.815 198.502L264.439 172.405C267.422 167.83 264.001 166.009 264.001 166.009L180.131 166.943C174.122 166.943 177.982 172.405 177.982 172.405L190.878 199.436L156.05 317.969C154.777 345.42 178.421 345 178.421 345H267.861C287.205 341.778 288.083 319.79 288.083 319.79L260.799 226.046L272.761 220.397L275.169 225.066L365.482 187.993C378.387 179.282 372.794 169.674 372.794 169.674ZM199.476 195.094C213.819 194.954 228.163 194.799 242.507 194.627C243.442 194.676 244.323 195.106 244.968 195.827C245.614 196.548 245.973 197.506 245.973 198.502C245.973 199.498 245.614 200.456 244.968 201.177C244.323 201.899 243.442 202.328 242.507 202.377C228.178 202.517 213.834 202.673 199.476 202.844C198.51 202.844 197.584 202.436 196.901 201.709C196.218 200.982 195.835 199.997 195.835 198.969C195.835 197.941 196.218 196.956 196.901 196.229C197.584 195.502 198.51 195.094 199.476 195.094ZM276.458 316.382C277.424 316.382 278.35 316.79 279.033 317.517C279.716 318.243 280.099 319.229 280.099 320.257C280.099 321.284 279.716 322.27 279.033 322.997C278.35 323.723 277.424 324.131 276.458 324.131C262.597 324.085 248.736 323.991 234.831 323.945L165.919 323.665C164.984 323.616 164.103 323.186 163.458 322.465C162.813 321.744 162.453 320.786 162.453 319.79C162.453 318.794 162.813 317.836 163.458 317.115C164.103 316.393 164.984 315.964 165.919 315.915C179.824 316.008 193.7 316.071 207.547 316.102L276.458 316.382Z" fill="#C4A484"/>
</svg>
