<svg width="232" height="339" viewBox="0 0 232 339" fill="none" xmlns="http://www.w3.org/2000/svg">
<g id="Frame 1">
<g id="cup">
<g id="cup_2">
<path d="M42.0404 96.537L53.2009 82.647C53.9295 81.7414 54.1913 80.3854 53.8778 79.1477C53.5625 77.9123 52.727 77.0113 51.7205 76.8248L36.299 73.9603L29.3997 56.1206C28.9508 54.9557 28.0209 54.2185 27.0055 54.2185C25.9901 54.2185 25.0602 54.9557 24.6095 56.1183L17.703 73.9603L2.28865 76.8248C1.28038 77.0113 0.444906 77.9123 0.129599 79.1477C-0.183926 80.3809 0.0779392 81.7392 0.804748 82.647L11.9598 96.537L9.33406 116.154C9.16305 117.432 9.57455 118.727 10.3976 119.491C11.2223 120.256 12.3108 120.358 13.2122 119.751L27.0037 110.488L40.7952 119.751C41.1872 120.012 41.6129 120.142 42.0387 120.142C42.5927 120.142 43.1431 119.921 43.6099 119.491C44.4329 118.727 44.8444 117.435 44.6733 116.151L42.0404 96.537ZM37.3037 92.9012C36.6731 93.6861 36.3863 94.8146 36.5342 95.9227L38.4901 110.488L28.2471 103.611C27.4669 103.089 26.5388 103.089 25.7603 103.611L15.5137 110.493L17.4643 95.9227C17.6122 94.8169 17.3254 93.6884 16.6966 92.9035L8.4113 82.5855L19.8603 80.4582C20.7296 80.2967 21.4814 79.6005 21.8715 78.5926L27.0037 65.3351L32.1288 78.5903C32.5171 79.5982 33.2706 80.2944 34.14 80.4559L45.5925 82.5833L37.3037 92.9012Z" fill="#C4A484"/>
<path d="M51.9076 95.008C50.4718 94.5871 49.0413 95.768 48.726 97.6109C48.4107 99.4538 49.3228 101.272 50.7657 101.674C51.1309 101.777 87.3645 112.381 98.8366 156.172C99.2107 157.601 100.253 158.502 101.372 158.502C101.651 158.502 101.938 158.447 102.22 158.326C103.62 157.726 104.375 155.794 103.906 154.008C91.4795 106.58 53.5162 95.4563 51.9076 95.008Z" fill="#C4A484"/>
<path d="M111.463 131.356C84.899 109.562 94.5132 50.5122 94.6129 49.9184C94.9247 48.0755 94.0072 46.2599 92.5661 45.8617C91.1392 45.4704 89.7052 46.6307 89.3917 48.4736C89.2812 49.122 86.7089 64.5728 87.6691 83.1747C88.9623 108.293 96.193 126.938 108.575 137.097C109.023 137.463 109.521 137.638 110.018 137.638C110.897 137.638 111.759 137.085 112.268 136.07C113.066 134.485 112.707 132.373 111.463 131.356Z" fill="#C4A484"/>
<path d="M83.9549 40.9064L94.3065 39.1318L101.304 49.0174C101.817 49.7432 102.54 50.1414 103.285 50.1414C103.529 50.1414 103.773 50.0981 104.015 50.0117C104.993 49.6568 105.729 48.6238 105.912 47.3452L107.797 34.2333L117.335 28.7637C118.263 28.2314 118.874 27.0733 118.911 25.7764C118.949 24.4773 118.405 23.2646 117.511 22.6481L108.323 16.3139L107.202 3.04962C107.092 1.75959 106.42 0.658401 105.463 0.210189C104.507 -0.240297 103.438 0.046376 102.7 0.945074L95.1385 10.1482L84.9168 7.40659C83.9228 7.13357 82.8932 7.61819 82.2661 8.63974C81.6373 9.6613 81.5197 11.0514 81.9597 12.2232L86.4738 24.2498L81.2828 35.8305C80.7769 36.9567 80.8178 38.3514 81.3843 39.4321C81.9508 40.506 82.952 41.0748 83.9549 40.9064ZM91.8981 22.9142L89.1173 15.5085L95.4146 17.1967C96.275 17.4265 97.1693 17.1012 97.8088 16.3276L102.469 10.6556L103.16 18.8303C103.254 19.9474 103.773 20.9326 104.546 21.4672L110.207 25.3692L104.329 28.741C103.527 29.2006 102.953 30.1334 102.795 31.2369L101.635 39.307L97.3278 33.2208C96.8183 32.4996 96.0968 32.0969 95.3469 32.0969C95.2293 32.0969 95.11 32.106 94.9924 32.1265L88.6097 33.2208L91.8073 26.0836C92.2419 25.1098 92.2775 23.9244 91.8981 22.9142Z" fill="#C4A484"/>
<path d="M175.198 51.5292C174.752 50.362 173.824 49.618 172.809 49.6112L165.607 49.5657L161.568 41.9711C160.997 40.8972 159.997 40.3375 158.989 40.5082C157.982 40.6879 157.142 41.5821 156.821 42.8152L154.557 51.5383L147.643 54.1206C146.667 54.4846 145.937 55.5267 145.76 56.8053C145.584 58.084 145.994 59.3808 146.813 60.1476L152.617 65.5784L152.391 74.7747C152.357 76.0739 152.905 77.282 153.803 77.894C154.199 78.1625 154.63 78.2967 155.061 78.2967C155.61 78.2967 156.155 78.0806 156.618 77.6574L162.466 72.2993L169.235 75.4027C170.19 75.8418 171.261 75.5506 171.995 74.645C172.725 73.7441 172.994 72.3881 172.684 71.1504L170.493 62.3841L174.909 55.1149C175.529 54.0887 175.643 52.6986 175.198 51.5292ZM164.973 62.7504L165.945 66.6409L162.951 65.269C162.124 64.889 161.205 65.0529 160.491 65.7081L157.9 68.0789L158.002 63.9972C158.031 62.871 157.621 61.8016 156.912 61.1373L154.341 58.7301L157.402 57.5857C158.244 57.2717 158.912 56.4481 159.188 55.3856L160.19 51.5269L161.976 54.8873C162.472 55.8179 163.293 56.3776 164.173 56.3821L167.361 56.4026L165.405 59.622C164.868 60.5093 164.705 61.681 164.973 62.7504Z" fill="#C4A484"/>
<path d="M142.741 67.3214C142.272 67.2691 130.903 66.1997 121.72 76.9909C114.361 85.6412 110.629 99.1899 110.629 117.266C110.629 119.15 111.827 120.679 113.302 120.679C114.776 120.679 115.974 119.15 115.974 117.266C115.974 101.228 119.105 89.3929 125.281 82.0828C132.703 73.2983 142.208 74.1196 142.308 74.1242C143.797 74.2903 145.06 72.8797 145.183 71.0049C145.304 69.1279 144.212 67.4761 142.741 67.3214Z" fill="#C4A484"/>
<path d="M38.9402 320.932C37.6734 320.932 36.4585 321.566 35.5627 322.695C34.667 323.825 34.1637 325.356 34.1637 326.953C34.1637 328.55 34.667 330.082 35.5627 331.211C36.4585 332.34 37.6734 332.975 38.9402 332.975H74.4344C74.4344 334.572 74.9377 336.103 75.8334 337.233C76.7292 338.362 77.9441 338.996 79.2109 338.996H150.817C151.458 339.024 152.097 338.889 152.695 338.599C153.294 338.309 153.84 337.87 154.301 337.308C154.763 336.746 155.129 336.073 155.379 335.328C155.63 334.584 155.759 333.783 155.758 332.975H190.676C191.943 332.975 193.158 332.34 194.053 331.211C194.949 330.082 195.452 328.55 195.452 326.953C195.452 325.356 194.949 323.825 194.053 322.695C193.158 321.566 191.943 320.932 190.676 320.932H38.9402Z" fill="#C4A484"/>
<path d="M228.088 190.497C226.396 185.979 223.901 181.975 220.784 178.773C217.667 175.571 214.005 173.25 210.062 171.98C204.668 170.527 199.047 170.952 193.842 173.207V163.437H41.3131V262.112C41.3131 279.094 49.2547 311.27 79.1302 311.27H155.941C185.354 311.27 193.758 279.197 193.758 262.112V249.988C198.139 250.328 202.535 249.722 206.742 248.198C213.699 245.67 219.876 240.664 224.474 233.824C228.624 227.906 231.193 220.589 231.838 212.847C232.484 205.106 231.176 197.31 228.088 190.497ZM181.237 178.783V251.011H53.9188V178.783H181.237ZM156.025 295.924H79.2143C62.4066 295.924 56.7341 281.345 54.8432 271.217H180.144C178.169 281.294 172.413 295.924 155.941 295.924H156.025ZM211.658 220.933C209.474 224.011 206.718 226.41 203.62 227.931C200.521 229.452 197.169 230.052 193.842 229.681V195.561C197.438 192.494 201.836 191.146 206.196 191.776C207.246 192.083 210.398 193.004 213.297 199.909C214.853 203.186 215.531 206.972 215.237 210.74C214.943 214.508 213.692 218.071 211.658 220.933Z" fill="#C4A484"/>
</g>
<path id="cup (Stroke)" fill-rule="evenodd" clip-rule="evenodd" d="M186.624 170.635V261.459H185.124C188.123 261.498 188.123 261.499 188.123 261.5L188.123 261.504L188.123 261.514L188.123 261.545C188.122 261.556 188.122 261.57 188.122 261.584L188.122 261.59L188.121 261.597C188.121 261.609 188.121 261.623 188.12 261.638L188.12 261.652C188.118 261.742 188.114 261.871 188.108 262.036C188.096 262.365 188.074 262.837 188.035 263.433C187.958 264.624 187.812 266.31 187.54 268.329C186.997 272.352 185.941 277.767 183.873 283.224C179.751 294.104 171.247 305.863 154.279 305.863H78.7111C70.2131 305.863 63.6843 303.004 58.7723 298.636C53.9222 294.323 50.7854 288.667 48.7416 283.214C46.6931 277.749 45.6819 272.327 45.1788 268.3C44.9263 266.279 44.7994 264.59 44.7356 263.398C44.7036 262.802 44.6874 262.329 44.6792 261.999C44.6751 261.834 44.6729 261.705 44.6718 261.614C44.6713 261.569 44.671 261.533 44.6708 261.507L44.6707 261.475L44.6707 261.465L44.6707 261.462C44.6707 261.46 44.6707 261.459 47.6707 261.459H44.6707V167.635H185.124V170.635H186.624ZM183.624 173.635H138.903L138.902 175.783H183.624V173.635ZM138.901 181.783L138.88 248.011H178.237V181.783H138.901ZM132.901 181.783L132.88 248.011H56.9188V181.783H132.901ZM132.902 175.783H50.9188V254.011H132.878L132.874 268.217H51.2313L51.8942 271.767C52.879 277.043 54.8879 283.746 59.0519 289.191C63.315 294.765 69.7816 298.924 79.2143 298.924H132.864L132.864 299.863H78.7111C71.6889 299.863 66.5774 297.547 62.7594 294.152C58.8793 290.702 56.1961 286.007 54.3598 281.108C52.5283 276.222 51.5994 271.293 51.1325 267.556C50.9 265.696 50.7844 264.15 50.727 263.078C50.6983 262.542 50.6842 262.126 50.6773 261.849C50.6739 261.711 50.6722 261.607 50.6714 261.541L50.6707 261.471L50.6707 261.459V261.457V173.635H132.903L132.902 175.783ZM138.864 299.863H154.083C158.509 299.863 162.233 298.893 165.371 297.242C162.645 298.302 159.543 298.914 156.025 298.924C155.997 298.924 155.969 298.924 155.941 298.924H138.864L138.864 299.863ZM138.866 292.924H155.941C163.123 292.924 167.839 289.803 171.092 285.532C173.64 282.187 175.299 278.106 176.364 274.217H138.872L138.866 292.924ZM132.872 274.217H58.5901C59.6251 278.121 61.2628 282.205 63.818 285.546C67.0658 289.793 71.8393 292.924 79.2143 292.924H132.866L132.872 274.217ZM138.874 268.217H181.493C181.527 267.982 181.56 267.751 181.59 267.525C181.843 265.663 181.977 264.115 182.047 263.042C182.083 262.505 182.102 262.089 182.112 261.811C182.117 261.673 182.12 261.569 182.122 261.503L182.124 261.433L182.124 261.42L182.124 261.419C182.124 261.42 182.124 261.42 183.624 261.439V254.011H138.878L138.874 268.217ZM36.5342 95.9227C36.3863 94.8146 36.6731 93.6861 37.3037 92.9012L45.5925 82.5833L34.14 80.4559C33.2706 80.2944 32.5171 79.5982 32.1288 78.5903L27.0037 65.3351L21.8715 78.5926C21.4814 79.6005 20.7296 80.2967 19.8603 80.4582L8.4113 82.5855L16.6966 92.9035C17.3254 93.6884 17.6122 94.8169 17.4643 95.9227L15.5137 110.493L25.7603 103.611C26.5388 103.089 27.4669 103.089 28.2471 103.611L38.4901 110.488L36.5342 95.9227ZM41.6568 116.228L27.0038 106.389L12.3504 116.232L12.3076 116.551C12.3076 116.551 12.3076 116.551 12.3076 116.551C12.2985 116.619 12.2949 116.687 12.296 116.752L27.0037 106.875L41.7113 116.752C41.7125 116.686 41.709 116.618 41.6999 116.549C41.6998 116.549 41.6997 116.548 41.6996 116.548L41.6568 116.228ZM3.04164 80.5319L19.0539 77.5567C19.0603 77.5428 19.067 77.5272 19.0738 77.5097L19.3878 76.6986L3.09308 79.7266C3.07416 79.7675 3.054 79.8211 3.03681 79.8881C2.97398 80.1362 2.99664 80.3656 3.04164 80.5319ZM34.6138 76.6986L34.9282 77.5117C34.9342 77.5275 34.9402 77.5416 34.946 77.5544L50.9665 80.5301C51.0107 80.3662 51.0334 80.138 50.9702 79.8867C50.9531 79.8203 50.933 79.767 50.9142 79.7263L34.6138 76.6986ZM53.8778 79.1477C54.1913 80.3854 53.9295 81.7414 53.2009 82.647L42.0404 96.537L44.6733 116.151C44.8444 117.435 44.4329 118.727 43.6099 119.491C43.1431 119.921 42.5927 120.142 42.0387 120.142C41.6129 120.142 41.1872 120.012 40.7952 119.751L27.0037 110.488L13.2122 119.751C12.3108 120.358 11.2223 120.256 10.3976 119.491C9.57455 118.727 9.16305 117.432 9.33406 116.154L11.9598 96.537L0.804748 82.647C0.0779392 81.7392 -0.183926 80.3809 0.129599 79.1477C0.444906 77.9123 1.28038 77.0113 2.28865 76.8248L17.703 73.9603L24.6095 56.1183C25.0602 54.9557 25.9901 54.2185 27.0055 54.2185C28.0209 54.2185 28.9508 54.9557 29.3997 56.1206L36.299 73.9603L51.7205 76.8248C52.727 77.0113 53.5625 77.9123 53.8778 79.1477ZM103.906 154.008C104.375 155.794 103.62 157.726 102.22 158.326C101.938 158.447 101.651 158.502 101.372 158.502C100.253 158.502 99.2107 157.601 98.8366 156.172C87.3645 112.381 51.1309 101.777 50.7657 101.674C49.3228 101.272 48.4107 99.4538 48.726 97.6109C49.0413 95.768 50.4718 94.5871 51.9076 95.008C53.5162 95.4563 91.4795 106.58 103.906 154.008ZM87.1749 124.975C73.1222 105.64 55.2209 99.1945 51.6908 98.0755C51.6881 98.0888 51.6855 98.1025 51.6831 98.1168C51.6314 98.4187 51.691 98.684 51.7678 98.837C51.769 98.8394 51.7702 98.8417 51.7714 98.844C53.9238 99.5045 72.5013 105.677 87.1749 124.975ZM51.808 98.9056C51.8129 98.9107 51.8151 98.9138 51.815 98.914C51.8148 98.9141 51.8124 98.9116 51.808 98.9056ZM100.903 155.651C100.898 155.656 100.896 155.659 100.896 155.659C100.895 155.659 100.898 155.656 100.903 155.651ZM196.842 172.122C195.83 172.418 194.829 172.78 193.842 173.207V163.437H41.3131V262.112C41.3131 279.094 49.2547 311.27 79.1302 311.27H155.941C185.354 311.27 193.758 279.197 193.758 262.112V249.988C194.758 250.066 195.759 250.094 196.758 250.073C200.136 250.004 203.495 249.374 206.742 248.198C213.699 245.67 219.876 240.664 224.474 233.824C228.624 227.906 231.193 220.589 231.838 212.847C232.484 205.106 231.176 197.31 228.088 190.497C226.396 185.979 223.901 181.975 220.784 178.773C217.667 175.571 214.005 173.25 210.062 171.98C205.69 170.802 201.17 170.858 196.842 172.122ZM209.211 174.858C204.504 173.606 199.605 173.98 195.035 175.96L190.842 177.777V166.437H44.3131V262.112C44.3131 270.246 46.2333 281.991 51.6329 291.588C56.9563 301.05 65.526 308.27 79.1302 308.27H155.941C169.306 308.27 177.884 301.084 183.272 291.614C188.731 282.02 190.758 270.274 190.758 262.112V246.747L193.99 246.997C197.938 247.303 201.906 246.759 205.72 245.377C212.012 243.091 217.699 238.524 221.985 232.15L222.001 232.126L222.018 232.102C225.84 226.651 228.244 219.851 228.849 212.598C229.454 205.346 228.224 198.064 225.355 191.736L225.314 191.644L225.278 191.549C223.72 187.389 221.439 183.747 218.634 180.865C215.85 178.005 212.626 175.971 209.211 174.858ZM105.05 129.308C106.499 131.082 108.047 132.683 109.688 134.109C109.685 134.075 109.68 134.04 109.674 134.005C109.632 133.761 109.55 133.67 109.552 133.668C107.923 132.331 106.425 130.871 105.05 129.308ZM108.575 137.097C96.193 126.938 88.9623 108.293 87.6691 83.1747C86.7089 64.5728 89.2812 49.122 89.3917 48.4736C89.7052 46.6307 91.1392 45.4704 92.5661 45.8617C94.0072 46.2599 94.9247 48.0755 94.6129 49.9184C94.5132 50.5122 84.899 109.562 111.463 131.356C112.707 132.373 113.066 134.485 112.268 136.07C111.759 137.085 110.897 137.638 110.018 137.638C109.521 137.638 109.023 137.463 108.575 137.097ZM81.9597 12.2232L86.4738 24.2498L81.2828 35.8305C80.7769 36.9567 80.8178 38.3514 81.3843 39.4321C81.9508 40.506 82.952 41.0748 83.9549 40.9064L94.3065 39.1318L101.304 49.0174C101.817 49.7432 102.54 50.1414 103.285 50.1414C103.529 50.1414 103.773 50.0981 104.015 50.0117C104.993 49.6568 105.729 48.6238 105.912 47.3452L107.797 34.2333L117.335 28.7637C118.263 28.2314 118.874 27.0733 118.911 25.7764C118.949 24.4773 118.405 23.2646 117.511 22.6481L108.323 16.3139L107.202 3.04962C107.092 1.75959 106.42 0.658401 105.463 0.210189C104.507 -0.240297 103.438 0.046376 102.7 0.945074L95.1385 10.1482L84.9168 7.40659C83.9228 7.13357 82.8932 7.61819 82.2661 8.63974C81.6373 9.6613 81.5197 11.0514 81.9597 12.2232ZM115.774 25.0946L106.139 18.4523L106.149 18.5776C106.165 18.7564 106.212 18.8905 106.254 18.9711C106.267 18.9959 106.278 19.0123 106.285 19.022L115.831 25.6019L105.883 31.3078C105.881 31.311 105.879 31.3145 105.876 31.3184C105.84 31.3769 105.789 31.4925 105.764 31.6635L105.721 31.9655L115.78 26.1968C115.787 26.1872 115.795 26.174 115.804 26.1566C115.853 26.0629 115.906 25.9016 115.912 25.6901C115.919 25.4772 115.875 25.2993 115.822 25.1821C115.802 25.136 115.784 25.1084 115.774 25.0946ZM95.5329 35.8778L95.0278 35.1642L84.0233 37.051L84.0203 37.0576L84.0193 37.0598C83.9148 37.2925 83.9048 37.6095 83.9726 37.8596L95.5329 35.8778ZM91.8073 26.0836L88.6097 33.2208L94.9924 32.1265C95.11 32.106 95.2293 32.0969 95.3469 32.0969C96.0968 32.0969 96.8183 32.4996 97.3278 33.2208L101.635 39.307L102.795 31.2369C102.953 30.1334 103.527 29.2006 104.329 28.741L110.207 25.3692L104.546 21.4672C103.773 20.9326 103.254 19.9474 103.16 18.8303L102.469 10.6556L97.8088 16.3276C97.1693 17.1012 96.275 17.4265 95.4146 17.1967L89.1173 15.5085L91.8981 22.9142C92.2775 23.9244 92.2419 25.1098 91.8073 26.0836ZM95.7008 14.1675L96.2141 13.5427L84.727 10.4617C84.6811 10.6677 84.6796 10.9325 84.7682 11.1685L84.7967 11.2443L95.7008 14.1675ZM105.821 31.3433C105.822 31.3431 105.821 31.3435 105.821 31.3433ZM91.5285 48.6318C91.5235 48.6266 91.5212 48.6235 91.5213 48.6233C91.5215 48.623 91.524 48.6256 91.5285 48.6318ZM172.684 71.1504L170.493 62.3841L174.909 55.1149C175.529 54.0887 175.643 52.6986 175.198 51.5292C174.752 50.362 173.824 49.618 172.809 49.6112L165.607 49.5657L161.568 41.9711C160.997 40.8972 159.997 40.3375 158.989 40.5082C157.982 40.6879 157.142 41.5821 156.821 42.8152L154.557 51.5383L147.643 54.1206C146.667 54.4846 145.937 55.5267 145.76 56.8053C145.584 58.084 145.994 59.3808 146.813 60.1476L152.617 65.5784L152.391 74.7747C152.357 76.0739 152.905 77.282 153.803 77.894C154.199 78.1625 154.63 78.2967 155.061 78.2967C155.61 78.2967 156.155 78.0806 156.618 77.6574L162.466 72.2993L169.235 75.4027C170.19 75.8418 171.261 75.5506 171.995 74.645C172.725 73.7441 172.994 72.3881 172.684 71.1504ZM155.393 74.7108L161.907 68.7428L169.8 72.3614C169.819 72.2214 169.818 72.0556 169.774 71.8792L169.774 71.8778L169.722 71.6712L162.189 68.2201L155.4 74.4345L155.393 74.7108ZM154.989 63.6892C154.976 63.6039 154.955 63.5278 154.931 63.4639C154.894 63.3672 154.859 63.3264 154.857 63.3227L148.76 57.6141L156.209 54.8289C156.231 54.7888 156.261 54.7241 156.285 54.6311L156.439 54.0378L148.836 56.8774C148.802 56.9394 148.755 57.0514 148.732 57.2152C148.705 57.4147 148.725 57.6105 148.774 57.7664C148.818 57.9056 148.867 57.9602 148.867 57.9605L154.989 63.6892ZM148.695 56.9303L148.693 56.931L148.691 56.9315C148.692 56.9311 148.694 56.9307 148.695 56.9303ZM159.06 55.7919C158.745 56.6263 158.174 57.2676 157.477 57.5562C157.452 57.5665 157.427 57.5763 157.402 57.5857L154.341 58.7301L156.912 61.1373C157.604 61.786 158.011 62.8209 158.003 63.9178C158.003 63.9442 158.003 63.9707 158.002 63.9972L157.9 68.0789L160.491 65.7081C160.642 65.5694 160.802 65.4527 160.969 65.3585C161.44 65.0926 161.962 65.0063 162.47 65.1107C162.632 65.144 162.793 65.1966 162.951 65.269L165.945 66.6409L164.973 62.7504C164.705 61.681 164.868 60.5093 165.405 59.622L167.361 56.4026L164.173 56.3821C164.073 56.3816 163.975 56.374 163.877 56.3596C163.275 56.2706 162.716 55.9213 162.291 55.3745C162.175 55.2262 162.07 55.0634 161.976 54.8873L160.19 51.5269L159.188 55.3856C159.152 55.5254 159.109 55.661 159.06 55.7919ZM164.575 53.3847L172.401 53.4349C172.478 53.2159 172.501 52.8887 172.399 52.6087L164.135 52.5564L164.575 53.3847ZM162.519 67.9189C162.518 67.9196 162.517 67.9203 162.516 67.9211L162.519 67.9189ZM170.489 72.6771L170.486 72.6756C170.487 72.6761 170.488 72.6766 170.489 72.6771ZM142.114 70.2831C141.344 70.2461 139.132 70.229 136.268 70.9893C132.714 71.9332 128.141 74.0753 124.005 78.9352C123.795 79.1819 123.588 79.4333 123.384 79.6896C127.465 75.0635 132.087 72.8989 135.761 71.9106C137.649 71.4028 139.284 71.205 140.474 71.1356C141.223 71.0919 141.804 71.0994 142.135 71.1113C142.16 71.0312 142.181 70.9303 142.189 70.8098C142.204 70.5807 142.161 70.4004 142.114 70.2831ZM145.183 71.0049C145.06 72.8797 143.797 74.2903 142.308 74.1242L142.296 74.1234C141.904 74.0958 132.584 73.4392 125.281 82.0828C119.105 89.3929 115.974 101.228 115.974 117.266C115.974 119.15 114.776 120.679 113.302 120.679C111.827 120.679 110.629 119.15 110.629 117.266C110.629 99.1899 114.361 85.6412 121.72 76.9909C130.903 66.1997 142.272 67.2691 142.741 67.3214C144.212 67.4761 145.304 69.1279 145.183 71.0049ZM77.4344 329.975V332.975C77.4344 333.972 77.7545 334.827 78.1838 335.368C78.5992 335.892 78.9937 335.996 79.2109 335.996H150.882L150.947 335.999C151.073 336.005 151.219 335.981 151.387 335.899C151.56 335.816 151.771 335.663 151.982 335.405C152.195 335.146 152.392 334.8 152.536 334.372C152.679 333.945 152.758 333.469 152.758 332.976L152.757 329.975H190.676C190.893 329.975 191.288 329.87 191.703 329.347C192.132 328.806 192.452 327.951 192.452 326.953C192.452 325.956 192.132 325.101 191.703 324.56C191.288 324.036 190.893 323.932 190.676 323.932H38.9402C38.723 323.932 38.3285 324.036 37.9131 324.56C37.4838 325.101 37.1637 325.956 37.1637 326.953C37.1637 327.951 37.4838 328.806 37.9131 329.347C38.3285 329.87 38.723 329.975 38.9402 329.975H77.4344ZM190.842 232.364V194.177L191.895 193.279C196.093 189.698 201.343 188.044 206.625 188.807L206.834 188.837L207.037 188.896C207.76 189.108 209.287 189.572 211.039 191.119C212.728 192.611 214.465 194.961 216.037 198.686C217.805 202.442 218.559 206.729 218.228 210.973C217.895 215.24 216.477 219.332 214.104 222.671C211.658 226.116 208.529 228.863 204.942 230.624C201.347 232.389 197.423 233.099 193.509 232.662L190.842 232.364ZM211.658 220.933C213.692 218.071 214.943 214.508 215.237 210.74C215.531 206.972 214.853 203.186 213.297 199.909C210.398 193.004 207.246 192.083 206.196 191.776C201.836 191.146 197.438 192.494 193.842 195.561V229.681C197.169 230.052 200.521 229.452 203.62 227.931C206.718 226.41 209.474 224.011 211.658 220.933ZM190.676 332.975C191.943 332.975 193.158 332.34 194.053 331.211C194.949 330.082 195.452 328.55 195.452 326.953C195.452 325.356 194.949 323.825 194.053 322.695C193.158 321.566 191.943 320.932 190.676 320.932H38.9402C37.6734 320.932 36.4585 321.566 35.5627 322.695C34.667 323.825 34.1637 325.356 34.1637 326.953C34.1637 328.55 34.667 330.082 35.5627 331.211C36.4585 332.34 37.6734 332.975 38.9402 332.975H74.4344C74.4344 334.572 74.9377 336.103 75.8334 337.233C76.7292 338.362 77.9441 338.996 79.2109 338.996H150.817C151.458 339.024 152.097 338.889 152.695 338.599C153.294 338.309 153.84 337.87 154.301 337.308C154.763 336.746 155.129 336.073 155.379 335.328C155.629 334.586 155.758 333.788 155.758 332.982C155.758 332.98 155.758 332.977 155.758 332.975H190.676Z" fill="#C4A484"/>
</g>
</g>
</svg>
