<svg aria-hidden="true" style="position:absolute;width:0;height:0" xmlns="http://www.w3.org/2000/svg" overflow="hidden">
  <defs>
    <symbol id="icon-cup" viewBox="0 0 23 32">
      <path fill="var(--color1, #c4a484)" d="m4.1 9.107 1.088-1.31c.071-.085.097-.213.066-.33s-.112-.202-.21-.219l-1.504-.27-.673-1.683c-.044-.11-.134-.179-.233-.179s-.19.07-.234.179l-.673 1.683-1.503.27c-.098.018-.18.103-.211.219s-.005.244.066.33l1.088 1.31-.256 1.851c-.017.121.023.243.104.315s.187.082.274.024l1.345-.874 1.345.874a.22.22 0 0 0 .274-.024.364.364 0 0 0 .104-.315L4.1 9.108zm-.462-.343a.372.372 0 0 0-.075.285l.191 1.374-.999-.649a.22.22 0 0 0-.243 0l-.999.649.19-1.375a.376.376 0 0 0-.075-.285L.82 7.79l1.117-.201c.085-.015.158-.081.196-.176l.501-1.251.5 1.25c.038.095.111.161.196.176l1.117.201-.808.973z"/>
      <path fill="var(--color1, #c4a484)" d="M5.062 8.963c-.14-.04-.28.072-.31.246s.058.345.199.383c.036.01 3.569 1.01 4.688 5.141.037.135.138.22.247.22a.209.209 0 0 0 .083-.017c.137-.057.21-.239.165-.407-1.212-4.474-4.914-5.524-5.071-5.566zm5.808 3.429c-2.591-2.056-1.653-7.627-1.643-7.683.03-.174-.059-.345-.2-.383-.139-.037-.279.073-.31.246a15.957 15.957 0 0 0-.168 3.274c.126 2.37.831 4.129 2.039 5.087a.223.223 0 0 0 .141.051c.086 0 .17-.052.219-.148.078-.15.043-.349-.079-.445zM8.187 3.859l1.009-.167.682.933c.05.068.121.106.193.106a.216.216 0 0 0 .071-.012c.095-.034.167-.131.185-.252l.184-1.237.93-.516c.091-.05.15-.159.154-.282s-.049-.237-.137-.295l-.896-.598-.109-1.251c-.011-.122-.076-.226-.17-.268s-.198-.015-.269.069l-.737.868L8.28.698c-.097-.026-.197.02-.259.116s-.073.228-.03.338l.44 1.135-.506 1.093c-.049.106-.045.238.01.34s.153.155.251.139zm.775-1.697-.271-.699.614.159a.228.228 0 0 0 .233-.082l.454-.535.067.771c.009.105.06.198.135.249l.552.368-.573.318a.32.32 0 0 0-.15.235l-.113.761-.42-.574a.242.242 0 0 0-.193-.106.216.216 0 0 0-.035.003l-.623.103.312-.673a.392.392 0 0 0 .009-.299zm8.123 2.699c-.043-.11-.134-.18-.233-.181l-.702-.004-.394-.716c-.056-.101-.153-.154-.252-.138s-.18.101-.211.218l-.221.823-.674.244c-.095.034-.166.133-.184.253s.023.243.103.315l.566.512-.022.868a.338.338 0 0 0 .138.294.228.228 0 0 0 .123.038c.053 0 .107-.02.152-.06l.57-.505.66.293c.093.041.198.014.269-.071s.097-.213.067-.33l-.214-.827.431-.686a.386.386 0 0 0 .028-.338zm-.997 1.059.095.367-.292-.129a.221.221 0 0 0-.24.041l-.253.224.01-.385a.354.354 0 0 0-.106-.27l-.251-.227.298-.108a.295.295 0 0 0 .174-.208l.098-.364.174.317c.048.088.128.141.214.141l.311.002-.191.304a.382.382 0 0 0-.042.295zm-2.168.431c-.046-.005-1.154-.106-2.05.912-.718.816-1.082 2.094-1.082 3.8 0 .178.117.322.261.322s.261-.144.261-.322c0-1.513.305-2.63.908-3.319.724-.829 1.651-.751 1.66-.751.145.016.268-.117.28-.294s-.095-.333-.238-.348z"/>
      <path fill="var(--color2, #fff)" d="M7.676 28.573h7.35c2.975 0 3.027-3.906 3.027-3.906v-8.568H4.649v8.568s0 3.906 3.027 3.906z"/>
      <path fill="var(--color2, #fff)" d="M13.249 28.573h1.796c2.956 0 3.008-3.906 3.008-3.906v-8.568h-4.8l-.004 12.475z"/>
      <path fill="var(--color1, #c4a484)" d="M3.798 30.277c-.124 0-.242.06-.329.166s-.136.251-.136.402c0 .151.049.295.136.402s.206.166.329.166h3.461c0 .151.049.295.136.402s.206.166.329.166h6.983c.063.003.125-.01.183-.038s.112-.069.157-.122.081-.117.105-.187a.69.69 0 0 0 .037-.222h3.405c.124 0 .242-.06.329-.166s.136-.251.136-.402c0-.151-.049-.295-.136-.402s-.206-.166-.329-.166H3.797zm18.445-12.305c-.165-.426-.408-.804-.712-1.106s-.661-.521-1.046-.641a2.46 2.46 0 0 0-1.582.116v-.922H4.028v9.309c0 1.602.774 4.638 3.688 4.638h7.491c2.868 0 3.688-3.026 3.688-4.638v-1.144a3.11 3.11 0 0 0 1.266-.169c.678-.238 1.281-.711 1.729-1.356.405-.558.655-1.249.718-1.979s-.065-1.466-.366-2.109zm-4.569-1.105v6.814H5.258v-6.814h12.416zm-2.458 11.051H7.725c-1.639 0-2.192-1.375-2.377-2.331h12.219c-.193.951-.754 2.331-2.36 2.331h.008zm5.425-7.075c-.213.29-.482.517-.784.66s-.629.2-.954.165v-3.219a1.546 1.546 0 0 1 1.205-.357c.102.029.41.116.693.767.152.309.218.666.189 1.022s-.151.692-.349.962z"/>
      <path fill="var(--color1, #c4a484)" d="M18.169 24.666v-8.568h-.232v8.568h.232zM4.1 9.107l-.179-.149-.066.079.014.102.23-.032zm1.088-1.31-.179-.149.179.149zm.066-.33.225-.059-.225.059zm-.21-.219-.041.229.041-.229zm-1.504-.27-.216.086.048.12.127.023.041-.229zm-.673-1.683-.216.086.216-.086zM2.4 5.294zm-.674 1.684.041.229.127-.023.048-.12-.216-.086zm-1.503.27.041.229-.041-.229zm-.21.219zm.066.33-.179.148.179-.149zm1.087 1.31.23.032.014-.101-.065-.079-.179.148zM.91 10.958zm.104.315-.155.173.155-.173zm.275.024-.127-.195.127.195zm1.344-.873.127-.195-.127-.082-.127.082.127.195zm1.345.873-.127.195h.001l.126-.195zm.275-.024.155.173.001-.001-.155-.173zm.104-.315zm-.719-2.194zm-.075.286zm.191 1.374-.127.195.427.277-.07-.504-.23.032zm-.999-.649.127-.195h-.001l-.126.195zm-.243 0-.126-.195.127.195zm-.999.649-.23-.032-.07.504.427-.277-.127-.195zm.19-1.374zm-.075-.285.179-.148-.179.148zM.82 7.791l-.041-.229-.392.071.255.307.179-.148zm1.117-.2zm.196-.176zm.5-1.251.216-.086-.216-.54-.216.54.216.086zm.5 1.25.216-.086-.216.086zm.196.176zm1.117.201.179.148.255-.307-.392-.071-.041.229zm.616 1.172-.063.224h.002l.061-.224zm-.111.629.061-.224-.061.224zm4.688 5.141zm.33.204.089.215-.089-.215zm.164-.408zm.737-2.137-.145.182.144-.182zM9.227 4.709l-.229-.04.229.04zm-.2-.382.06-.225-.06.225zm-.309.246zM8.55 7.847zm2.038 5.087zm.36-.097-.206-.107.206.107zM8.187 3.859l.037.229h.001l-.038-.229zm1.01-.167.188-.137L9.3 3.44l-.141.023.038.229zm.682.932zm.265.094.076.22h.002l-.077-.219zm.185-.251zm.183-1.237-.113-.203-.1.056-.017.113.23.034zm.931-.516zm.153-.282zm-.136-.295zm-.896-.598-.232.02.01.111.093.062.129-.193zm-.11-1.251.232-.02-.232.021zM10.285.02l-.096.212.096-.212zm-.27.069.177.15-.177-.15zm-.737.868-.058.225.141.037.094-.111-.177-.15zM8.281.699l-.06.225h.002l.058-.225zm-.258.116.196.125-.196-.125zm-.03.338zm.44 1.135.211.098.042-.09-.036-.092-.217.084zM7.927 3.38zm.01.34-.204.111v.001l.204-.111zm1.025-1.558zm-.271-.699.058-.225-.439-.114.164.423.217-.084zm.614.159-.058.225.058-.225zm.233-.082.177.151V1.69l-.177-.15zm.455-.535.232-.02-.048-.554-.36.424.177.15zm.067.771zm.135.249-.129.193.129-.193zm.552.368.113.203.333-.185-.317-.212-.129.193zm-.573.318zm-.149.236zm-.114.761-.188.137.334.457.083-.56-.23-.034zm-.42-.574-.188.137.188-.137zm-.227-.103.038.229h.001l-.039-.229zm-.623.103-.211-.098-.185.399.434-.072-.038-.229zm.312-.673.211.098-.211-.097zm8.132 2.4zm-.233-.181.001-.232-.001.232zm-.702-.004-.204.112.066.12.137.001.001-.232zm-.394-.716zm-.251-.138-.038-.229h-.002l.04.229zm-.212.217zm-.221.823.079.219.114-.041.031-.117-.225-.06zm-.674.244.079.219-.079-.219zm-.081.568zm.566.513.232.006.003-.107-.079-.072-.156.172zm-.022.867.232.006-.232-.006zm.138.295-.128.194.128-.194zm.274-.023.154.174-.154-.174zm.571-.505.094-.213-.137-.061-.112.099.154.174zm.66.293.095-.212-.094.213zm.269-.072zm.067-.33zm-.213-.827-.197-.124-.053.085.025.097.225-.058zm.43-.685.197.124-.197-.123zm-.969.72zm.095.367-.094.213.44.195-.12-.465-.225.058zm-.292-.129-.094.212.094-.213zm-.24.041.154.174-.154-.174zm-.252.224-.232-.006-.014.534.4-.354-.154-.174zm.009-.385zm-.106-.27zm-.251-.227-.079-.219-.363.131.286.259.156-.172zm.299-.108-.079-.219.079.219zm.174-.208zm.098-.364.204-.112-.278-.507-.15.558.225.06zm.174.317zm.214.141.001-.232-.001.232zm.311.002.197.124.222-.353-.417-.003-.001.232zm-.191.304-.197-.124.197.123zm-2.21.726-.025.231h.002l.024-.231zm-2.05.912zm.347.481zm1.661-.751.025-.231-.007-.001h-.007l-.01.232zm.28-.294.232.016-.232-.015zm3.895 17.967zM4.649 16.098v-.232h-.232v.232h.232zm0 8.568zm8.6 3.907h-.232v.233h.233v-.232zm.004-12.475v-.232h-.232v.232h.232zM3.798 31.413zm3.461 0h.232v-.232h-.232v.232zm.466.568zm6.983 0 .01-.232h-.01v.232zm.482-.568v-.232h-.233v.233h.232zm3.405 0zm.466-.568zm-.466-.568zm3.648-12.305-.217.084.003.007.003.007.21-.099zm-1.758-1.747.069-.222-.005-.002-.005-.001-.059.225zm-1.581.116h-.232v.35l.322-.135-.09-.214zm0-.922h.232v-.232h-.232v.232zm-14.875 0v-.232h-.232v.232h.232zm14.866 8.165.017-.232-.25-.019v.25h.232zm1.266-.169.077.219-.077-.219zm1.73-1.356-.188-.136-.003.004.191.133zm-4.217-5.192h.232v-.232h-.232v.232zm0 6.814v.232h.232v-.232h-.232zm-12.416 0h-.232v.232h.232v-.232zm0-6.814v-.232h-.232v.232h.232zm.09 8.72v-.232h-.282l.053.276.228-.044zm12.22 0 .228.046.056-.279h-.284v.232zm3.073-4.744zm-1.737.825h-.232v.209l.207.022.025-.231zm0-3.218-.148-.179-.084.07v.11h.232zm1.204-.358.063-.224-.015-.004-.016-.002-.032.23zm.693.768-.213.093.002.005.002.005.209-.102zM4.279 9.256l1.088-1.31-.358-.297-1.088 1.31.358.297zm1.088-1.31a.608.608 0 0 0 .112-.538l-.45.118a.143.143 0 0 1-.02.123l.357.297zm.112-.538a.517.517 0 0 0-.394-.389l-.082.458c-.005-.001-.003-.002.004.005s.017.022.023.045l.449-.119zm-.394-.389-1.504-.27-.082.458 1.504.27.082-.458zm-1.329-.128-.673-1.683-.432.173.673 1.683.432-.173zm-.673-1.683a.492.492 0 0 0-.449-.326v.465c-.006 0-.008-.003-.004 0s.014.013.022.033l.432-.172zm-.449-.325a.493.493 0 0 0-.449.325l.432.173c.008-.02.017-.029.022-.033s.002 0-.004 0v-.465zm-.45.325-.673 1.683.432.173.673-1.683-.432-.173zm-.499 1.541-1.503.27.082.458 1.503-.27-.082-.458zm-1.503.27a.514.514 0 0 0-.394.389l.45.119c.006-.023.016-.038.023-.045s.009-.006.004-.005l-.082-.458zm-.394.389a.608.608 0 0 0 .112.537l.358-.296a.148.148 0 0 1-.02-.123l-.45-.118zm.112.538 1.088 1.31.358-.297-1.088-1.31-.358.297zm1.036 1.13L.68 10.927l.46.064.256-1.851-.461-.064zm-.256 1.85a.593.593 0 0 0 .179.52l.311-.346c-.015-.013-.037-.054-.029-.11l-.461-.064zm.179.52a.452.452 0 0 0 .557.046l-.254-.389h.001l.007-.001.004.001-.004-.003-.31.346zm.556.046 1.345-.874-.253-.39-1.345.874.253.39zm1.092-.873 1.345.874.253-.39-1.345-.874-.253.39zm1.345.874a.453.453 0 0 0 .247.074v-.465l.005.001c.001.001.001.001 0 0l-.252.39zm.248.074a.464.464 0 0 0 .308-.12l-.309-.347-.004.003h-.001l.002-.001H4.1v.465zm.308-.121a.595.595 0 0 0 .179-.52l-.461.063c.008.056-.014.097-.029.111l.311.346zm.179-.52L4.33 9.075l-.46.064.257 1.85.46-.064zm-1.128-2.31a.604.604 0 0 0-.127.465l.461-.064a.142.142 0 0 1 .024-.105l-.358-.297zm-.126.465.191 1.374.46-.064-.191-1.374-.46.064zm.547 1.148-.999-.649-.253.39.999.649.253-.39zm-.999-.649a.45.45 0 0 0-.495 0l.253.39c.001-.001.001-.001 0 0l-.005.001-.005-.001c-.001-.001-.001-.001 0 0l.252-.39zm-.495 0-.999.649.253.39.999-.649-.253-.39zm-.643.876.19-1.375-.461-.064-.19 1.375.461.064zm.19-1.375a.606.606 0 0 0-.126-.465l-.358.297c.016.019.03.058.024.105l.46.064zm-.126-.465-.808-.973-.358.297.808.973.358-.297zM.861 8.02l1.117-.201-.082-.458-1.117.201.082.458zm1.117-.201a.505.505 0 0 0 .371-.318l-.432-.173c-.007.017-.015.027-.02.031s-.006.003-.002.002l.082.458zm.371-.318.5-1.251-.432-.173-.5 1.251.432.173zm.069-1.251.5 1.251.432-.173-.5-1.25-.432.173zm.499 1.25a.503.503 0 0 0 .371.319l.082-.458c.004.001.003.002-.002-.002s-.013-.014-.02-.031l-.432.172zm.371.319 1.117.201.082-.458-1.117-.201-.082.458zm.979-.176-.808.973.358.297.808-.973-.358-.297zm.859 1.097c-.319-.091-.557.172-.603.429l.458.081c.007-.037.023-.056.03-.061.003-.003.004-.002 0-.001h-.012l.127-.447zm-.603.428c-.045.255.077.57.367.648l.121-.449c.005.001-.006.001-.018-.023s-.019-.058-.013-.095l-.458-.081zm.367.648c-.001 0 .862.242 1.859.987.994.743 2.122 1.985 2.665 3.991l.449-.121c-1.152-4.254-4.792-5.289-4.851-5.305l-.122.449zm4.524 4.978c.057.211.233.392.472.392v-.465c.008 0 .008.003.002-.002s-.018-.019-.025-.046l-.449.121zm.472.392a.458.458 0 0 0 .172-.034l-.178-.429.003-.001h.003v.465zm.172-.035c.271-.112.368-.432.3-.683l-.449.122a.162.162 0 0 1-.005.098.097.097 0 0 1-.017.028c-.002.003-.004.004-.006.005l-.002.001.178.429zm.299-.682c-1.245-4.596-5.052-5.68-5.235-5.73l-.121.449c.13.035 3.728 1.05 4.907 5.402l.449-.122zm.657-2.259c-1.21-.961-1.621-2.773-1.709-4.422a15.558 15.558 0 0 1 .113-2.787l.026-.185.008-.05.002-.013.001-.004v-.001l-.458-.08c-.006.036-.246 1.462-.156 3.144.089 1.665.504 3.666 1.884 4.761l.289-.364zM9.456 4.749c.045-.255-.078-.57-.368-.647l-.12.449c-.005-.001.005-.001.018.023s.019.058.013.095l.458.08zm-.369-.647c-.313-.083-.552.17-.598.431l.458.081a.1.1 0 0 1 .029-.06c.004-.003.004-.002.002-.002h-.01l.119-.449zm-.598.431a16.243 16.243 0 0 0-.171 3.326l.464-.025a15.74 15.74 0 0 1 .165-3.221l-.458-.081zm-.172 3.326c.128 2.4.844 4.239 2.126 5.257l.289-.364c-1.133-.899-1.827-2.578-1.951-4.917l-.464.025zm2.127 5.257a.461.461 0 0 0 .285.101v-.465h.003l.003.001c.001.001.001 0 0 0l-.003-.002-.289.364zm.285.101a.486.486 0 0 0 .426-.273l-.413-.214c-.008.015-.016.021-.018.023s0 0 .005 0v.465zm.426-.273c.122-.235.079-.56-.14-.734l-.288.365c.023.018.05.091.017.155l.412.215zm-2.93-8.856 1.009-.167-.076-.459-1.01.167.076.459zm.784-.259.682.933.375-.275-.682-.933-.375.275zm.682.932c.088.12.224.201.381.201v-.465l.006.001c-.001 0-.005-.003-.012-.012l-.375.274zm.381.202c.051 0 .1-.009.147-.025l-.152-.439h.005v.465zm.149-.025a.538.538 0 0 0 .338-.437l-.46-.068c-.004.025-.013.044-.021.055s-.013.012-.011.012l.154.439zm.338-.437.184-1.237-.46-.068-.184 1.237.46.068zm.066-1.068.93-.516-.225-.407-.93.516.226.407zm.93-.516a.562.562 0 0 0 .273-.478l-.465-.014c-.002.058-.03.083-.034.086l.226.406zm.274-.478a.57.57 0 0 0-.24-.495l-.258.387c.008.006.035.037.033.095l.465.014zm-.24-.496-.896-.598-.258.387.896.598.258-.387zm-.794-.424L10.686.268l-.463.04.109 1.251.463-.04zM10.686.267a.55.55 0 0 0-.305-.459l-.192.423s.029.019.034.077l.463-.041zm-.305-.459a.456.456 0 0 0-.543.131l.355.301.008-.008H10.2l-.007.001-.005-.001.193-.423zm-.543.131-.737.868.354.301.737-.868-.354-.301zm-.502.793L8.339.473l-.117.45.997.259.117-.45zM8.341.474a.467.467 0 0 0-.514.216l.393.249c.009-.014.016-.017.015-.017L8.23.923 8.222.922l.119-.449zM7.827.69a.615.615 0 0 0-.05.547l.433-.168A.157.157 0 0 1 8.219.94L7.827.69zm-.051.547.44 1.135.433-.168-.44-1.135-.433.168zm.446.953-.506 1.093.422.195.506-1.093-.422-.195zm-.506 1.092a.621.621 0 0 0 .016.548l.409-.221a.154.154 0 0 1-.003-.131l-.422-.196zm.017.549a.476.476 0 0 0 .492.257l-.075-.459h.009c-.001-.001-.009-.006-.018-.021l-.408.223zm1.446-1.753-.271-.699-.433.168.271.699.433-.168zm-.547-.39.614.159.117-.45-.614-.159-.117.45zm.615.159a.461.461 0 0 0 .468-.156l-.353-.302c-.007.008-.011.009-.009.008l.005-.001.006.001-.116.45zm.469-.156.454-.535-.354-.301-.454.535.354.301zm.045-.665.067.771.463-.04-.067-.771-.463.04zm.068.771a.566.566 0 0 0 .237.422l.258-.386c-.007-.005-.029-.028-.033-.076l-.463.04zm.237.422.552.368.258-.387-.552-.368-.258.387zm.569-.029-.573.318.226.406.573-.318-.226-.406zm-.574.318a.55.55 0 0 0-.267.405l.46.068c.007-.047.029-.064.032-.066l-.226-.407zm-.266.405-.113.761.46.068.113-.761-.46-.068zm.304.658-.42-.574-.375.275.42.574.375-.275zm-.42-.574a.473.473 0 0 0-.381-.201v.465l-.005-.001h-.001c.001.001.005.003.012.012l.375-.274zm-.381-.201a.468.468 0 0 0-.073.006l.077.458h-.004v-.465zm-.072.006-.623.103.076.459.623-.103-.076-.459zm-.374.43.312-.673-.422-.195-.312.673.422.195zm.312-.674a.622.622 0 0 0 .014-.481l-.433.168a.157.157 0 0 1-.003.117l.422.195zm8.138 2.218a.494.494 0 0 0-.448-.328l-.003.465c-.006 0-.008-.003-.004.001s.014.013.022.033l.432-.171zm-.448-.328-.702-.004-.003.465.702.004.003-.465zm-.5.116-.394-.716-.407.224.394.716.407-.224zm-.394-.716a.477.477 0 0 0-.493-.255l.075.459h-.008c.001.001.009.006.018.021l.407-.224zm-.495-.255a.513.513 0 0 0-.396.386l.449.121c.006-.023.016-.037.023-.044s.009-.005.004-.004l-.079-.458zm-.396.386-.221.823.449.12.221-.823-.449-.12zm-.076.665-.674.244.158.437.674-.244-.158-.437zm-.674.243a.538.538 0 0 0-.335.439l.46.066c.004-.025.012-.044.021-.055s.014-.013.012-.012l-.158-.437zm-.335.439a.59.59 0 0 0 .177.52l.312-.345c-.015-.013-.036-.055-.028-.11l-.46-.066zm.177.521.566.512.312-.345-.566-.512-.312.345zm.49.334-.022.868.465.012.022-.868-.465-.012zm-.022.867a.573.573 0 0 0 .242.495l.256-.388c-.008-.006-.035-.036-.033-.094l-.465-.013zm.242.495c.074.049.16.076.25.076v-.465l.006.001-.001-.001-.255.389zm.251.076a.462.462 0 0 0 .306-.119l-.308-.348-.004.003c-.001.001-.001 0 0 0l.002-.001h.004v.465zm.306-.119.57-.505-.308-.348-.57.505.308.348zm.321-.467.66.293.188-.425-.66-.293-.188.425zm.66.293a.458.458 0 0 0 .542-.135l-.356-.299-.008.008c-.001.001-.001 0 0 0l.007-.001.005.001-.189.425zm.542-.135a.609.609 0 0 0 .114-.537l-.45.117a.148.148 0 0 1-.02.122l.356.299zm.114-.537-.214-.827-.45.116.214.827.45-.116zm-.242-.645.431-.686-.394-.247-.431.686.394.247zm.431-.686a.617.617 0 0 0 .047-.547l-.433.17a.157.157 0 0 1-.009.13l.394.246zm-1.391.655.095.367.45-.116-.095-.367-.45.116zm.414.096-.292-.129-.188.425.292.129.188-.425zm-.292-.129a.453.453 0 0 0-.489.08l.309.348.004-.003-.003.001H15.8l-.004-.001.189-.425zm-.488.08-.253.224.308.348.253-.224-.308-.348zm.134.404.01-.385-.465-.012-.01.385.465.012zm.01-.385a.583.583 0 0 0-.183-.448l-.312.344c.012.011.031.043.03.091l.465.012zm-.183-.448-.251-.227-.312.345.251.227.312-.345zm-.328.163.298-.108-.158-.437-.298.108.158.437zm.299-.108a.526.526 0 0 0 .32-.366l-.449-.121c-.005.02-.013.033-.02.041s-.01.009-.009.008l.158.437zm.32-.366.098-.364-.449-.12-.098.364.449.12zm-.331-.312.174.317.407-.224-.174-.317-.407.224zm.174.317a.481.481 0 0 0 .417.261l.002-.465.006.001A.05.05 0 0 1 16 5.066l-.407.224zm.417.262.311.002.003-.465-.311-.002-.003.465zm.115-.355-.191.304.394.247.191-.304-.394-.247zm-.191.304a.62.62 0 0 0-.07.477l.45-.116a.157.157 0 0 1 .014-.114l-.394-.247zm-1.988.619c-.075-.008-1.28-.113-2.249.99l.349.307a2.425 2.425 0 0 1 1.227-.768 2.213 2.213 0 0 1 .576-.069l.047.003.05-.462zm-2.249.99c-.771.877-1.139 2.222-1.139 3.953h.465c0-1.68.36-2.891 1.024-3.646l-.349-.307zm-1.14 3.953c0 .258.177.554.493.554v-.465c.01 0 .008.006-.004-.008s-.025-.042-.025-.081h-.465zm.493.554c.316 0 .493-.297.493-.554h-.465c0 .039-.013.067-.025.081s-.014.008-.004.008v.465zm.493-.554c0-1.491.303-2.539.85-3.166l-.35-.306c-.657.752-.965 1.937-.965 3.472h.465zm.851-3.166a1.943 1.943 0 0 1 1.336-.671.85.85 0 0 1 .138 0l.021-.464a1.715 1.715 0 0 0-.185.001 2.405 2.405 0 0 0-1.661.829l.35.306zm1.46-.673c.325.035.52-.256.537-.51l-.464-.031a.13.13 0 0 1-.027.075c-.005.005-.007.005-.005.005s.006-.002.009-.001l-.05.462zm.537-.51c.017-.256-.138-.563-.447-.594l-.047.463c-.009-.001-.003-.005.009.013s.023.049.021.088l.464.031zM7.676 28.805h7.35v-.465h-7.35v.465zm7.35 0c.8 0 1.415-.264 1.88-.667.461-.399.764-.924.965-1.433s.304-1.018.357-1.396a5.929 5.929 0 0 0 .055-.59l.001-.036v-.014l-.232-.003-.232-.003v.008l-.001.03a5.996 5.996 0 0 1-.051.543c-.05.355-.146.824-.329 1.29s-.451.918-.837 1.252c-.381.33-.888.554-1.576.554v.465zm3.027-12.939H4.649v.465h13.404v-.465zm-13.637.232v8.568h.465v-8.568h-.465zm.233 8.568h-.232v.014l.001.036.005.131c.006.112.018.27.043.459.049.378.147.886.345 1.397s.5 1.036.964 1.435c.468.403 1.09.667 1.902.667v-.465c-.702 0-1.215-.225-1.598-.554-.387-.333-.653-.784-.833-1.25s-.271-.934-.317-1.289a5.994 5.994 0 0 1-.04-.426l-.005-.117-.001-.03v-.008h-.232zm8.6 4.139h1.796v-.465h-1.796v.465zm1.796 0c.796 0 1.407-.265 1.87-.667.458-.399.76-.924.959-1.433s.302-1.018.355-1.395a6.475 6.475 0 0 0 .055-.59l.001-.036v-.014l-.232-.003-.232-.003v.008l-.001.03a5.996 5.996 0 0 1-.051.543c-.049.355-.145.824-.327 1.29s-.448.919-.832 1.252c-.378.33-.882.553-1.564.553v.465zm3.008-12.939h-4.8v.465h4.8v-.465zm-5.032.232-.004 12.475h.465l.004-12.475h-.465zM3.798 30.045a.66.66 0 0 0-.509.251l.36.295c.049-.06.104-.081.15-.081v-.465zm-.51.251a.867.867 0 0 0-.189.549h.465c0-.102.034-.193.084-.254l-.36-.295zm-.189.549c0 .199.064.397.189.549l.36-.295a.405.405 0 0 1-.084-.254h-.465zm.189.549a.66.66 0 0 0 .509.251v-.465c-.045 0-.101-.022-.15-.081l-.36.295zm.51.252h3.461v-.465H3.798v.465zm3.228-.233c0 .199.064.397.189.549l.359-.295a.405.405 0 0 1-.084-.254h-.465zm.19.549a.66.66 0 0 0 .509.251v-.465c-.045 0-.101-.022-.15-.081l-.359.295zm.509.252h6.983v-.465H7.725v.465zm6.973 0a.64.64 0 0 0 .292-.059l-.197-.421a.161.161 0 0 1-.075.016l-.02.464zm.292-.06a.696.696 0 0 0 .235-.182l-.355-.301a.226.226 0 0 1-.078.062l.197.421zm.235-.182a.8.8 0 0 0 .147-.261l-.439-.153a.37.37 0 0 1-.063.113l.355.301zm.147-.26a.914.914 0 0 0 .05-.298h-.465a.438.438 0 0 1-.024.146l.439.153zm-.182-.066h3.405v-.465H15.19v.465zm3.405 0a.66.66 0 0 0 .509-.251l-.36-.295c-.049.06-.104.081-.15.081v.465zm.509-.252a.867.867 0 0 0 .189-.549h-.465a.405.405 0 0 1-.084.254l.36.295zm.189-.549a.867.867 0 0 0-.189-.549l-.36.295c.05.061.084.152.084.254h.465zm-.189-.549a.66.66 0 0 0-.509-.251v.465c.045 0 .101.022.15.081l.36-.295zm3.356-12.408a3.409 3.409 0 0 0-.765-1.187l-.328.33c.279.278.505.627.659 1.025l.433-.168zm-.765-1.187a2.812 2.812 0 0 0-1.14-.698l-.138.444c.346.108.672.306.951.584l.328-.33zM20.544 16a2.693 2.693 0 0 0-1.73.126l.18.429a2.229 2.229 0 0 1 1.433-.105l.117-.45zm-1.408.341v-.922h-.465v.922h.465zm-.232-1.155H4.029v.465h14.875v-.465zm-15.108.233v9.309h.465v-9.309h-.465zm0 9.309c0 .83.199 2.033.783 3.037.59 1.015 1.581 1.834 3.137 1.834v-.465c-1.357 0-2.21-.699-2.736-1.602-.532-.914-.72-2.031-.72-2.803h-.465zm3.921 4.87h7.491v-.465H7.717v.465zm7.49 0c1.534 0 2.525-.817 3.12-1.829.589-1.002.8-2.205.8-3.041h-.465c0 .775-.199 1.892-.736 2.805-.532.904-1.385 1.6-2.719 1.6v.465zm3.921-4.87v-1.144h-.465v1.144h.465zm-.25-.912c.46.034.92-.027 1.36-.181l-.154-.439a2.9 2.9 0 0 1-1.172.157l-.035.464zm1.361-.181c.729-.256 1.369-.761 1.843-1.443l-.382-.265c-.423.609-.987 1.049-1.615 1.269l.154.439zm1.84-1.439a4.2 4.2 0 0 0 .762-2.095l-.463-.04a3.73 3.73 0 0 1-.675 1.863l.376.273zm.761-2.096a4.39 4.39 0 0 0-.387-2.227l-.421.197a3.93 3.93 0 0 1 .345 1.99l.463.04zm-5.398-3.233v6.814h.465v-6.814h-.465zm.232 6.581H5.258v.465h12.416v-.465zm-12.183.233v-6.814h-.465v6.814h.465zm-.233-6.582h12.416v-.465H5.258v.465zm9.958 10.586H7.725v.465h7.491v-.465zm-7.491 0c-.743 0-1.226-.307-1.551-.719-.333-.422-.508-.963-.597-1.424l-.456.088c.096.495.29 1.119.689 1.624.407.515 1.02.895 1.916.895v-.465zm-2.377-1.866h12.219v-.465H5.348v.465zm11.992-.278c-.093.459-.272 1.001-.605 1.424-.326.414-.803.72-1.528.72v.465c.882 0 1.488-.384 1.893-.898.397-.504.595-1.127.695-1.62l-.456-.092zm-2.133 2.609h.008v-.465h-.008v.465zm5.246-7.444a1.86 1.86 0 0 1-.696.588l.2.42c.34-.161.638-.414.872-.733l-.375-.275zm-.696.587a1.536 1.536 0 0 1-.829.144l-.05.462c.368.04.738-.025 1.078-.186l-.2-.42zm-.621.375v-3.219h-.465v3.219h.465zm-.085-3.039a1.313 1.313 0 0 1 1.025-.306l.064-.46a1.78 1.78 0 0 0-1.385.408l.296.359zm.994-.313c.037.01.102.028.191.103.092.079.221.232.352.533l.426-.185c-.152-.35-.318-.567-.476-.701a.914.914 0 0 0-.366-.197l-.126.447zm.547.646c.133.27.192.585.166.901l.463.037a2.201 2.201 0 0 0-.212-1.143l-.417.205zm.166.901c-.025.315-.134.61-.305.843l.375.275c.226-.307.361-.685.393-1.081l-.463-.037zm-2.163 10.182H3.798v.465h14.797v-.465z"/>
    </symbol>
    <symbol id="icon-beans" viewBox="0 0 19 32">
      <path fill="var(--color1, #c4a484)" d="M11.794 5.602 8.156.375 4.518 5.602.375 2.117l1.566 7.008h12.43l1.566-7.008-4.143 3.485zm6.724 11.467c-1.145-7.177-6.661-6.855-9.532-.933-1.332-2.01-3.587-3.295-5.373-2.44a.107.107 0 0 0-.044.022C.301 15.203-.227 21.285 1.145 25.397c1.295 4.398 5.101 8.141 8.203 5.158 1.548 1.433 3.387 1.133 5.004-.221 2.977-2.366 4.941-8.644 4.165-13.264zm-3.5-4.416c-.313 2.145-.031 2.896-.826 5.423-.346 1.182-.853 2.261-1.492 3.178a11.45 11.45 0 0 0-1.326 2.605c-.092-2.581-.78-5.053-1.961-7.051 1.498-3.074 3.737-4.719 5.604-4.155zM4.717 29.89c-1.343-1.126-2.388-2.824-2.98-4.841-1.185-3.543-.916-8.696 1.72-10.355.222 1.889 0 2.605.726 4.989.343 1.162.849 2.217 1.489 3.104.597.813 1.067 1.786 1.382 2.861.726 2.301.438 2.996.713 4.967-1.046.303-2.136.044-3.049-.725zm3.64.477c-.241-1.928 0-2.661-.738-5.054-.346-1.168-.858-2.228-1.504-3.117-.592-.813-1.058-1.785-1.37-2.857-.719-2.279-.441-2.97-.704-4.91 2.646-.738 4.979 2.171 6.042 5.57 1.182 3.543.913 8.701-1.726 10.351v.017zm1.511-.39a6.37 6.37 0 0 0 .507-.842c-.025.373-.066.745-.122 1.111a2.871 2.871 0 0 1-.385-.269zm7.411-5.77c-1.123 3.634-3.659 7.033-6.445 6.295.332-2.171.031-2.931.838-5.488.347-1.182.853-2.26 1.492-3.178.685-.986 1.228-2.144 1.601-3.413.819-2.605.569-3.404.851-5.51 2.836 1.815 2.912 7.476 1.664 11.293z"/>
      <path fill="var(--color1, #c4a484)" d="m11.794 5.602-.308.214a.374.374 0 0 0 .55.073l-.241-.287zM8.156.375l.308-.214a.374.374 0 0 0-.616 0l.308.214zM4.518 5.602l-.241.287a.375.375 0 0 0 .55-.073l-.308-.214zM.375 2.117l.241-.287a.375.375 0 0 0-.607.368l.366-.082zm1.566 7.008-.366.082c.038.171.19.293.366.293v-.375zm12.43 0V9.5a.375.375 0 0 0 .366-.293l-.366-.082zm1.567-7.008.366.082a.375.375 0 0 0-.607-.368l.241.287zm2.58 14.952-.37.059v.004l.37-.062zm-9.532-.933-.313.207.363.548.287-.592-.337-.164zm-5.373-2.441.078.367.044-.009.04-.019-.162-.338zm-.044.022.155.341.045-.02.038-.031-.238-.29zM1.146 25.396l.36-.106-.002-.006-.002-.006-.356.119zm8.202 5.158.255-.275-.26-.24-.255.245.26.27zm5.004-.221-.233-.294-.004.003-.004.003.241.287zm.666-17.68.371.054.047-.32-.309-.093-.109.359zm-.825 5.423-.358-.112-.001.003-.001.003.36.105zm-1.492 3.178-.308-.214-.001.001.309.213zm-1.326 2.605-.375.013.727.114-.353-.128zm-1.961-7.051-.337-.164-.088.181.103.174.323-.191zM4.717 29.89l.242-.287h-.001l-.241.287zm-2.98-4.841.36-.106-.002-.007-.002-.007-.356.119zm1.72-10.355.372-.044-.069-.59-.503.316.2.317zm.725 4.989.36-.106-.001-.003-.359.109zm1.489 3.104-.304.219.001.001.001.001.302-.222zm1.382 2.861-.36.105.001.004.001.004.358-.113zm.713 4.967.104.36.312-.09-.045-.322-.371.052zm.591-.248-.372.046.747-.046h-.375zm-.738-5.053-.36.107.001.002.001.002.358-.111zm-1.504-3.118zm-1.37-2.856.36-.105-.001-.004-.001-.004-.358.113zm-.704-4.911-.101-.361-.315.088.044.324.372-.05zM10.083 20l-.358.112.001.003.001.003.356-.119zM8.357 30.35l-.199-.318-.176.11v.208h.375zm1.511-.373-.305-.218-.203.284.268.223.24-.288zm.506-.843.374.025-.709-.194.335.168zm-.122 1.112-.187.325.475.274.083-.543-.371-.056zm7.027-6.039-.356-.117-.002.006.358.111zm-6.445 6.295-.371-.057-.051.333.326.086.096-.363zm.838-5.488.358.113.001-.004.001-.004-.36-.106zm1.492-3.178.308.214-.308-.214zm1.601-3.412-.358-.113-.001.003-.001.003.36.106zm.85-5.51.202-.316-.496-.317-.078.583.372.05zm-3.513-7.526L8.464.161l-.616.428 3.638 5.227.616-.428zM7.848.161 4.21 5.388l.616.428L8.464.589 7.848.161zM4.76 5.315.617 1.83l-.483.574 4.143 3.485.483-.574zM.009 2.199l1.566 7.008.732-.164L.741 2.035l-.732.164zm14.728 7.008 1.566-7.008-.732-.164-1.566 7.008.732.164zm.959-7.377-4.143 3.485.483.574 4.143-3.485-.483-.574zm3.192 15.18c-.583-3.653-2.321-5.607-4.474-5.694-2.102-.085-4.304 1.641-5.766 4.656l.675.327c1.409-2.907 3.401-4.302 5.061-4.234 1.61.066 3.202 1.539 3.764 5.063l.741-.118zm-9.59-1.082c-.697-1.052-1.642-1.925-2.664-2.424-1.024-.5-2.158-.638-3.183-.147l.324.676c.761-.364 1.647-.287 2.53.144.884.432 1.733 1.206 2.368 2.165l.625-.414zm-5.763-2.599a.48.48 0 0 0-.204.099l.476.579a.278.278 0 0 1-.117.056l-.155-.734zm-.121.047C1.607 14.197.623 16.248.247 18.51c-.379 2.281-.163 4.891.543 7.005l.711-.238c-.667-1.998-.873-4.484-.514-6.644.362-2.178 1.276-3.911 2.737-4.575l-.31-.683zM.786 25.502c.664 2.254 1.976 4.368 3.56 5.542.795.589 1.679.956 2.594.956.923 0 1.833-.372 2.668-1.176l-.52-.541c-.716.688-1.445.966-2.148.966-.711 0-1.442-.285-2.148-.808-1.419-1.051-2.656-3.008-3.287-5.151l-.719.212zm8.308 5.327c.844.781 1.791 1.107 2.759 1.033.956-.073 1.892-.532 2.74-1.242l-.482-.575c-.768.644-1.561 1.012-2.315 1.07-.743.057-1.489-.184-2.193-.836l-.509.55zm5.491-.203c1.571-1.249 2.837-3.49 3.615-5.968.78-2.486 1.087-5.271.688-7.651l-.74.124c.376 2.239.089 4.903-.663 7.302-.755 2.407-1.96 4.488-3.366 5.606l.467.587zm.062-18.027c-.158 1.085-.169 1.849-.235 2.589-.066.746-.189 1.539-.578 2.775l.716.225c.406-1.29.539-2.137.609-2.934.071-.803.075-1.487.23-2.547l-.742-.108zm-.814 5.372c-.336 1.147-.826 2.188-1.44 3.069l.615.429c.664-.954 1.187-2.07 1.544-3.287l-.72-.211zm-1.441 3.07c-.553.8-1.014 1.707-1.37 2.69l.705.255c.336-.927.769-1.776 1.282-2.52l-.617-.426zm-.642 2.805c-.094-2.637-.796-5.171-2.013-7.228L9.091 17c1.146 1.938 1.819 4.347 1.909 6.873l.749-.027zm-1.999-6.873c.73-1.499 1.63-2.625 2.55-3.305s1.824-.893 2.609-.656l.217-.718c-1.082-.327-2.231.001-3.272.771s-2.01 2.004-2.778 3.579l.674.329zM4.958 29.602c-1.276-1.07-2.286-2.699-2.861-4.659l-.72.211c.609 2.074 1.689 3.84 3.099 5.023l.482-.575zM2.092 24.93c-.575-1.719-.798-3.836-.557-5.717.243-1.897.944-3.461 2.121-4.201l-.399-.635c-1.46.918-2.211 2.76-2.465 4.741-.256 1.995-.021 4.226.589 6.051l.711-.238zm.992-10.192c.213 1.813.001 2.63.739 5.054l.718-.218c-.713-2.343-.481-2.959-.712-4.923l-.745.088zm.738 5.051c.353 1.198.877 2.293 1.544 3.218l.608-.439c-.613-.849-1.101-1.865-1.433-2.991l-.719.212zm1.546 3.22c.568.774 1.02 1.707 1.325 2.745l.72-.211c-.326-1.112-.815-2.126-1.44-2.978l-.605.444zm1.327 2.752c.354 1.122.458 1.842.509 2.523.051.676.051 1.384.19 2.383l.743-.104c-.136-.971-.13-1.597-.185-2.336-.055-.735-.17-1.512-.542-2.692l-.715.226zm.967 4.494c-.912.265-1.874.046-2.703-.652l-.483.574c.998.841 2.216 1.141 3.395.798l-.209-.72zm1.067.066c-.23-1.842-.002-2.688-.752-5.118l-.717.221c.726 2.354.473 2.976.724 4.99l.744-.093zm-.75-5.114c-.357-1.205-.886-2.304-1.561-3.231l-.607.441c.619.851 1.113 1.871 1.448 3.003l.719-.213zm-1.561-3.231c-.563-.775-1.012-1.707-1.313-2.741l-.72.21c.323 1.108.807 2.121 1.426 2.973l.607-.441zm-1.315-2.749c-.351-1.111-.456-1.825-.507-2.498-.051-.666-.05-1.368-.183-2.35l-.743.101c.13.958.123 1.573.178 2.306.055.727.171 1.498.539 2.667l.715-.226zm-.961-4.437c1.145-.319 2.256.133 3.247 1.136.993 1.005 1.817 2.524 2.336 4.185l.716-.224c-.544-1.738-1.418-3.374-2.519-4.488-1.103-1.117-2.481-1.75-3.982-1.331l.202.722zm5.586 5.328c.573 1.719.796 3.837.554 5.719-.244 1.897-.946 3.459-2.123 4.195l.398.636c1.462-.914 2.215-2.756 2.469-4.736.257-1.995.023-4.227-.586-6.052l-.711.237zM7.982 30.35v.017h.75v-.017h-.75zm2.19-.155c.198-.276.378-.575.537-.893l-.67-.336a5.975 5.975 0 0 1-.476.792l.61.437zM10 29.109c-.025.363-.064.724-.118 1.08l.741.113c.057-.377.099-.759.125-1.143L10 29.108zm.44.812a2.378 2.378 0 0 1-.332-.233l-.48.577c.139.116.285.218.437.306l.375-.65zm6.481-5.825c-.55 1.779-1.441 3.483-2.516 4.643-1.078 1.164-2.275 1.718-3.475 1.401l-.192.725c1.586.42 3.051-.356 4.218-1.616 1.171-1.264 2.109-3.077 2.682-4.931l-.717-.221zm-5.716 6.463c.168-1.101.179-1.871.244-2.623.065-.755.187-1.557.581-2.808l-.715-.226c-.412 1.306-.544 2.163-.613 2.97-.07.81-.075 1.504-.238 2.575l.741.113zm.827-5.439c.336-1.147.826-2.188 1.44-3.069l-.616-.428c-.664.954-1.187 2.07-1.544 3.287l.72.211zm1.44-3.07c.71-1.022 1.27-2.218 1.653-3.521l-.72-.211c-.363 1.234-.889 2.355-1.549 3.304l.616.428zm1.651-3.514c.831-2.642.594-3.551.865-5.572l-.743-.099c-.293 2.19-.029 2.879-.837 5.447l.715.225zm.29-5.306c1.272.814 1.979 2.536 2.193 4.618.212 2.064-.075 4.381-.683 6.242l.713.233c.639-1.955.939-4.377.716-6.552-.221-2.156-.97-4.172-2.534-5.173l-.404.632zM1.941 9.5h12.43v-.75H1.941v.75z"/>
    </symbol>
    <symbol id="icon-earth" viewBox="0 0 35 32">
      <path fill="var(--color1, #c4a484)" d="m3.205 11.674 5.697 3.451a3.709 3.709 0 0 0 1.941.554c.455 0 .912-.085 1.349-.259 1.09-.431 1.963-1.362 2.391-2.549.259-.705.856-1.162 1.521-1.162.075 0 .146.007.252.027 1.528.239 3.006-.334 4.069-1.567 1.064-1.232 1.516-2.902 1.24-4.582l-.134-.816c2.278 1.574 4.105 3.936 5.098 6.815.236.684.928 1.025 1.542.765.616-.262.924-1.029.689-1.713C26.667 4.275 21.066 0 14.923 0 6.693 0-.001 7.436-.001 16.577c0 6.741 3.622 12.755 9.227 15.322.149.069.303.101.455.101.469 0 .914-.309 1.104-.821.252-.678-.039-1.452-.648-1.732a12.196 12.196 0 0 1-1.23-.662l.861-2.17a6.952 6.952 0 0 0 .487-2.586 6.93 6.93 0 0 0-.618-2.907c-1.06-2.322-3.343-3.716-5.678-3.465l-1.517.159c-.032-.41-.054-.822-.054-1.24 0-1.727.296-3.375.817-4.903zm11.718-9.022c1.366 0 2.697.257 3.954.727l.441 2.684c.137.833-.087 1.659-.615 2.27-.526.61-1.264.895-1.983.782-1.853-.342-3.64.829-4.349 2.762a1.745 1.745 0 0 1-.979 1.044c-.448.178-.92.135-1.342-.122L4.26 9.291c2.21-3.976 6.156-6.64 10.663-6.64zM4.185 20.298c1.359-.143 2.702.667 3.322 2.025.239.521.359 1.095.359 1.707 0 .532-.096 1.05-.281 1.508l-.691 1.741c-1.928-1.778-3.325-4.161-4.016-6.844l1.306-.137z"/>
      <path fill="var(--color1, #c4a484)" d="M34.578 15.738c-.279-1.104-1.675-.595-1.675-.595l-8.058 4.417.132.255-.986.466-.541-1.87 1.078-2.421c.277-.424-.041-.593-.041-.593l-7.779.087c-.557 0-.199.507-.199.507l1.196 2.507-3.23 10.994c-.118 2.546 2.075 2.507 2.075 2.507h8.296c1.794-.299 1.876-2.338 1.876-2.338l-2.531-8.695 1.11-.524.223.433 8.377-3.439c1.197-.808.678-1.699.678-1.699zm-16.076 2.358c1.33-.013 2.661-.027 3.991-.043.087.005.168.044.228.111s.093.156.093.248-.033.181-.093.248a.328.328 0 0 1-.228.111c-1.329.013-2.66.027-3.991.043-.09 0-.175-.038-.239-.105s-.099-.159-.099-.254.036-.187.099-.254.149-.105.239-.105zm7.14 11.25c.09 0 .175.038.239.105s.099.159.099.254-.036.187-.099.254-.149.105-.239.105c-1.286-.004-2.571-.013-3.861-.017l-6.392-.026c-.087-.005-.168-.044-.228-.111s-.093-.156-.093-.248.033-.181.093-.248.142-.107.228-.111c1.29.009 2.577.014 3.861.017l6.392.026z"/>
    </symbol>
  </defs>
</svg>
