<svg aria-hidden="true" style="position: absolute; width: 0; height: 0; overflow: hidden;" version="1.1" xmlns="http://www.w3.org/2000/svg" xmlns:xlink="http://www.w3.org/1999/xlink">
<defs>
<symbol id="icon-cup" viewBox="0 0 22 32">
<path d="M3.968 9.113l1.054-1.311c0.069-0.085 0.093-0.213 0.064-0.33s-0.109-0.202-0.204-0.219l-1.456-0.27-0.651-1.684c-0.042-0.11-0.13-0.18-0.226-0.18s-0.184 0.070-0.226 0.179l-0.652 1.684-1.455 0.27c-0.095 0.018-0.174 0.103-0.204 0.219s-0.005 0.245 0.064 0.33l1.053 1.311-0.248 1.852c-0.016 0.121 0.023 0.243 0.1 0.315s0.181 0.082 0.266 0.025l1.302-0.874 1.302 0.874c0.037 0.025 0.077 0.037 0.117 0.037 0.052 0 0.104-0.021 0.148-0.061 0.078-0.072 0.117-0.194 0.1-0.315l-0.249-1.851zM3.521 8.769c-0.060 0.074-0.087 0.181-0.073 0.285l0.185 1.375-0.967-0.649c-0.074-0.049-0.161-0.049-0.235 0l-0.967 0.65 0.184-1.375c0.014-0.104-0.013-0.211-0.072-0.285l-0.782-0.974 1.081-0.201c0.082-0.015 0.153-0.081 0.19-0.176l0.484-1.251 0.484 1.251c0.037 0.095 0.108 0.161 0.19 0.176l1.081 0.201-0.782 0.974z"></path>
<path d="M4.9 8.968c-0.136-0.040-0.271 0.072-0.3 0.246s0.056 0.346 0.193 0.384c0.034 0.010 3.455 1.011 4.538 5.144 0.035 0.135 0.134 0.22 0.239 0.22 0.026 0 0.053-0.005 0.080-0.017 0.132-0.057 0.203-0.239 0.159-0.408-1.173-4.477-4.757-5.527-4.908-5.569z"></path>
<path d="M10.522 12.399c-2.508-2.057-1.6-7.631-1.591-7.687 0.029-0.174-0.057-0.345-0.193-0.383-0.135-0.037-0.27 0.073-0.3 0.247-0.010 0.061-0.253 1.52-0.163 3.276 0.122 2.371 0.805 4.131 1.973 5.090 0.042 0.035 0.089 0.051 0.136 0.051 0.083 0 0.164-0.052 0.212-0.148 0.075-0.15 0.041-0.349-0.076-0.445z"></path>
<path d="M7.925 3.861l0.977-0.167 0.661 0.933c0.048 0.069 0.117 0.106 0.187 0.106 0.023 0 0.046-0.004 0.069-0.012 0.092-0.034 0.162-0.131 0.179-0.252l0.178-1.238 0.9-0.516c0.088-0.050 0.145-0.16 0.149-0.282s-0.048-0.237-0.132-0.295l-0.867-0.598-0.106-1.252c-0.010-0.122-0.074-0.226-0.164-0.268s-0.191-0.015-0.261 0.069l-0.714 0.869-0.965-0.259c-0.094-0.026-0.191 0.020-0.25 0.116s-0.070 0.228-0.029 0.338l0.426 1.135-0.49 1.093c-0.048 0.106-0.044 0.238 0.010 0.34s0.148 0.155 0.243 0.139zM8.675 2.163l-0.262-0.699 0.594 0.159c0.081 0.022 0.166-0.009 0.226-0.082l0.44-0.535 0.065 0.772c0.009 0.105 0.058 0.198 0.131 0.249l0.534 0.368-0.555 0.318c-0.076 0.043-0.13 0.131-0.145 0.236l-0.11 0.762-0.407-0.575c-0.048-0.068-0.116-0.106-0.187-0.106-0.011 0-0.022 0.001-0.033 0.003l-0.602 0.103 0.302-0.674c0.041-0.092 0.044-0.204 0.009-0.299z"></path>
<path d="M16.538 4.864c-0.042-0.11-0.13-0.18-0.226-0.181l-0.68-0.004-0.381-0.717c-0.054-0.101-0.148-0.154-0.243-0.138s-0.174 0.101-0.205 0.218l-0.214 0.823-0.653 0.244c-0.092 0.034-0.161 0.133-0.178 0.253s0.022 0.243 0.099 0.316l0.548 0.513-0.021 0.868c-0.003 0.123 0.049 0.237 0.133 0.294 0.037 0.025 0.078 0.038 0.119 0.038 0.052 0 0.103-0.020 0.147-0.060l0.552-0.506 0.639 0.293c0.090 0.041 0.191 0.014 0.26-0.072s0.094-0.213 0.065-0.33l-0.207-0.827 0.417-0.686c0.059-0.097 0.069-0.228 0.027-0.338zM15.573 5.923l0.092 0.367-0.283-0.13c-0.078-0.036-0.165-0.020-0.232 0.041l-0.245 0.224 0.010-0.385c0.003-0.106-0.036-0.207-0.103-0.27l-0.243-0.227 0.289-0.108c0.079-0.030 0.143-0.107 0.169-0.208l0.095-0.364 0.169 0.317c0.047 0.088 0.124 0.141 0.207 0.141l0.301 0.002-0.185 0.304c-0.051 0.084-0.066 0.194-0.041 0.295z"></path>
<path d="M13.474 6.355c-0.044-0.005-1.117-0.106-1.984 0.913-0.695 0.817-1.047 2.095-1.047 3.802 0 0.178 0.113 0.322 0.252 0.322s0.252-0.144 0.252-0.322c0-1.514 0.296-2.631 0.879-3.321 0.701-0.829 1.598-0.752 1.607-0.751 0.141 0.016 0.26-0.117 0.271-0.294s-0.092-0.333-0.23-0.348z"></path>
<path d="M3.676 30.294c-0.12 0-0.234 0.060-0.319 0.166s-0.132 0.251-0.132 0.402 0.047 0.295 0.132 0.402c0.085 0.107 0.199 0.166 0.319 0.166h3.351c0 0.151 0.048 0.295 0.132 0.402s0.199 0.166 0.319 0.166h6.759c0.060 0.003 0.121-0.010 0.177-0.037s0.108-0.069 0.152-0.122c0.044-0.053 0.078-0.117 0.102-0.187s0.036-0.146 0.036-0.222h3.296c0.12 0 0.234-0.060 0.319-0.166s0.132-0.251 0.132-0.402-0.047-0.295-0.132-0.402c-0.084-0.107-0.199-0.166-0.319-0.166h-14.323z"></path>
<path d="M21.53 17.982c-0.16-0.426-0.395-0.804-0.689-1.107s-0.64-0.521-1.012-0.641c-0.509-0.137-1.040-0.097-1.531 0.116v-0.922h-14.398v9.314c0 1.603 0.75 4.64 3.57 4.64h7.251c2.776 0 3.57-3.028 3.57-4.64v-1.144c0.414 0.032 0.828-0.025 1.226-0.169 0.657-0.239 1.24-0.711 1.674-1.357 0.392-0.559 0.634-1.249 0.695-1.98s-0.063-1.467-0.354-2.11zM17.108 16.876v6.818h-12.018v-6.818h12.018zM14.728 27.934h-7.251c-1.587 0-2.122-1.376-2.301-2.332h11.828c-0.186 0.951-0.73 2.332-2.285 2.332h0.008zM19.98 20.855c-0.206 0.291-0.466 0.517-0.759 0.661s-0.609 0.2-0.923 0.165v-3.221c0.339-0.29 0.755-0.417 1.166-0.357 0.099 0.029 0.397 0.116 0.67 0.768 0.147 0.309 0.211 0.667 0.183 1.022s-0.146 0.692-0.338 0.962z"></path>
<path d="M17.616 24.68v-8.573h-0.283v8.573h0.283zM3.968 9.113l-0.221-0.177-0.076 0.095 0.016 0.12 0.281-0.038zM5.022 7.801l-0.221-0.178-0 0 0.221 0.177zM5.086 7.471l0.275-0.070-0-0-0.274 0.070zM4.882 7.252l-0.052 0.278 0 0 0.052-0.278zM3.426 6.981l-0.264 0.102 0.057 0.147 0.155 0.029 0.052-0.278zM2.775 5.298l-0.264 0.102 0 0 0.264-0.102zM2.323 5.297v0zM1.671 6.981l0.052 0.278 0.155-0.029 0.057-0.147-0.264-0.102zM0.216 7.252l0.052 0.278 0-0-0.052-0.278zM0.012 7.471v0zM0.076 7.801l-0.221 0.177 0 0 0.221-0.177zM1.129 9.113l0.281 0.038 0.016-0.12-0.076-0.095-0.221 0.177zM0.881 10.964v0zM0.981 11.279l-0.193 0.207 0 0 0.193-0.208zM1.247 11.304l-0.158-0.235-0 0 0.158 0.235zM2.549 10.43l0.158-0.235-0.158-0.106-0.158 0.106 0.158 0.235zM3.851 11.304l-0.158 0.235 0.001 0 0.157-0.236zM4.117 11.279l0.192 0.208 0.001-0.001-0.193-0.207zM4.217 10.964l0.281-0.037-0-0-0.281 0.038zM3.521 8.769v0zM3.449 9.055v0zM3.633 10.43l-0.158 0.235 0.522 0.351-0.084-0.623-0.281 0.038zM2.666 9.78l0.158-0.235-0.001-0-0.157 0.235zM2.432 9.78l-0.158-0.235-0 0 0.158 0.235zM1.464 10.43l-0.281-0.038-0.083 0.623 0.522-0.351-0.158-0.235zM1.649 9.055v0zM1.576 8.77l0.221-0.177-0-0-0.221 0.177zM0.794 7.796l-0.052-0.278-0.466 0.087 0.296 0.369 0.221-0.177zM1.875 7.595v0zM2.065 7.419v0zM2.549 6.167l0.264-0.102-0.264-0.683-0.264 0.683 0.264 0.102zM3.033 7.419l0.264-0.102-0-0-0.264 0.102zM3.223 7.595l-0.052 0.278h0l0.052-0.278zM4.304 7.795l0.221 0.177 0.297-0.369-0.466-0.087-0.052 0.278zM4.9 8.968l-0.080 0.272 0.002 0.001 0.002 0.001 0.076-0.273zM4.792 9.598l0.076-0.273-0-0-0.076 0.273zM9.33 14.742v0zM9.649 14.945l0.111 0.26 0-0-0.112-0.26zM9.808 14.538v0zM10.522 12.399l-0.18 0.219 0 0 0.179-0.219zM8.931 4.712l-0.279-0.047-0 0 0.279 0.047zM8.738 4.329l0.075-0.273-0.001-0-0.075 0.273zM8.438 4.576v0zM8.276 7.851v0zM10.249 12.941l-0.18 0.219 0 0 0.179-0.219zM10.598 12.844l-0.253-0.127-0 0 0.253 0.127zM7.925 3.861l0.047 0.279 0.001-0-0.048-0.279zM8.902 3.694l0.231-0.164-0.103-0.146-0.176 0.030 0.048 0.279zM9.563 4.627v0zM9.819 4.721l0.095 0.267 0.002-0.001-0.097-0.266zM9.998 4.469v0zM10.176 3.231l-0.141-0.246-0.12 0.069-0.020 0.137 0.28 0.040zM11.076 2.715v0zM11.225 2.433v0zM11.092 2.138v0zM10.225 1.54l-0.282 0.024 0.011 0.133 0.11 0.076 0.161-0.233zM10.119 0.288l0.282-0.024v-0l-0.282 0.024zM9.955 0.020l-0.121 0.256 0.001 0 0.12-0.256zM9.694 0.089l0.219 0.18 0-0-0.219-0.18zM8.981 0.958l-0.073 0.274 0.176 0.047 0.116-0.141-0.219-0.18zM8.016 0.699l-0.075 0.273 0.002 0 0.073-0.274zM7.766 0.816l0.241 0.148 0-0-0.241-0.148zM7.737 1.154v0zM8.163 2.289l0.258 0.116 0.048-0.106-0.041-0.109-0.265 0.099zM7.673 3.382v0zM7.682 3.722l-0.251 0.131 0 0.001 0.25-0.132zM8.675 2.163v0zM8.412 1.464l0.073-0.274-0.532-0.143 0.194 0.516 0.265-0.1zM9.007 1.623l-0.073 0.274 0 0 0.073-0.274zM9.233 1.541l0.218 0.18 0.001-0.001-0.219-0.18zM9.673 1.006l0.282-0.024-0.059-0.694-0.442 0.538 0.219 0.18zM9.738 1.778v0zM9.869 2.026l-0.161 0.233 0 0 0.161-0.233zM10.403 2.395l0.141 0.246 0.39-0.224-0.37-0.255-0.161 0.233zM9.848 2.713v0zM9.703 2.949v0zM9.594 3.71l-0.231 0.164 0.41 0.58 0.101-0.703-0.28-0.040zM9.187 3.136l-0.231 0.163 0 0 0.231-0.164zM8.967 3.033l0.048 0.279 0.001-0-0.049-0.279zM8.364 3.136l-0.258-0.116-0.217 0.485 0.523-0.090-0.048-0.279zM8.666 2.462l0.258 0.116 0-0-0.259-0.115zM16.538 4.864v0zM16.312 4.683l0.002-0.283h-0l-0.002 0.283zM15.633 4.679l-0.25 0.133 0.079 0.149 0.169 0.001 0.002-0.283zM15.251 3.962v0zM15.008 3.824l-0.047-0.279-0.002 0 0.050 0.279zM14.803 4.042v0zM14.589 4.865l0.099 0.265 0.138-0.052 0.037-0.143-0.274-0.071zM13.937 5.109l0.099 0.265 0-0-0.099-0.265zM13.858 5.678v0zM14.406 6.19l0.283 0.007 0.003-0.127-0.093-0.087-0.194 0.207zM14.385 7.058l0.283 0.007v-0l-0.283-0.007zM14.518 7.353l-0.159 0.234 0 0 0.159-0.234zM14.784 7.33l0.191 0.209 0-0-0.191-0.209zM15.336 6.825l0.118-0.257-0.171-0.078-0.138 0.127 0.191 0.209zM15.975 7.118l0.118-0.257-0-0-0.118 0.257zM16.236 7.046v0zM16.301 6.716v0zM16.094 5.889l-0.242-0.147-0.061 0.101 0.029 0.115 0.275-0.069zM16.511 5.203l0.242 0.147 0-0.001-0.242-0.146zM15.573 5.923v0zM15.664 6.291l-0.118 0.257 0.536 0.245-0.143-0.572-0.275 0.069zM15.382 6.161l-0.118 0.257 0 0 0.118-0.257zM15.15 6.203l0.191 0.209 0-0-0.191-0.209zM14.905 6.426l-0.283-0.007-0.017 0.665 0.491-0.449-0.191-0.209zM14.915 6.041v0zM14.812 5.771v0zM14.569 5.544l-0.099-0.265-0.428 0.16 0.333 0.312 0.194-0.207zM14.858 5.436l-0.099-0.265-0 0 0.099 0.265zM15.027 5.228v0zM15.121 4.864l0.25-0.133-0.341-0.642-0.183 0.704 0.274 0.071zM15.29 5.181v0zM15.497 5.322l0.002-0.283h-0l-0.001 0.283zM15.798 5.324l0.242 0.147 0.259-0.427-0.5-0.003-0.002 0.283zM15.614 5.628l-0.242-0.147-0 0 0.242 0.147zM13.474 6.355l-0.031 0.281 0.001 0 0.001 0 0.030-0.282zM11.49 7.268v0zM11.826 7.748v0zM13.433 6.997l0.031-0.281-0.009-0.001-0.009-0-0.013 0.283zM13.705 6.703v0zM17.475 24.68v0zM4.5 16.107v-0.283h-0.283v0.283h0.283zM4.5 24.68v0zM12.825 28.589l-0.283-0-0 0.283h0.283v-0.283zM12.829 16.107v-0.283h-0.283l-0 0.283 0.283 0zM3.676 31.431v0zM7.026 31.431h0.283v-0.283h-0.283v0.283zM7.477 32v0zM14.236 32l0.012-0.283-0.006-0h-0.006v0.283zM14.703 31.431v-0.283h-0.283l0 0.283 0.283-0zM17.999 31.431v0zM18.45 30.863v0zM17.999 30.294v0zM21.53 17.982l-0.265 0.099 0.003 0.009 0.004 0.009 0.258-0.117zM19.829 16.234l0.087-0.27-0.006-0.002-0.007-0.002-0.074 0.273zM18.298 16.35h-0.283v0.431l0.396-0.172-0.113-0.26zM18.298 15.428h0.283v-0.283h-0.283v0.283zM3.9 15.428v-0.283h-0.283v0.283h0.283zM18.29 23.598l0.022-0.282-0.305-0.024v0.306h0.283zM19.515 23.429l0.096 0.266 0-0-0.097-0.266zM21.189 22.072l-0.232-0.163-0.002 0.002-0.002 0.002 0.235 0.158zM17.108 16.876h0.283v-0.283h-0.283v0.283zM17.108 23.694v0.283h0.283v-0.283h-0.283zM5.090 23.694h-0.283v0.283h0.283v-0.283zM5.090 16.876v-0.283h-0.283v0.283h0.283zM5.177 25.602v-0.283h-0.341l0.063 0.335 0.278-0.052zM17.005 25.602l0.278 0.054 0.066-0.338h-0.344v0.283zM19.98 20.855v0zM18.298 21.681h-0.283v0.253l0.252 0.028 0.031-0.281zM18.298 18.46l-0.184-0.215-0.099 0.085v0.131h0.283zM19.464 18.103l0.079-0.272-0.019-0.006-0.020-0.003-0.041 0.28zM20.134 18.87l-0.261 0.11 0.003 0.006 0.003 0.006 0.256-0.122zM4.189 9.29l1.054-1.311-0.441-0.355-1.054 1.311 0.442 0.355zM5.243 7.979c0.131-0.162 0.167-0.384 0.118-0.577l-0.549 0.139c0.010 0.041-0.003 0.075-0.010 0.083l0.441 0.355zM5.36 7.401c-0.049-0.191-0.194-0.385-0.426-0.428l-0.103 0.557c-0.020-0.004-0.030-0.013-0.030-0.013s0.001 0.002 0.004 0.006c0.002 0.004 0.005 0.010 0.007 0.018l0.549-0.14zM4.934 6.973l-1.456-0.27-0.103 0.557 1.456 0.27 0.103-0.557zM3.691 6.879l-0.651-1.684-0.528 0.204 0.651 1.684 0.528-0.204zM3.039 5.196c-0.072-0.188-0.247-0.361-0.49-0.361v0.566c-0.023 0-0.038-0.009-0.043-0.013s-0-0.002 0.005 0.011l0.528-0.204zM2.549 4.835c-0.243 0-0.418 0.173-0.49 0.36l0.528 0.205c0.005-0.013 0.009-0.015 0.005-0.011s-0.020 0.013-0.043 0.013v-0.566zM2.059 5.195l-0.652 1.684 0.528 0.204 0.652-1.684-0.528-0.204zM1.619 6.703l-1.455 0.27 0.103 0.557 1.455-0.27-0.103-0.557zM0.165 6.973c-0.233 0.043-0.378 0.236-0.427 0.428l0.549 0.14c0.002-0.008 0.005-0.014 0.007-0.018s0.004-0.006 0.004-0.006c-0 0-0.009 0.009-0.030 0.013l-0.103-0.557zM-0.262 7.401c-0.049 0.193-0.013 0.415 0.117 0.577l0.442-0.354c-0.007-0.009-0.020-0.044-0.010-0.084l-0.549-0.14zM-0.145 7.979l1.053 1.311 0.442-0.355-1.053-1.311-0.442 0.355zM0.848 9.075l-0.248 1.852 0.561 0.075 0.248-1.852-0.561-0.075zM0.6 10.927c-0.026 0.196 0.032 0.415 0.188 0.56l0.385-0.415c0.002 0.002-0.003-0.003-0.008-0.018s-0.007-0.033-0.004-0.052l-0.561-0.075zM0.789 11.487c0.169 0.156 0.416 0.186 0.616 0.052l-0.317-0.47c0.009-0.006 0.027-0.013 0.049-0.011s0.034 0.011 0.036 0.014l-0.385 0.415zM1.405 11.539l1.302-0.874-0.316-0.47-1.302 0.874 0.316 0.47zM2.391 10.665l1.302 0.874 0.316-0.47-1.302-0.874-0.316 0.47zM3.694 11.539c0.081 0.054 0.175 0.085 0.275 0.085v-0.566c0.019 0 0.033 0.006 0.040 0.011l-0.314 0.471zM3.968 11.624c0.13 0 0.249-0.052 0.34-0.136l-0.384-0.417c0.001-0.001 0.005-0.005 0.013-0.008s0.018-0.006 0.030-0.006v0.566zM4.309 11.487c0.156-0.145 0.215-0.364 0.188-0.56l-0.561 0.075c0.003 0.019 0.001 0.038-0.004 0.053s-0.010 0.019-0.008 0.018l0.385 0.415zM4.498 10.926l-0.249-1.851-0.561 0.075 0.249 1.851 0.561-0.075zM3.301 8.592c-0.114 0.142-0.155 0.328-0.133 0.5l0.561-0.075c-0.005-0.037 0.007-0.064 0.013-0.070l-0.442-0.355zM3.168 9.092l0.185 1.375 0.561-0.075-0.185-1.375-0.561 0.075zM3.791 10.194l-0.967-0.649-0.316 0.47 0.967 0.649 0.316-0.47zM2.824 9.545c-0.169-0.113-0.381-0.113-0.55 0l0.315 0.471c-0.007 0.005-0.021 0.011-0.040 0.011s-0.033-0.006-0.040-0.011l0.315-0.471zM2.274 9.545l-0.967 0.65 0.316 0.47 0.967-0.65-0.316-0.47zM1.745 10.468l0.184-1.375-0.561-0.075-0.184 1.375 0.561 0.075zM1.929 9.092c0.023-0.172-0.019-0.358-0.132-0.5l-0.442 0.354c0.005 0.007 0.018 0.033 0.013 0.070l0.561 0.075zM1.797 8.592l-0.782-0.974-0.442 0.355 0.782 0.974 0.442-0.355zM0.846 8.074l1.081-0.201-0.103-0.557-1.081 0.201 0.103 0.557zM1.926 7.873c0.201-0.037 0.339-0.189 0.402-0.352l-0.528-0.204c-0.004 0.011-0.008 0.014-0.006 0.013s0.012-0.009 0.029-0.013l0.103 0.557zM2.329 7.521l0.484-1.251-0.528-0.204-0.484 1.251 0.528 0.204zM2.285 6.269l0.484 1.251 0.528-0.204-0.484-1.251-0.528 0.204zM2.769 7.52c0.063 0.164 0.202 0.315 0.402 0.353l0.103-0.557c0.017 0.003 0.027 0.011 0.029 0.013s-0.002-0.001-0.006-0.012l-0.528 0.204zM3.171 7.873l1.081 0.201 0.103-0.557-1.081-0.201-0.103 0.557zM4.083 7.618l-0.782 0.974 0.442 0.355 0.782-0.974-0.442-0.355zM4.979 8.697c-0.17-0.050-0.333-0-0.449 0.096-0.114 0.093-0.185 0.229-0.21 0.374l0.558 0.096c0.005-0.029 0.016-0.036 0.011-0.032-0.003 0.002-0.011 0.008-0.025 0.011s-0.031 0.003-0.045-0.001l0.159-0.543zM4.32 9.166c-0.045 0.265 0.074 0.614 0.396 0.704l0.152-0.546c0.026 0.007 0.026 0.021 0.018 0.005-0.007-0.014-0.013-0.040-0.008-0.068l-0.558-0.096zM4.716 9.87c-0.006-0.002 0.821 0.238 1.779 0.977 0.954 0.737 2.038 1.97 2.561 3.966l0.548-0.143c-1.122-4.281-4.668-5.326-4.735-5.345l-0.153 0.545zM9.056 14.814c0.058 0.222 0.244 0.431 0.513 0.431v-0.566c0.026 0 0.040 0.011 0.044 0.014s-0.004-0.002-0.009-0.022l-0.548 0.143zM9.569 15.245c0.064 0 0.129-0.013 0.192-0.039l-0.223-0.521c0.010-0.004 0.021-0.006 0.032-0.006v0.566zM9.761 15.205c0.297-0.127 0.39-0.477 0.322-0.74l-0.548 0.144c0.007 0.025 0.004 0.052-0.003 0.071-0.008 0.020-0.013 0.013 0.006 0.005l0.223 0.521zM10.082 14.466c-1.211-4.623-4.919-5.718-5.106-5.77l-0.152 0.546c0.116 0.032 3.576 1.037 4.71 5.368l0.548-0.143zM10.701 12.18c-0.572-0.469-0.961-1.149-1.218-1.931s-0.376-1.645-0.418-2.459c-0.042-0.813-0.007-1.566 0.040-2.119 0.023-0.277 0.049-0.503 0.070-0.661 0.010-0.079 0.019-0.141 0.025-0.184 0.003-0.021 0.006-0.038 0.008-0.049 0.001-0.006 0.002-0.010 0.002-0.013s0.001-0.005 0.001-0.005l-0.559-0.094c-0.006 0.037-0.239 1.468-0.152 3.155 0.043 0.844 0.167 1.762 0.445 2.607s0.715 1.632 1.397 2.192l0.359-0.438zM9.21 4.759c0.045-0.265-0.075-0.614-0.397-0.703l-0.151 0.546c-0.026-0.007-0.027-0.021-0.019-0.005 0.007 0.014 0.013 0.039 0.008 0.068l0.558 0.094zM8.813 4.056c-0.357-0.098-0.608 0.202-0.654 0.472l0.558 0.095c0.005-0.028 0.015-0.034 0.011-0.031-0.003 0.002-0.010 0.007-0.023 0.010s-0.029 0.003-0.042-0.001l0.15-0.546zM8.159 4.528c-0.012 0.070-0.258 1.552-0.166 3.338l0.566-0.029c-0.089-1.726 0.15-3.162 0.159-3.213l-0.558-0.095zM7.993 7.866c0.124 2.406 0.819 4.262 2.077 5.294l0.359-0.438c-1.079-0.886-1.75-2.55-1.87-4.886l-0.566 0.029zM10.070 13.16c0.090 0.073 0.199 0.115 0.316 0.115v-0.566c0.010 0 0.020 0.002 0.028 0.005s0.013 0.007 0.015 0.008l-0.359 0.438zM10.385 13.276c0.209 0 0.379-0.131 0.465-0.304l-0.506-0.254c-0.005 0.009-0.006 0.008 0 0.003s0.021-0.011 0.040-0.011v0.566zM10.851 12.972c0.126-0.25 0.085-0.599-0.15-0.791l-0.358 0.438c-0.005-0.004 0.006 0.003 0.010 0.031 0.005 0.027-0 0.052-0.008 0.068l0.506 0.255zM7.973 4.141l0.977-0.168-0.096-0.558-0.977 0.167 0.096 0.558zM8.671 3.857l0.661 0.933 0.462-0.327-0.661-0.933-0.462 0.327zM9.331 4.79c0.093 0.131 0.242 0.226 0.418 0.226v-0.566c0.016 0 0.029 0.005 0.037 0.009s0.009 0.008 0.007 0.005l-0.463 0.327zM9.75 5.016c0.057 0 0.112-0.010 0.164-0.029l-0.19-0.533c0.006-0.002 0.015-0.004 0.026-0.004v0.566zM9.915 4.987c0.216-0.078 0.335-0.283 0.363-0.478l-0.561-0.080c-0.003 0.019-0.009 0.030-0.012 0.035s0.001-0.003 0.017-0.009l0.193 0.532zM10.278 4.509l0.178-1.238-0.561-0.081-0.178 1.238 0.561 0.081zM10.316 3.477l0.9-0.516-0.282-0.491-0.9 0.516 0.282 0.491zM11.217 2.961c0.192-0.11 0.285-0.323 0.291-0.519l-0.566-0.016c-0.001 0.020-0.006 0.035-0.010 0.044s-0.006 0.006 0.004 0l0.282 0.491zM11.508 2.441c0.006-0.197-0.075-0.413-0.255-0.537l-0.322 0.466c-0.007-0.005-0.004-0.005 0.001 0.006s0.009 0.028 0.008 0.048l0.566 0.016zM11.253 1.905l-0.867-0.598-0.321 0.466 0.867 0.598 0.322-0.466zM10.507 1.516l-0.106-1.252-0.564 0.048 0.106 1.252 0.564-0.048zM10.402 0.264c-0.017-0.195-0.122-0.405-0.326-0.5l-0.24 0.513c-0.013-0.006-0.014-0.011-0.009-0.004s0.010 0.020 0.012 0.040l0.564-0.048zM10.076-0.236c-0.224-0.106-0.461-0.024-0.6 0.146l0.438 0.359c0.002-0.002-0.005 0.007-0.023 0.012-0.020 0.005-0.041 0.003-0.056-0.004l0.241-0.512zM9.476-0.091l-0.714 0.869 0.438 0.36 0.714-0.869-0.438-0.36zM9.054 0.684l-0.965-0.259-0.147 0.547 0.965 0.259 0.147-0.547zM8.091 0.426c-0.242-0.066-0.457 0.063-0.567 0.241l0.483 0.296c0.004-0.007 0.003-0.001-0.009 0.004-0.014 0.007-0.035 0.010-0.057 0.004l0.15-0.546zM7.524 0.667c-0.108 0.175-0.123 0.398-0.053 0.586l0.53-0.199c-0.012-0.033-0.006-0.072 0.005-0.090l-0.482-0.297zM7.471 1.253l0.426 1.135 0.53-0.199-0.426-1.135-0.53 0.199zM7.904 2.173l-0.49 1.093 0.517 0.232 0.49-1.093-0.517-0.232zM7.414 3.266c-0.083 0.185-0.077 0.408 0.017 0.587l0.502-0.263c-0.013-0.024-0.015-0.065-0.002-0.092l-0.517-0.232zM7.432 3.854c0.097 0.184 0.298 0.327 0.54 0.286l-0.094-0.559c0.022-0.004 0.040 0.002 0.051 0.008 0.010 0.005 0.008 0.009 0.004 0l-0.501 0.264zM8.94 2.063l-0.262-0.699-0.53 0.199 0.262 0.699 0.53-0.199zM8.339 1.737l0.594 0.159 0.147-0.547-0.594-0.159-0.147 0.547zM8.934 1.897c0.205 0.055 0.398-0.031 0.517-0.175l-0.437-0.361c-0.001 0.002 0.003-0.004 0.016-0.009s0.032-0.006 0.049-0.002l-0.146 0.547zM9.452 1.721l0.44-0.535-0.438-0.36-0.44 0.535 0.438 0.36zM9.39 1.030l0.065 0.772 0.564-0.048-0.065-0.772-0.564 0.048zM9.456 1.801c0.015 0.172 0.096 0.35 0.252 0.458l0.322-0.466c0.006 0.004 0.004 0.005 0-0.003s-0.008-0.020-0.010-0.037l-0.564 0.048zM9.708 2.26l0.534 0.368 0.321-0.466-0.534-0.368-0.321 0.466zM10.262 2.149l-0.555 0.318 0.282 0.491 0.555-0.318-0.282-0.491zM9.707 2.467c-0.167 0.096-0.26 0.27-0.284 0.441l0.561 0.081c0.002-0.016 0.007-0.027 0.011-0.033s0.003-0.003-0.005 0.002l-0.282-0.491zM9.423 2.908l-0.109 0.762 0.561 0.081 0.109-0.762-0.561-0.081zM9.825 3.547l-0.407-0.575-0.462 0.327 0.407 0.575 0.462-0.327zM9.419 2.973c-0.092-0.13-0.241-0.226-0.418-0.226v0.566c-0.016 0-0.029-0.005-0.037-0.009s-0.009-0.008-0.007-0.005l0.463-0.327zM9 2.747c-0.026 0-0.053 0.002-0.082 0.007l0.097 0.558c-0.007 0.001-0.012 0.001-0.015 0.001v-0.566zM8.919 2.753l-0.603 0.103 0.096 0.558 0.602-0.103-0.096-0.558zM8.623 3.252l0.302-0.674-0.517-0.232-0.302 0.674 0.517 0.232zM8.925 2.578c0.072-0.16 0.077-0.35 0.015-0.514l-0.53 0.199c0.010 0.026 0.008 0.061-0.002 0.084l0.517 0.231zM16.802 4.763c-0.072-0.188-0.245-0.362-0.488-0.363l-0.004 0.566c-0.023-0-0.038-0.009-0.042-0.013s0-0.002 0.005 0.012l0.529-0.202zM16.314 4.4l-0.68-0.004-0.004 0.566 0.68 0.004 0.004-0.566zM15.883 4.546l-0.381-0.717-0.5 0.266 0.381 0.717 0.5-0.266zM15.501 3.829c-0.098-0.184-0.3-0.325-0.541-0.284l0.095 0.558c-0.020 0.003-0.039-0.002-0.049-0.008-0.010-0.006-0.009-0.009-0.004-0l0.5-0.266zM14.958 3.545c-0.233 0.042-0.379 0.234-0.429 0.425l0.548 0.143c0.004-0.017 0.010-0.024 0.010-0.024s-0.010 0.010-0.030 0.013l-0.1-0.558zM14.529 3.97l-0.214 0.823 0.548 0.142 0.214-0.823-0.548-0.142zM14.49 4.6l-0.653 0.244 0.198 0.531 0.653-0.244-0.198-0.531zM13.838 4.843c-0.215 0.080-0.332 0.285-0.359 0.48l0.561 0.077c0.003-0.019 0.009-0.031 0.012-0.035s0 0.003-0.016 0.008l-0.198-0.531zM13.479 5.323c-0.027 0.196 0.031 0.416 0.186 0.561l0.387-0.414c0.002 0.002-0.004-0.003-0.008-0.018s-0.007-0.033-0.004-0.052l-0.561-0.077zM13.665 5.884l0.548 0.513 0.387-0.414-0.548-0.513-0.387 0.414zM14.123 6.183l-0.021 0.868 0.566 0.014 0.021-0.868-0.566-0.014zM14.102 7.051c-0.005 0.197 0.076 0.413 0.257 0.536l0.319-0.468c0.007 0.005 0.004 0.005-0.001-0.006s-0.009-0.027-0.008-0.047l-0.566-0.015zM14.359 7.587c0.081 0.055 0.177 0.087 0.278 0.087v-0.566c0.020 0 0.034 0.007 0.040 0.011l-0.318 0.469zM14.637 7.674c0.129 0 0.247-0.051 0.338-0.134l-0.382-0.418c0.001-0.001 0.006-0.005 0.014-0.008s0.018-0.006 0.030-0.006v0.566zM14.975 7.539l0.552-0.506-0.383-0.418-0.552 0.506 0.383 0.418zM15.218 7.082l0.639 0.293 0.236-0.515-0.639-0.293-0.236 0.515zM15.857 7.375c0.224 0.103 0.46 0.021 0.599-0.151l-0.44-0.357c-0.001 0.002 0.005-0.007 0.023-0.011 0.019-0.005 0.040-0.003 0.055 0.004l-0.237 0.515zM16.455 7.224c0.131-0.162 0.168-0.383 0.12-0.577l-0.549 0.138c0.010 0.040-0.003 0.074-0.010 0.083l0.44 0.357zM16.575 6.648l-0.207-0.827-0.549 0.137 0.207 0.827 0.549-0.137zM16.336 6.036l0.417-0.686-0.484-0.294-0.417 0.686 0.484 0.294zM16.753 5.349c0.106-0.175 0.121-0.397 0.049-0.586l-0.529 0.202c0.012 0.033 0.006 0.072-0.005 0.091l0.485 0.293zM15.298 5.992l0.092 0.367 0.549-0.137-0.092-0.367-0.549 0.137zM15.782 6.033l-0.283-0.13-0.236 0.515 0.283 0.13 0.236-0.515zM15.5 5.904c-0.19-0.087-0.398-0.042-0.542 0.090l0.383 0.417c-0.003 0.002-0.012 0.010-0.030 0.013s-0.035 0-0.048-0.006l0.237-0.515zM14.958 5.994l-0.244 0.224 0.382 0.418 0.244-0.224-0.382-0.418zM15.188 6.433l0.010-0.385-0.566-0.014-0.010 0.385 0.566 0.014zM15.198 6.048c0.004-0.174-0.057-0.357-0.192-0.484l-0.387 0.413c-0.002-0.002 0.002 0.002 0.007 0.013s0.007 0.026 0.007 0.043l0.566 0.014zM15.005 5.564l-0.243-0.227-0.387 0.413 0.243 0.227 0.387-0.413zM14.668 5.809l0.289-0.108-0.198-0.53-0.289 0.108 0.198 0.53zM14.957 5.701c0.186-0.069 0.3-0.235 0.344-0.402l-0.548-0.142c-0.004 0.014-0.009 0.021-0.010 0.023s0.003-0.004 0.017-0.010l0.198 0.531zM15.301 5.299l0.095-0.364-0.548-0.142-0.095 0.364 0.548 0.142zM14.871 4.997l0.169 0.317 0.5-0.266-0.169-0.317-0.5 0.266zM15.040 5.314c0.084 0.158 0.246 0.29 0.456 0.291l0.003-0.566c0.020 0 0.034 0.007 0.041 0.011s0.005 0.006 0.001-0.002l-0.5 0.266zM15.495 5.605l0.301 0.002 0.004-0.566-0.301-0.002-0.004 0.566zM15.556 5.177l-0.185 0.304 0.484 0.294 0.185-0.304-0.484-0.294zM15.371 5.481c-0.093 0.153-0.116 0.342-0.073 0.511l0.549-0.137c-0.008-0.033-0.001-0.065 0.008-0.080l-0.484-0.294zM13.505 6.073c-0.082-0.009-1.275-0.114-2.231 1.011l0.431 0.367c0.39-0.459 0.822-0.661 1.158-0.75 0.339-0.090 0.582-0.065 0.58-0.065l0.063-0.563zM11.274 7.084c-0.758 0.89-1.114 2.249-1.114 3.985h0.566c0-1.677 0.348-2.876 0.979-3.618l-0.431-0.367zM10.16 11.069c0 0.266 0.179 0.605 0.536 0.605v-0.566c0.015 0 0.028 0.004 0.036 0.009s0.010 0.007 0.008 0.005c-0.004-0.005-0.014-0.023-0.014-0.053h-0.566zM10.695 11.675c0.356 0 0.535-0.34 0.535-0.605h-0.566c0 0.031-0.010 0.049-0.014 0.053-0.002 0.002 0-0.001 0.008-0.006s0.021-0.009 0.037-0.009v0.566zM11.231 11.069c0-1.489 0.293-2.524 0.812-3.138l-0.433-0.366c-0.647 0.766-0.945 1.965-0.945 3.504h0.566zM12.042 7.931c0.306-0.363 0.652-0.524 0.92-0.596 0.135-0.036 0.25-0.050 0.331-0.055 0.079-0.005 0.122-0.001 0.127-0l0.026-0.566c0 0-0.072-0.006-0.186 0.001-0.112 0.007-0.267 0.025-0.445 0.073-0.358 0.096-0.811 0.311-1.206 0.777l0.433 0.365zM13.402 7.278c0.369 0.041 0.568-0.296 0.585-0.557l-0.565-0.037c-0.001 0.015-0.004 0.027-0.008 0.035s-0.007 0.012-0.006 0.012c0-0 0.005-0.005 0.016-0.010s0.026-0.007 0.041-0.006l-0.063 0.563zM13.987 6.721c0.017-0.265-0.137-0.611-0.483-0.648l-0.059 0.563c-0.015-0.002-0.026-0.007-0.032-0.011s-0.006-0.005-0.003-0.002c0.006 0.009 0.014 0.030 0.012 0.060l0.565 0.036zM7.43 28.872h7.115v-0.566h-7.115v0.566zM14.545 28.872c1.61 0 2.417-1.109 2.809-2.136 0.197-0.515 0.297-1.027 0.348-1.406 0.026-0.191 0.040-0.35 0.047-0.462 0.004-0.056 0.006-0.101 0.007-0.132 0.001-0.015 0.001-0.028 0.001-0.036 0-0.004 0-0.008 0-0.010 0-0.001 0-0.002 0-0.003s0-0.001 0-0.001 0-0 0-0 0-0-0.283-0.004-0.283-0.004-0.283-0.004 0 0 0 0 0 0 0 0 0 0.001 0 0.001-0 0.004-0 0.007-0 0.016-0.001 0.029c-0.001 0.026-0.003 0.066-0.006 0.116-0.007 0.101-0.019 0.247-0.043 0.423-0.048 0.353-0.14 0.819-0.316 1.281-0.353 0.926-1.011 1.772-2.28 1.772v0.566zM17.475 15.824h-12.975v0.566h12.975v-0.566zM4.217 16.107v8.573h0.566v-8.573h-0.566zM4.5 24.68c-0.283 0-0.283 0-0.283 0s0 0 0 0 0 0.001 0 0.001 0 0.002 0 0.003 0 0.006 0 0.010 0 0.021 0.001 0.036c0.001 0.031 0.002 0.076 0.005 0.132 0.006 0.113 0.018 0.272 0.042 0.463 0.048 0.38 0.143 0.892 0.336 1.408 0.193 0.515 0.489 1.049 0.947 1.456 0.464 0.412 1.080 0.682 1.882 0.682v-0.566c-0.663 0-1.145-0.219-1.506-0.539-0.366-0.326-0.62-0.769-0.793-1.231-0.173-0.461-0.261-0.927-0.305-1.279-0.022-0.176-0.033-0.322-0.038-0.423-0.003-0.051-0.004-0.090-0.005-0.116-0-0.013-0-0.023-0.001-0.029-0-0.003-0-0.005-0-0.007s0-0.001 0-0.001 0-0 0-0 0 0 0 0 0 0-0.283 0zM12.825 28.872h1.738v-0.566h-1.738v0.566zM14.563 28.872c1.602 0 2.404-1.11 2.794-2.137 0.195-0.515 0.295-1.026 0.346-1.406 0.026-0.191 0.039-0.35 0.047-0.462 0.004-0.056 0.006-0.101 0.007-0.132 0.001-0.016 0.001-0.028 0.001-0.036 0-0.004 0-0.008 0-0.010 0-0.001 0-0.002 0-0.003s0-0.001 0-0.001 0-0 0-0 0-0-0.283-0.004-0.283-0.004-0.283-0.004 0-0 0-0 0 0 0 0 0 0.001 0 0.001-0 0.004-0 0.007-0 0.016-0.001 0.029c-0.001 0.026-0.003 0.066-0.006 0.116-0.007 0.101-0.019 0.247-0.043 0.423-0.048 0.353-0.139 0.819-0.314 1.281-0.351 0.927-1.004 1.771-2.264 1.771v0.566zM17.475 15.824h-4.646v0.566h4.646v-0.566zM12.546 16.107l-0.004 12.482 0.566 0 0.004-12.482-0.566-0zM3.676 30.011c-0.219 0-0.411 0.11-0.541 0.274l0.444 0.352c0.039-0.049 0.076-0.059 0.097-0.059v-0.566zM3.135 30.285c-0.129 0.162-0.193 0.371-0.193 0.578h0.566c0-0.094 0.030-0.175 0.071-0.226l-0.444-0.352zM2.942 30.863c0 0.207 0.065 0.416 0.193 0.578l0.444-0.352c-0.041-0.051-0.071-0.132-0.071-0.226h-0.566zM3.135 31.441c0.13 0.164 0.322 0.274 0.541 0.274v-0.566c-0.021 0-0.058-0.010-0.097-0.059l-0.444 0.352zM3.676 31.714h3.351v-0.566h-3.35v0.566zM6.743 31.431c0 0.207 0.065 0.416 0.193 0.578l0.444-0.352c-0.041-0.051-0.071-0.132-0.071-0.226h-0.566zM6.936 32.009c0.13 0.164 0.322 0.274 0.541 0.274v-0.566c-0.021 0-0.058-0.010-0.097-0.059l-0.444 0.352zM7.477 32.283h6.759v-0.566h-6.759v0.566zM14.224 32.283c0.109 0.005 0.216-0.019 0.313-0.066l-0.247-0.51c-0.016 0.008-0.030 0.010-0.042 0.009l-0.025 0.566zM14.537 32.217c0.097-0.047 0.18-0.115 0.247-0.197l-0.438-0.359c-0.020 0.024-0.040 0.039-0.056 0.047l0.247 0.51zM14.784 32.020c0.067-0.082 0.118-0.176 0.151-0.276l-0.537-0.18c-0.014 0.040-0.032 0.073-0.052 0.098l0.438 0.359zM14.935 31.744c0.034-0.1 0.051-0.206 0.050-0.313l-0.566 0c0 0.047-0.007 0.091-0.021 0.132l0.537 0.18zM14.703 31.714h3.296v-0.566h-3.296v0.566zM17.999 31.714c0.219 0 0.411-0.11 0.541-0.274l-0.444-0.352c-0.039 0.049-0.076 0.059-0.097 0.059v0.566zM18.54 31.441c0.129-0.162 0.193-0.37 0.193-0.578h-0.566c0 0.094-0.030 0.175-0.071 0.226l0.444 0.352zM18.733 30.863c0-0.207-0.065-0.416-0.193-0.578l-0.444 0.352c0.041 0.051 0.071 0.132 0.071 0.226h0.566zM18.54 30.285c-0.13-0.164-0.322-0.274-0.541-0.274v0.566c0.020 0 0.058 0.010 0.097 0.059l0.444-0.352zM21.796 17.883c-0.172-0.46-0.428-0.872-0.752-1.205l-0.406 0.395c0.265 0.272 0.48 0.616 0.627 1.009l0.53-0.199zM21.044 16.678c-0.324-0.333-0.709-0.578-1.128-0.713l-0.174 0.539c0.325 0.105 0.631 0.297 0.896 0.569l0.406-0.395zM19.902 15.961c-0.572-0.154-1.168-0.108-1.717 0.13l0.225 0.52c0.434-0.188 0.898-0.223 1.345-0.102l0.147-0.547zM18.581 16.35v-0.922h-0.566v0.922h0.566zM18.298 15.145h-14.398v0.566h14.398v-0.566zM3.617 15.428v9.314h0.566v-9.314h-0.566zM3.617 24.742c0 0.835 0.194 2.047 0.764 3.060 0.577 1.026 1.553 1.863 3.089 1.863v-0.566c-1.284 0-2.093-0.682-2.596-1.575-0.51-0.906-0.691-2.015-0.691-2.782h-0.566zM7.47 29.666h7.251v-0.566h-7.251v0.566zM14.72 29.666c1.515 0 2.49-0.835 3.072-1.859 0.576-1.011 0.781-2.223 0.781-3.065h-0.566c0 0.77-0.191 1.879-0.707 2.785-0.509 0.894-1.318 1.572-2.58 1.572v0.566zM18.573 24.742v-1.144h-0.566v1.144h0.566zM18.268 23.88c0.454 0.035 0.91-0.028 1.344-0.185l-0.193-0.533c-0.36 0.13-0.735 0.182-1.107 0.153l-0.044 0.565zM19.612 23.695c0.719-0.261 1.349-0.776 1.812-1.465l-0.47-0.316c-0.405 0.602-0.942 1.033-1.536 1.249l0.193 0.532zM21.421 22.234c0.423-0.603 0.681-1.342 0.745-2.119l-0.564-0.047c-0.057 0.685-0.284 1.327-0.645 1.841l0.464 0.325zM22.167 20.115c0.065-0.777-0.066-1.561-0.378-2.25l-0.516 0.234c0.271 0.597 0.387 1.285 0.33 1.969l0.564 0.047zM16.825 16.876v6.818h0.566v-6.818h-0.566zM17.108 23.411h-12.018v0.566h12.018v-0.566zM5.373 23.694v-6.818h-0.566v6.818h0.566zM5.090 17.159h12.018v-0.566h-12.018v0.566zM14.728 27.651h-7.251v0.566h7.251v-0.566zM7.477 27.651c-0.696 0-1.147-0.296-1.453-0.696-0.316-0.413-0.483-0.947-0.569-1.405l-0.557 0.104c0.093 0.498 0.283 1.131 0.676 1.645 0.402 0.526 1.013 0.919 1.903 0.919v-0.566zM5.177 25.885h11.828v-0.566h-11.828v0.566zM16.727 25.547c-0.089 0.456-0.261 0.991-0.577 1.406-0.307 0.403-0.752 0.698-1.43 0.698v0.566c0.877 0 1.481-0.396 1.881-0.921 0.391-0.513 0.585-1.145 0.682-1.64l-0.556-0.109zM14.72 28.217h0.008v-0.566h-0.008v0.566zM19.749 20.691c-0.182 0.256-0.406 0.449-0.653 0.57l0.25 0.508c0.339-0.166 0.634-0.426 0.865-0.751l-0.462-0.328zM19.096 21.261c-0.246 0.121-0.508 0.167-0.767 0.138l-0.063 0.563c0.369 0.041 0.74-0.026 1.079-0.192l-0.25-0.508zM18.581 21.681v-3.221h-0.566v3.221h0.566zM18.482 18.676c0.283-0.241 0.617-0.339 0.942-0.293l0.081-0.561c-0.499-0.072-0.994 0.084-1.39 0.422l0.368 0.431zM19.385 18.375c0.031 0.009 0.085 0.023 0.162 0.091 0.082 0.072 0.202 0.218 0.327 0.515l0.522-0.219c-0.149-0.355-0.314-0.579-0.474-0.72-0.165-0.146-0.31-0.19-0.378-0.21l-0.159 0.544zM19.878 18.992c0.125 0.263 0.181 0.57 0.157 0.879l0.565 0.044c0.031-0.403-0.041-0.81-0.21-1.166l-0.512 0.243zM20.035 19.871c-0.024 0.309-0.126 0.595-0.286 0.82l0.462 0.328c0.224-0.315 0.358-0.701 0.389-1.104l-0.565-0.044zM17.999 30.011h-14.323v0.566h14.323v-0.566z"></path>
</symbol>
<symbol id="icon-world" viewBox="0 0 33 32">
<path d="M3.008 11.674l5.345 3.451c0.562 0.367 1.19 0.554 1.821 0.554 0.427 0 0.856-0.085 1.266-0.259 1.023-0.431 1.841-1.362 2.244-2.549 0.243-0.706 0.803-1.162 1.427-1.162 0.071 0 0.137 0.007 0.236 0.027 1.434 0.239 2.821-0.334 3.818-1.568 0.998-1.232 1.422-2.902 1.164-4.582l-0.125-0.816c2.137 1.574 3.852 3.936 4.783 6.815 0.222 0.684 0.87 1.025 1.447 0.765 0.578-0.263 0.867-1.029 0.646-1.713-2.058-6.363-7.314-10.638-13.077-10.638-7.722 0-14.003 7.436-14.003 16.577 0 6.741 3.399 12.755 8.658 15.322 0.14 0.069 0.285 0.101 0.427 0.101 0.44 0 0.858-0.309 1.036-0.821 0.236-0.678-0.037-1.452-0.608-1.732-0.4-0.195-0.782-0.422-1.154-0.662l0.808-2.169c0.299-0.788 0.457-1.682 0.457-2.586 0-1.033-0.195-2.012-0.58-2.907-0.995-2.322-3.136-3.716-5.327-3.465l-1.424 0.159c-0.030-0.41-0.050-0.822-0.050-1.24 0-1.727 0.278-3.375 0.766-4.903zM14.002 2.652c1.282 0 2.53 0.257 3.71 0.727l0.413 2.684c0.129 0.833-0.082 1.659-0.577 2.27-0.494 0.61-1.186 0.895-1.861 0.782-1.738-0.342-3.415 0.829-4.081 2.762-0.165 0.487-0.501 0.867-0.919 1.044-0.42 0.178-0.864 0.135-1.259-0.122l-5.433-3.508c2.073-3.976 5.777-6.64 10.005-6.64zM3.927 20.298c1.275-0.143 2.535 0.667 3.117 2.025 0.224 0.521 0.337 1.095 0.337 1.707 0 0.532-0.090 1.050-0.263 1.508l-0.649 1.741c-1.809-1.778-3.12-4.162-3.768-6.844l1.225-0.137z"></path>
<path d="M32.445 15.738c-0.262-1.104-1.572-0.595-1.572-0.595l-7.561 4.417 0.124 0.256-0.925 0.466-0.507-1.87 1.012-2.421c0.26-0.424-0.038-0.593-0.038-0.593l-7.299 0.087c-0.523 0-0.187 0.507-0.187 0.507l1.122 2.507-3.031 10.994c-0.111 2.546 1.947 2.507 1.947 2.507h7.784c1.684-0.299 1.76-2.338 1.76-2.338l-2.375-8.695 1.041-0.524 0.21 0.433 7.86-3.439c1.123-0.808 0.636-1.699 0.636-1.699zM17.361 18.096c1.248-0.013 2.497-0.027 3.745-0.043 0.081 0.005 0.158 0.044 0.214 0.111s0.087 0.156 0.087 0.248-0.031 0.181-0.087 0.248c-0.056 0.067-0.133 0.107-0.214 0.111-1.247 0.013-2.495 0.027-3.745 0.043-0.084 0-0.165-0.038-0.224-0.105s-0.093-0.159-0.093-0.254 0.033-0.187 0.093-0.254c0.059-0.067 0.14-0.105 0.224-0.105zM24.061 29.346c0.084 0 0.165 0.038 0.224 0.105s0.093 0.159 0.093 0.254c0 0.095-0.033 0.187-0.093 0.254s-0.14 0.105-0.224 0.105c-1.206-0.004-2.413-0.013-3.623-0.017l-5.997-0.026c-0.081-0.005-0.158-0.044-0.214-0.111s-0.088-0.156-0.088-0.248 0.031-0.181 0.088-0.248c0.056-0.067 0.133-0.107 0.214-0.111 1.21 0.009 2.418 0.015 3.623 0.017l5.997 0.026z"></path>
</symbol>
<symbol id="icon-beans" viewBox="0 0 22 32">
<path d="M13.805 5.774l-4.196-5.141-4.196 5.141-4.779-3.427 1.806 6.892h14.338l1.806-6.892-4.779 3.427z"></path>
<path d="M21.56 17.051c-1.32-7.058-7.683-6.742-10.994-0.918-1.537-1.977-4.137-3.241-6.197-2.4-0.018 0.003-0.035 0.010-0.051 0.021-3.769 1.46-4.379 7.442-2.795 11.486 1.493 4.325 5.883 8.006 9.461 5.072 1.786 1.409 3.906 1.114 5.771-0.218 3.434-2.327 5.699-8.501 4.805-13.044zM17.523 12.709c-0.361 2.109-0.036 2.848-0.952 5.333-0.4 1.162-0.984 2.223-1.72 3.125-0.615 0.759-1.13 1.622-1.529 2.562-0.107-2.539-0.899-4.97-2.262-6.934 1.728-3.023 4.311-4.641 6.464-4.086zM5.642 29.66c-1.549-1.107-2.755-2.777-3.438-4.761-1.367-3.484-1.057-8.552 1.984-10.183 0.256 1.857 0 2.562 0.837 4.906 0.395 1.143 0.979 2.181 1.717 3.053 0.688 0.799 1.231 1.757 1.594 2.814 0.837 2.263 0.505 2.946 0.822 4.885-1.206 0.298-2.463 0.044-3.517-0.713zM9.84 30.13c-0.278-1.896 0-2.617-0.851-4.97-0.399-1.149-0.989-2.192-1.735-3.066-0.682-0.8-1.22-1.756-1.58-2.809-0.83-2.242-0.509-2.921-0.812-4.829 3.052-0.726 5.742 2.135 6.969 5.478 1.364 3.484 1.053 8.557-1.991 10.179v0.017zM11.583 29.745c0.215-0.255 0.41-0.533 0.584-0.828-0.029 0.367-0.076 0.732-0.141 1.093-0.153-0.075-0.301-0.164-0.444-0.265zM20.131 24.071c-1.295 3.574-4.22 6.917-7.434 6.191 0.382-2.135 0.036-2.882 0.967-5.397 0.4-1.162 0.984-2.223 1.721-3.125 0.79-0.97 1.417-2.109 1.847-3.356 0.945-2.562 0.656-3.348 0.981-5.418 3.272 1.785 3.358 7.353 1.919 11.106z"></path>
<path d="M13.805 5.774l-0.491 0.401c0.212 0.259 0.588 0.309 0.86 0.114l-0.369-0.515zM9.609 0.634l0.491-0.401c-0.12-0.147-0.301-0.233-0.491-0.233s-0.371 0.086-0.491 0.233l0.491 0.401zM5.413 5.774l-0.369 0.515c0.272 0.195 0.649 0.145 0.86-0.114l-0.491-0.401zM0.634 2.347l0.369-0.515c-0.217-0.156-0.508-0.159-0.728-0.007s-0.322 0.424-0.254 0.683l0.613-0.161zM2.44 9.239l-0.613 0.161c0.073 0.279 0.325 0.473 0.613 0.473v-0.634zM16.777 9.239v0.634c0.288 0 0.54-0.194 0.613-0.473l-0.613-0.161zM18.584 2.347l0.613 0.161c0.068-0.258-0.034-0.531-0.254-0.683s-0.511-0.149-0.728 0.007l0.369 0.515zM21.56 17.051l-0.623 0.116 0.001 0.003 0.001 0.003 0.622-0.122zM10.565 16.133l-0.5 0.389 0.582 0.749 0.469-0.825-0.551-0.313zM4.368 13.734l0.112 0.624 0.065-0.012 0.062-0.025-0.24-0.587zM4.318 13.755l0.229 0.591 0.072-0.028 0.063-0.044-0.364-0.519zM1.522 25.241l0.599-0.207-0.004-0.012-0.005-0.012-0.59 0.231zM10.984 30.313l0.393-0.497-0.4-0.316-0.394 0.323 0.402 0.49zM16.755 30.095l-0.355-0.525-0.006 0.004-0.006 0.005 0.368 0.516zM17.523 12.709l0.625 0.107 0.098-0.575-0.565-0.146-0.158 0.614zM16.571 18.042l-0.594-0.219-0.002 0.007-0.002 0.007 0.599 0.206zM14.851 21.167l-0.491-0.401-0.002 0.002 0.492 0.399zM13.321 23.729l-0.633 0.026 1.216 0.221-0.583-0.248zM11.060 16.795l-0.55-0.314-0.198 0.347 0.228 0.328 0.521-0.361zM5.642 29.66l0.37-0.515-0.001-0.001-0.369 0.515zM2.204 24.899l0.599-0.206-0.004-0.013-0.005-0.012-0.59 0.231zM4.188 14.716l0.628-0.086-0.124-0.903-0.803 0.431 0.3 0.558zM5.025 19.622l0.599-0.207-0.001-0.003-0.001-0.003-0.597 0.213zM6.742 22.675l-0.484 0.409 0.002 0.002 0.002 0.002 0.48-0.413zM8.336 25.488l-0.599 0.206 0.002 0.007 0.003 0.007 0.594-0.22zM9.159 30.373l0.152 0.615 0.568-0.14-0.095-0.577-0.625 0.102zM9.84 30.13l-0.627 0.092 1.261-0.092h-0.634zM8.989 25.16l-0.599 0.208 0.001 0.004 0.001 0.004 0.596-0.216zM7.254 22.094v0zM5.674 19.284l0.6-0.205-0.003-0.008-0.003-0.008-0.594 0.22zM4.863 14.455l-0.147-0.616-0.571 0.136 0.092 0.58 0.626-0.099zM11.831 19.933l-0.595 0.218 0.002 0.006 0.002 0.006 0.59-0.231zM9.84 30.113l-0.298-0.559-0.336 0.179v0.38h0.634zM11.583 29.745l-0.485-0.408-0.443 0.527 0.561 0.398 0.367-0.517zM12.167 28.917l0.632 0.050-1.178-0.372 0.546 0.321zM12.026 30.010l-0.28 0.569 0.755 0.372 0.148-0.828-0.624-0.112zM20.131 24.071l-0.592-0.227-0.002 0.006-0.002 0.006 0.596 0.216zM12.697 30.262l-0.624-0.112-0.107 0.596 0.591 0.133 0.14-0.618zM13.664 24.865l0.594 0.22 0.003-0.007 0.002-0.007-0.599-0.206zM15.384 21.739l0.491 0.401 0-0-0.491-0.4zM17.231 18.383l-0.594-0.219-0.002 0.006-0.002 0.006 0.599 0.206zM18.212 12.965l0.303-0.556-0.79-0.431-0.139 0.889 0.626 0.098zM14.296 5.374l-4.196-5.141-0.982 0.801 4.196 5.141 0.982-0.801zM9.118 0.233l-4.196 5.141 0.982 0.801 4.196-5.141-0.982-0.801zM5.782 5.26l-4.779-3.427-0.739 1.030 4.779 3.427 0.739-1.030zM0.021 2.508l1.806 6.892 1.226-0.321-1.806-6.892-1.226 0.321zM17.39 9.399l1.806-6.892-1.226-0.321-1.806 6.892 1.226 0.321zM18.215 1.832l-4.779 3.427 0.739 1.030 4.779-3.427-0.739-1.030zM22.183 16.935c-0.694-3.711-2.786-5.718-5.351-5.806-2.486-0.086-5.091 1.657-6.817 4.692l1.102 0.626c1.586-2.789 3.818-4.116 5.671-4.052 1.774 0.062 3.523 1.426 4.15 4.773l1.246-0.233zM11.066 15.744c-0.83-1.068-1.951-1.95-3.159-2.453s-2.552-0.646-3.778-0.145l0.479 1.173c0.833-0.34 1.819-0.272 2.811 0.141s1.939 1.152 2.646 2.060l1.001-0.778zM4.256 13.11c-0.112 0.020-0.215 0.065-0.302 0.126l0.728 1.038c-0.056 0.039-0.124 0.070-0.201 0.083l-0.225-1.247zM4.089 13.164c-2.17 0.841-3.351 2.951-3.798 5.244-0.449 2.303-0.194 4.932 0.642 7.064l1.18-0.462c-0.748-1.911-0.98-4.296-0.578-6.359 0.404-2.074 1.413-3.685 3.012-4.305l-0.458-1.182zM0.923 25.448c0.785 2.273 2.336 4.403 4.209 5.587 0.942 0.595 1.989 0.965 3.073 0.965 1.093 0 2.179-0.376 3.18-1.197l-0.803-0.98c-0.788 0.646-1.593 0.91-2.376 0.91-0.792-0-1.607-0.271-2.396-0.769-1.589-1.004-2.98-2.878-3.688-4.929l-1.198 0.414zM10.591 30.811c2.076 1.638 4.519 1.239 6.532-0.2l-0.737-1.031c-1.716 1.226-3.515 1.416-5.010 0.236l-0.785 0.995zM17.111 30.62c1.864-1.263 3.353-3.52 4.265-5.997 0.914-2.483 1.281-5.283 0.806-7.694l-1.243 0.245c0.42 2.131 0.102 4.691-0.752 7.012-0.856 2.328-2.216 4.321-3.786 5.385l0.711 1.049zM16.899 12.602c-0.184 1.078-0.201 1.87-0.274 2.567-0.073 0.708-0.209 1.462-0.649 2.653l1.189 0.438c0.477-1.294 0.637-2.151 0.72-2.961 0.085-0.821 0.086-1.453 0.262-2.484l-1.249-0.214zM15.972 17.836c-0.377 1.096-0.925 2.090-1.612 2.931l0.981 0.802c0.787-0.963 1.407-2.091 1.829-3.32l-1.199-0.412zM14.358 20.769c-0.654 0.807-1.199 1.722-1.62 2.713l1.166 0.496c0.377-0.887 0.863-1.7 1.439-2.411l-0.985-0.798zM13.954 23.703c-0.111-2.651-0.939-5.199-2.374-7.269l-1.041 0.722c1.29 1.86 2.047 4.173 2.149 6.6l1.266-0.053zM11.61 17.11c0.823-1.44 1.834-2.516 2.86-3.163s2.032-0.846 2.895-0.624l0.316-1.227c-1.29-0.333-2.653 0-3.888 0.779s-2.38 2.024-3.284 3.606l1.1 0.629zM6.010 29.144c-1.431-1.023-2.562-2.579-3.207-4.452l-1.198 0.413c0.721 2.095 2.001 3.878 3.668 5.070l0.737-1.031zM2.794 24.668c-0.644-1.642-0.894-3.668-0.624-5.461 0.271-1.804 1.044-3.249 2.318-3.933l-0.599-1.117c-1.767 0.948-2.67 2.852-2.972 4.861-0.304 2.020-0.025 4.27 0.698 6.112l1.18-0.463zM3.56 14.802c0.236 1.71 0.003 2.611 0.868 5.032l1.194-0.426c-0.809-2.266-0.529-2.774-0.806-4.779l-1.255 0.173zM4.426 19.829c0.419 1.212 1.041 2.32 1.832 3.255l0.967-0.819c-0.685-0.809-1.231-1.778-1.602-2.851l-1.198 0.414zM6.262 23.088c0.633 0.735 1.136 1.621 1.475 2.606l1.198-0.412c-0.388-1.128-0.97-2.157-1.713-3.021l-0.96 0.827zM7.742 25.708c0.398 1.076 0.513 1.758 0.569 2.4 0.056 0.634 0.059 1.37 0.222 2.367l1.251-0.205c-0.154-0.941-0.144-1.516-0.211-2.274-0.066-0.75-0.204-1.542-0.643-2.728l-1.189 0.44zM9.006 29.758c-1.017 0.252-2.085 0.041-2.995-0.613l-0.739 1.029c1.197 0.859 2.643 1.159 4.039 0.813l-0.304-1.23zM10.467 30.038c-0.253-1.728-0.005-2.669-0.882-5.094l-1.192 0.431c0.825 2.28 0.518 2.782 0.82 4.846l1.254-0.184zM9.588 24.952c-0.424-1.219-1.052-2.332-1.852-3.269l-0.964 0.823c0.692 0.811 1.244 1.783 1.618 2.862l1.197-0.416zM7.736 21.683c-0.627-0.735-1.127-1.62-1.462-2.603l-1.199 0.41c0.384 1.125 0.96 2.152 1.697 3.016l0.964-0.823zM6.269 19.064c-0.395-1.067-0.51-1.742-0.566-2.376-0.055-0.622-0.058-1.355-0.214-2.333l-1.252 0.199c0.148 0.93 0.136 1.492 0.203 2.246 0.066 0.743 0.205 1.528 0.64 2.703l1.189-0.44zM5.009 15.072c1.273-0.303 2.507 0.126 3.608 1.076 1.108 0.956 2.034 2.408 2.619 4.003l1.19-0.436c-0.641-1.748-1.674-3.398-2.981-4.526-1.314-1.134-2.951-1.773-4.73-1.35l0.293 1.233zM11.241 20.164c0.643 1.642 0.891 3.669 0.621 5.462-0.272 1.804-1.045 3.247-2.32 3.927l0.596 1.118c1.77-0.943 2.674-2.847 2.977-4.856 0.305-2.020 0.027-4.271-0.694-6.113l-1.18 0.462zM9.207 30.113v0.017h1.267v-0.017h-1.267zM12.068 30.153c0.238-0.283 0.454-0.589 0.646-0.915l-1.092-0.643c-0.157 0.266-0.332 0.514-0.523 0.742l0.97 0.816zM11.535 28.867c-0.028 0.347-0.072 0.691-0.133 1.032l1.247 0.223c0.068-0.381 0.118-0.767 0.149-1.155l-1.263-0.1zM12.306 29.441c-0.122-0.060-0.241-0.131-0.357-0.213l-0.733 1.034c0.169 0.12 0.347 0.226 0.531 0.317l0.559-1.137zM19.536 23.855c-0.621 1.713-1.626 3.349-2.831 4.458s-2.535 1.632-3.868 1.331l-0.279 1.236c1.881 0.425 3.62-0.36 5.005-1.635s2.49-3.098 3.164-4.958l-1.192-0.432zM13.321 30.374c0.197-1.097 0.213-1.893 0.284-2.604 0.072-0.717 0.207-1.48 0.653-2.685l-1.189-0.44c-0.485 1.31-0.642 2.178-0.725 2.997-0.083 0.825-0.085 1.47-0.271 2.508l1.247 0.223zM14.263 25.071c0.377-1.095 0.926-2.090 1.612-2.931l-0.982-0.801c-0.786 0.963-1.406 2.091-1.829 3.32l1.198 0.412zM15.876 22.14c0.84-1.031 1.502-2.236 1.955-3.55l-1.198-0.413c-0.407 1.181-0.998 2.254-1.739 3.162l0.982 0.801zM17.826 18.603c0.971-2.633 0.714-3.634 1.013-5.54l-1.252-0.196c-0.351 2.236-0.031 2.806-0.95 5.297l1.189 0.439zM17.909 13.521c1.378 0.752 2.161 2.346 2.4 4.334 0.237 1.974-0.084 4.201-0.77 5.988l1.183 0.454c0.754-1.966 1.108-4.399 0.845-6.593-0.262-2.18-1.158-4.263-3.052-5.295l-0.607 1.113zM2.44 9.872h14.338v-1.267h-14.338v1.267z"></path>
</symbol>
</defs>
</svg>
